<?xml version="1.0" encoding="utf-8"?>
<!-- Generator: Adobe Illustrator 24.3.0, SVG Export Plug-In . SVG Version: 6.00 Build 0)  -->
<svg version="1.1" id="Layer_1" xmlns="http://www.w3.org/2000/svg" xmlns:xlink="http://www.w3.org/1999/xlink" x="0px" y="0px"
	 viewBox="0 0 8.4 8.5" style="enable-background:new 0 0 8.4 8.5;" xml:space="preserve">
<style type="text/css">
	.st0{fill:#234D54;}
</style>
<g>
	<g>
		<path class="st0" d="M7.2,0C6.9,0,6.7,0.2,6.7,0.5s0.2,0.5,0.5,0.5c0.2,0,0.5-0.2,0.5-0.5S7.5,0,7.2,0z"/>
	</g>
	<g>
		<path class="st0" d="M3.8,1.6C3.4,1.6,3.2,1.3,3.2,1s0.3-0.6,0.6-0.6S4.4,0.6,4.4,1S4.1,1.6,3.8,1.6z M3.8,0.6
			C3.6,0.6,3.4,0.8,3.4,1s0.2,0.4,0.4,0.4C4,1.4,4.2,1.2,4.2,1S4,0.6,3.8,0.6z"/>
	</g>
	<g>
		<path class="st0" d="M5,3.3C4.6,3.3,4.4,3,4.4,2.7c0-0.3,0.3-0.6,0.6-0.6s0.6,0.3,0.6,0.6C5.6,3,5.3,3.3,5,3.3z M5,2.3
			c-0.2,0-0.4,0.2-0.4,0.4S4.8,3.1,5,3.1c0.2,0,0.4-0.2,0.4-0.4S5.2,2.3,5,2.3z"/>
	</g>
	<g>
		<path class="st0" d="M5.8,7.7c-0.3,0-0.5-0.2-0.5-0.5s0.2-0.5,0.5-0.5s0.5,0.2,0.5,0.5S6.1,7.7,5.8,7.7z M5.8,6.9
			C5.6,6.9,5.5,7,5.5,7.2s0.1,0.3,0.3,0.3s0.3-0.1,0.3-0.3S6,6.9,5.8,6.9z"/>
	</g>
	<g>
		<path class="st0" d="M4.3,5.3C4,5.3,3.8,5,3.8,4.8S4,4.3,4.3,4.3s0.5,0.2,0.5,0.5S4.6,5.3,4.3,5.3z M4.3,4.5C4.1,4.5,4,4.6,4,4.8
			s0.1,0.3,0.3,0.3s0.3-0.1,0.3-0.3S4.4,4.5,4.3,4.5z"/>
	</g>
	<g>
		<path class="st0" d="M2.9,6C2.6,6,2.4,5.8,2.4,5.5C2.4,5.2,2.6,5,2.9,5s0.5,0.2,0.5,0.5C3.4,5.8,3.2,6,2.9,6z M2.9,5.2
			c-0.2,0-0.3,0.1-0.3,0.3c0,0.2,0.1,0.3,0.3,0.3s0.3-0.1,0.3-0.3C3.2,5.3,3.1,5.2,2.9,5.2z"/>
	</g>
	<g>
		<path class="st0" d="M2.3,8.5C2,8.5,1.8,8.3,1.8,8c0-0.3,0.2-0.5,0.5-0.5S2.8,7.7,2.8,8C2.8,8.3,2.6,8.5,2.3,8.5z M2.3,7.7
			C2.1,7.7,2,7.8,2,8c0,0.2,0.1,0.3,0.3,0.3S2.6,8.1,2.6,8C2.6,7.8,2.4,7.7,2.3,7.7z"/>
	</g>
	<g>
		<path class="st0" d="M1.6,2.8c-0.3,0-0.6-0.3-0.6-0.6c0-0.3,0.3-0.6,0.6-0.6s0.6,0.3,0.6,0.6C2.2,2.5,1.9,2.8,1.6,2.8z M1.6,1.8
			C1.3,1.8,1.2,2,1.2,2.2s0.2,0.4,0.4,0.4c0.2,0,0.4-0.2,0.4-0.4S1.8,1.8,1.6,1.8z"/>
	</g>
	<g>
		<path class="st0" d="M2.3,1.8l0.8-0.4C3.1,1.3,3,1.2,3,1.1L2.2,1.6C2.2,1.7,2.3,1.7,2.3,1.8z"/>
	</g>
	<g>
		<g>
			<path class="st0" d="M4.3,4.1c0.1,0,0.2,0,0.2,0l0.3-0.7c-0.1,0-0.1,0-0.2-0.1L4.3,4.1z"/>
		</g>
	</g>
	<g>
		<g>
			<path class="st0" d="M4.4,1.4C4.3,1.5,4.3,1.6,4.2,1.6l0.3,0.6c0.1,0,0.1-0.1,0.2-0.1L4.4,1.4z"/>
		</g>
	</g>
	<g>
		<g>
			<path class="st0" d="M3.5,5.3l0.2-0.1C3.7,5.1,3.7,5,3.6,5L3.4,5.1C3.5,5.2,3.5,5.2,3.5,5.3z"/>
		</g>
		<g>
			<path class="st0" d="M2.8,4.9L2,3C1.9,3,1.8,3.1,1.7,3.1L2.6,5C2.7,4.9,2.7,4.9,2.8,4.9z"/>
		</g>
	</g>
	<g>
		<path class="st0" d="M2.5,7.4l0.4-1.2c0,0,0,0,0,0c-0.1,0-0.1,0-0.2,0L2.3,7.3C2.4,7.4,2.5,7.4,2.5,7.4z"/>
	</g>
	<g>
		<g>
			<path class="st0" d="M5.7,6.5L4.7,5.3C4.7,5.3,4.6,5.3,4.5,5.4l1,1.2C5.5,6.6,5.6,6.5,5.7,6.5z"/>
		</g>
		<g>
			<path class="st0" d="M5.2,7.6c0-0.1,0-0.2,0-0.2L2.9,7.8c0,0.1,0,0.1,0,0.2c0,0,0,0,0,0L5.2,7.6z"/>
		</g>
	</g>
	<g>
		<circle class="st0" cx="8" cy="1.9" r="0.4"/>
	</g>
	<g>
		<circle class="st0" cx="7.7" cy="3.2" r="0.4"/>
	</g>
	<g>
		<circle class="st0" cx="7" cy="4.5" r="0.5"/>
	</g>
	<g>
		<circle class="st0" cx="0.5" cy="0.6" r="0.5"/>
	</g>
</g>
</svg>
