<?xml version="1.0" encoding="UTF-8" standalone="no"?>
<!DOCTYPE svg PUBLIC "-//W3C//DTD SVG 1.1//EN" "http://www.w3.org/Graphics/SVG/1.1/DTD/svg11.dtd">
<svg width="100%" height="100%" viewBox="0 0 162 162" version="1.1" xmlns="http://www.w3.org/2000/svg" xmlns:xlink="http://www.w3.org/1999/xlink" xml:space="preserve" xmlns:serif="http://www.serif.com/" style="fill-rule:evenodd;clip-rule:evenodd;stroke-linecap:round;stroke-linejoin:round;stroke-miterlimit:10;">
    <g transform="matrix(1,0,0,1,-1724,-5995)">
        <g id="Layer-11" serif:id="Layer 11">
        </g>
        <g id="Layer-10" serif:id="Layer 10">
        </g>
        <g id="Layer-1" serif:id="Layer 1">
        </g>
        <g id="Layer-2" serif:id="Layer 2" transform="matrix(8.33333,0,0,8.33333,0,0)">
            <g opacity="0.05">
                <g transform="matrix(1,0,0,-1,-0.001,1645.37)">
                    <rect x="0.001" y="808.746" width="686.862" height="195.006" style="fill:none"/>
                </g>
            </g>

            <g transform="matrix(-1,0,0,1,434.203,-125.034)">
                <rect x="156.633" y="828.375" width="120.937" height="113.654" style="fill:none;"/>
            </g>
            <g transform="matrix(1,0,0,1,217.461,734.251)">
                <path d="M0,-11.338L5.354,-5.984C5.545,-5.792 5.545,-5.482 5.354,-5.29L0.064,-0.001C-0.127,0.191 -0.438,0.191 -0.629,-0.001L-5.983,-5.355C-6.175,-5.546 -6.175,-5.858 -5.983,-6.049L-0.694,-11.338C-0.502,-11.529 -0.192,-11.529 0,-11.338Z" style="fill:none;fill-rule:nonzero;stroke:white;stroke-width:0.75px;"/>
            </g>
            <g transform="matrix(1,0,0,1,212.426,734.666)">
                <path d="M0,-4.821L3.338,-1.483C3.529,-1.292 3.529,-0.981 3.338,-0.789L2.55,-0.001C2.358,0.191 2.047,0.191 1.855,-0.001L-1.482,-3.339C-1.674,-3.531 -1.674,-3.842 -1.482,-4.033L-0.694,-4.821C-0.502,-5.012 -0.191,-5.012 0,-4.821Z" style="fill:none;fill-rule:nonzero;stroke:white;stroke-width:0.75px;"/>
            </g>
            <g transform="matrix(1,0,0,1,213.145,731.282)">
                <path d="M0,5.213L-4.03,1.183C-4.265,0.947 -4.203,0.551 -3.908,0.4L-2.867,-0.137C-2.677,-0.234 -2.446,-0.198 -2.295,-0.048L1.23,3.478C1.381,3.629 1.417,3.86 1.319,4.05L0.783,5.09C0.631,5.386 0.235,5.447 0,5.213Z" style="fill:none;fill-rule:nonzero;stroke:white;stroke-width:0.75px;"/>
            </g>
            <g transform="matrix(-0.707046,0.707168,0.707168,0.707046,217.97,733.337)">
                <path d="M-7.011,-2.905L1.203,-2.904" style="fill:none;fill-rule:nonzero;stroke:white;stroke-width:0.75px;"/>
            </g>
            <g transform="matrix(0.995708,-0.0925472,-0.0925472,-0.995708,217.16,722.899)">
                <path d="M-0.016,0.336L7.246,0.336" style="fill:none;fill-rule:nonzero;stroke:white;stroke-width:0.75px;"/>
            </g>
            <g transform="matrix(0.173208,-0.984885,-0.984885,-0.173208,226.96,726.418)">
                <path d="M-2.821,3.361L4.003,3.361" style="fill:none;fill-rule:nonzero;stroke:white;stroke-width:0.75px;"/>
            </g>
        </g>
        <g id="Layer-7" serif:id="Layer 7">
        </g>
        <g id="Layer-9" serif:id="Layer 9">
        </g>
    </g>

</svg>
