<?xml version="1.0" encoding="utf-8"?>
<!-- Generator: Adobe Illustrator 24.3.0, SVG Export Plug-In . SVG Version: 6.00 Build 0)  -->
<svg version="1.1" id="Layer_1" xmlns="http://www.w3.org/2000/svg" xmlns:xlink="http://www.w3.org/1999/xlink" x="0px" y="0px"
	 viewBox="0 0 15.8 16" style="enable-background:new 0 0 15.8 16;" xml:space="preserve">
<style type="text/css">
	.st0{fill:#224D54;stroke:#224D54;stroke-width:0.1;stroke-miterlimit:10;}
</style>
<g>
	<g>
		<path class="st0" d="M4.7,4.9h1c0.1,0,0.1,0.1,0.1,0.1v5.7h4.4c0.1,0,0.1,0.1,0.1,0.1v1c0,0.1-0.1,0.1-0.1,0.1H4.7
			c-0.1,0-0.1-0.1-0.1-0.1V5.1C4.5,5,4.6,4.9,4.7,4.9L4.7,4.9z M5.5,5.2H4.8v6.5H10V11H5.7c-0.1,0-0.1-0.1-0.1-0.1L5.5,5.2L5.5,5.2z
			"/>
		<path class="st0" d="M5.7,4h5.5c0.1,0,0.1,0.1,0.1,0.1v6.8c0,0.1-0.1,0.1-0.1,0.1H5.7c-0.1,0-0.1-0.1-0.1-0.1V4.1
			C5.5,4,5.6,4,5.7,4z M11,4.2H5.8v6.5H11V4.2z"/>
		<path class="st0" d="M6.5,5.1c-0.1,0-0.1,0.1-0.1,0.1c0,0.1,0.1,0.1,0.1,0.1h3.8c0.1,0,0.1-0.1,0.1-0.1c0-0.1-0.1-0.1-0.1-0.1H6.5
			z"/>
		<path class="st0" d="M6.5,6C6.4,6,6.3,6.1,6.3,6.1c0,0.1,0.1,0.1,0.1,0.1h3.8c0.1,0,0.1-0.1,0.1-0.1c0-0.1-0.1-0.1-0.1-0.1H6.5z"
			/>
		<path class="st0" d="M6.5,6.9C6.4,6.9,6.3,7,6.3,7c0,0.1,0.1,0.1,0.1,0.1h3.8c0.1,0,0.1-0.1,0.1-0.1c0-0.1-0.1-0.1-0.1-0.1H6.5z"
			/>
		<path class="st0" d="M6.5,8.7c-0.1,0-0.1,0.1-0.1,0.1C6.3,8.9,6.4,9,6.5,9h3.8c0.1,0,0.1-0.1,0.1-0.1c0-0.1-0.1-0.1-0.1-0.1H6.5z"
			/>
		<path class="st0" d="M6.5,9.6c-0.1,0-0.1,0.1-0.1,0.1c0,0.1,0.1,0.1,0.1,0.1h3.8c0.1,0,0.1-0.1,0.1-0.1c0-0.1-0.1-0.1-0.1-0.1H6.5
			z"/>
		<path class="st0" d="M6.7,7.8C6.7,7.8,6.6,7.9,6.6,8c0,0.1,0.1,0.1,0.1,0.1H8C8.1,8.1,8.1,8,8.1,8c0-0.1-0.1-0.1-0.1-0.1H6.7z"/>
		<path class="st0" d="M8.8,7.8C8.7,7.8,8.6,7.9,8.6,8c0,0.1,0.1,0.1,0.1,0.1h1.3c0.1,0,0.1-0.1,0.1-0.1c0-0.1-0.1-0.1-0.1-0.1H8.8z
			"/>
	</g>
</g>
</svg>
