<?xml version="1.0" encoding="utf-8"?>
<!-- Generator: Adobe Illustrator 24.3.0, SVG Export Plug-In . SVG Version: 6.00 Build 0)  -->
<svg version="1.1" id="Layer_1" xmlns="http://www.w3.org/2000/svg" xmlns:xlink="http://www.w3.org/1999/xlink" x="0px" y="0px"
	 viewBox="0 0 10.1 9.8" style="enable-background:new 0 0 10.1 9.8;" xml:space="preserve">
<style type="text/css">
	.st0{fill:#131026;}
</style>
<path class="st0" d="M5,0C2.3,0,0,2.3,0,5c0,2.2,1.4,4.1,3.4,4.8c0.3,0,0.3-0.1,0.3-0.2c0-0.1,0-0.4,0-0.9C2.4,9,2.1,8,2.1,8
	C1.9,7.5,1.5,7.3,1.5,7.3C1.1,7,1.6,7,1.6,7c0.5,0,0.8,0.5,0.8,0.5c0.4,0.8,1.2,0.5,1.5,0.4c0-0.3,0.2-0.5,0.3-0.7
	C3,7.1,1.8,6.7,1.8,4.8c0-0.5,0.2-1,0.5-1.4c-0.1-0.1-0.2-0.6,0-1.3c0,0,0.4-0.1,1.4,0.5c0.4-0.1,0.8-0.2,1.3-0.2
	c0.4,0,0.9,0.1,1.3,0.2c1-0.7,1.4-0.5,1.4-0.5C8,2.8,7.8,3.3,7.7,3.4c0.3,0.4,0.5,0.8,0.5,1.4c0,1.9-1.2,2.4-2.3,2.5
	c0.2,0.2,0.3,0.5,0.3,0.9c0,0.7,0,1.2,0,1.4c0,0.1,0.1,0.3,0.3,0.2c2-0.7,3.4-2.6,3.4-4.8C10.1,2.3,7.8,0,5,0z"/>
</svg>
