<?xml version="1.0" encoding="utf-8"?>
<!-- Generator: Adobe Illustrator 24.3.0, SVG Export Plug-In . SVG Version: 6.00 Build 0)  -->
<svg version="1.1" id="Layer_1" xmlns="http://www.w3.org/2000/svg" xmlns:xlink="http://www.w3.org/1999/xlink" x="0px" y="0px"
	 viewBox="0 0 16.1 15.5" style="enable-background:new 0 0 16.1 15.5;" xml:space="preserve">
<style type="text/css">
	.st0{fill:none;stroke:#010101;stroke-width:0.75;stroke-linecap:round;stroke-linejoin:round;stroke-miterlimit:9.9999;}
	.st1{fill:none;stroke:#010101;stroke-width:0.75;stroke-linecap:round;stroke-linejoin:round;stroke-miterlimit:10;}
</style>
<g>
	<path class="st0" d="M8.9,1.4l5.4,5.4c0.2,0.2,0.2,0.5,0,0.7l-5.3,5.3c-0.2,0.2-0.5,0.2-0.7,0L2.9,7.4c-0.2-0.2-0.2-0.5,0-0.7
		l5.3-5.3C8.4,1.2,8.7,1.2,8.9,1.4z"/>
	<path class="st0" d="M3.8,8.3l3.3,3.3c0.2,0.2,0.2,0.5,0,0.7l-0.8,0.8c-0.2,0.2-0.5,0.2-0.7,0L2.3,9.8c-0.2-0.2-0.2-0.5,0-0.7
		l0.8-0.8C3.3,8.1,3.6,8.1,3.8,8.3z"/>
	<path class="st1" d="M4.5,15l-4-4c-0.2-0.2-0.2-0.6,0.1-0.8l1-0.5c0.2-0.1,0.4-0.1,0.6,0.1l3.5,3.5c0.2,0.2,0.2,0.4,0.1,0.6l-0.5,1
		C5.2,15.1,4.8,15.2,4.5,15z"/>
	<line class="st1" x1="12.3" y1="4.8" x2="6.5" y2="10.6"/>
	<path class="st1" d="M12.5,9.1"/>
	<path class="st1" d="M10.2,6.8"/>
	<line class="st1" x1="8.5" y1="1" x2="15.7" y2="0.4"/>
	<line class="st1" x1="14.6" y1="7.1" x2="15.7" y2="0.4"/>
</g>
</svg>
