<?xml version="1.0" encoding="utf-8"?>
<!-- Generator: Adobe Illustrator 24.3.0, SVG Export Plug-In . SVG Version: 6.00 Build 0)  -->
<svg version="1.1" id="Layer_1" xmlns="http://www.w3.org/2000/svg" xmlns:xlink="http://www.w3.org/1999/xlink" x="0px" y="0px"
	 viewBox="0 0 11 15.7" style="enable-background:new 0 0 11 15.7;" xml:space="preserve">
<style type="text/css">
	.st0{fill:#010101;}
</style>
<g>
	<path class="st0" d="M8.5,9.6c-0.3,0-0.6,0.2-0.6,0.6c0,1.3-1,2.3-2.3,2.3c-0.3,0-0.6,0.2-0.6,0.6c0,0.3,0.2,0.6,0.6,0.6
		c1.9,0,3.4-1.5,3.4-3.4C9.1,9.9,8.8,9.6,8.5,9.6z"/>
	<path class="st0" d="M6.3,0.5L6.3,0.5C6.1,0,5.5-0.1,5.1,0.1C4.9,0.2,4.8,0.3,4.7,0.5l-4,7c-1.5,2.6-0.6,6,2.1,7.5
		c0.8,0.5,1.8,0.7,2.7,0.7c3.1,0,5.5-2.5,5.5-5.5c0-1-0.3-1.9-0.7-2.7L6.3,0.5z M7.7,14c-2.1,1.2-4.8,0.4-6-1.7
		c-0.8-1.3-0.8-3,0-4.3l3.8-6.7L9.3,8C10.5,10.1,9.8,12.8,7.7,14z"/>
</g>
</svg>
