<?xml version="1.0" encoding="utf-8"?>
<!-- Generator: Adobe Illustrator 24.3.0, SVG Export Plug-In . SVG Version: 6.00 Build 0)  -->
<svg version="1.1" id="Layer_1" xmlns="http://www.w3.org/2000/svg" xmlns:xlink="http://www.w3.org/1999/xlink" x="0px" y="0px"
	 viewBox="0 0 15.8 16" style="enable-background:new 0 0 15.8 16;" xml:space="preserve">
<style type="text/css">
	.st0{fill:#010101;}
</style>
<g>
	<path class="st0" d="M2.9,11.5C2,12.2,1.2,13,0.6,13.6c-0.6,0.8-0.8,1.5-0.5,1.9c0.2,0.2,0.4,0.3,0.8,0.3c0.3,0,0.7-0.1,1.2-0.3
		c0.8-0.3,1.7-0.9,2.6-1.6c1.4-1,3.5-3,2.7-4C6.7,9,4.2,10.5,2.9,11.5z M4.2,13.4c-1.9,1.4-3.1,1.7-3.4,1.7c0-0.3,0.7-1.4,2.5-2.8
		c1.9-1.4,3.1-1.7,3.4-1.7C6.8,10.8,6.1,11.9,4.2,13.4z"/>
	<path class="st0" d="M15.3,13.8c-0.5-0.7-1.2-1.5-2.1-2.2c-0.9-0.7-1.8-1.3-2.6-1.7c-1-0.4-1.6-0.4-1.9,0c-0.3,0.4-0.2,1,0.4,1.9
		c0.5,0.7,1.2,1.5,2.1,2.2c1,0.9,2.7,2,3.8,2c0.3,0,0.5-0.1,0.7-0.3C16,15.3,15.8,14.6,15.3,13.8z M11.7,13.3
		c-1.8-1.5-2.4-2.7-2.4-3c0.3-0.1,1.5,0.3,3.3,1.8c1.8,1.5,2.4,2.7,2.4,3C14.7,15.2,13.5,14.8,11.7,13.3z"/>
	<path class="st0" d="M9.6,4.6C9.6,2.9,9.2,0,8,0C6.8,0,6.5,2.9,6.5,4.6S6.8,9.1,8,9.1C9.2,9.1,9.6,6.3,9.6,4.6z M8,8.3
		C7.8,8.1,7.3,6.9,7.3,4.6S7.8,1,8,0.8C8.2,1,8.7,2.2,8.7,4.6C8.7,6.9,8.2,8.1,8,8.3z"/>
</g>
</svg>
