<?xml version="1.0" encoding="UTF-8" standalone="no"?>
<!DOCTYPE svg PUBLIC "-//W3C//DTD SVG 1.1//EN" "http://www.w3.org/Graphics/SVG/1.1/DTD/svg11.dtd">
<svg width="100%" height="100%" viewBox="0 0 48 48" version="1.1" xmlns="http://www.w3.org/2000/svg" xmlns:xlink="http://www.w3.org/1999/xlink" xml:space="preserve" xmlns:serif="http://www.serif.com/" style="fill-rule:evenodd;clip-rule:evenodd;stroke-linejoin:round;stroke-miterlimit:2;">
    <rect id="Artboard1" x="0" y="0" width="48" height="48" style="fill:none;"/>
    <g id="Artboard11" serif:id="Artboard1">
        <g transform="matrix(4.55815,0,0,4.58005,-602.399,-7912.15)">
            <path d="M132.397,1732.78C132.397,1735.01 133.84,1736.89 135.841,1737.56C136.093,1737.61 136.185,1737.45 136.185,1737.32C136.185,1737.2 136.181,1736.88 136.179,1736.46C134.777,1736.76 134.482,1735.79 134.482,1735.79C134.253,1735.2 133.923,1735.05 133.923,1735.05C133.465,1734.74 133.958,1734.74 133.958,1734.74C134.463,1734.78 134.729,1735.26 134.729,1735.26C135.178,1736.03 135.907,1735.81 136.194,1735.68C136.24,1735.35 136.371,1735.13 136.514,1735.01C135.396,1734.88 134.22,1734.45 134.22,1732.52C134.22,1731.97 134.417,1731.52 134.739,1731.16C134.687,1731.04 134.514,1730.53 134.788,1729.83C134.788,1729.83 135.211,1729.7 136.173,1730.35C136.575,1730.24 137.005,1730.18 137.434,1730.18C137.861,1730.18 138.292,1730.24 138.694,1730.35C139.657,1729.7 140.078,1729.83 140.078,1729.83C140.353,1730.53 140.18,1731.04 140.128,1731.16C140.451,1731.52 140.646,1731.97 140.646,1732.52C140.646,1734.45 139.468,1734.88 138.346,1735C138.527,1735.16 138.688,1735.47 138.688,1735.93C138.688,1736.61 138.682,1737.15 138.682,1737.32C138.682,1737.45 138.773,1737.61 139.028,1737.56C141.028,1736.89 142.47,1735.01 142.47,1732.78C142.47,1730 140.215,1727.74 137.433,1727.74C134.653,1727.74 132.397,1730 132.397,1732.78Z" style="fill-rule:nonzero;"/>
        </g>
    </g>
</svg>
