<?xml version="1.0" encoding="utf-8"?>
<!-- Generator: Adobe Illustrator 24.3.0, SVG Export Plug-In . SVG Version: 6.00 Build 0)  -->
<svg version="1.1" id="Layer_1" xmlns="http://www.w3.org/2000/svg" xmlns:xlink="http://www.w3.org/1999/xlink" x="0px" y="0px"
	 viewBox="0 0 97.01 32.49" style="enable-background:new 0 0 97.01 32.49;" xml:space="preserve">
<style type="text/css">
	.st0{fill:#FFFFFF;}
	.st1{font-family:'EnzoOT-Bold';}
	.st2{font-size:30.4477px;}
	.st3{fill:#FFFFFF;stroke:#FFFFFF;stroke-width:0.5;stroke-miterlimit:10;}
</style>
<text transform="matrix(1 0 0 1 29.0239 25.8802)" class="st0 st1 st2">Sibyl</text>
<g>
	<g>
		<g>
			<g transform="translate(0,-952.36218)">
				<path class="st3" d="M3.12,961.09c-0.16,0.02-0.3,0.12-0.38,0.26l-2.41,4.01c-0.15,0.25-0.07,0.58,0.19,0.73
					c0.01,0,0.01,0.01,0.02,0.01l7.03,3.8c0.24,0.17,0.58,0.11,0.75-0.13c0.17-0.24,0.11-0.58-0.13-0.75
					c-0.04-0.03-0.07-0.05-0.11-0.06l-3.99-2.16l1.76-2.93l14.81,9.15l-1.31,2.06l-8.04-4.36c-0.26-0.14-0.58-0.05-0.73,0.21
					c0,0.01-0.01,0.01-0.01,0.02l-5.16,10.23c-0.16,0.25-0.08,0.58,0.17,0.74c0.25,0.16,0.58,0.08,0.74-0.17
					c0.02-0.03,0.03-0.06,0.04-0.09l4.92-9.72l2.17,1.17l4.27,8.55c0.11,0.28,0.42,0.41,0.69,0.31c0.28-0.11,0.41-0.42,0.31-0.69
					c-0.01-0.03-0.03-0.06-0.04-0.09l-3.6-7.18l4.2,2.27c0.25,0.14,0.56,0.06,0.71-0.18l0.11-0.18l1.83,1.15
					c0.25,0.16,0.58,0.09,0.74-0.16c0-0.01,0.01-0.01,0.01-0.02l1.07-1.87c0.14-0.25,0.06-0.57-0.18-0.72l-1.74-1.09l0.03-0.05
					c0.16-0.25,0.09-0.58-0.16-0.74c0,0,0,0-0.01,0l-18.2-11.24C3.37,961.1,3.24,961.07,3.12,961.09z M3.38,962.36l1.55,0.95
					l-1.79,2.99l-1.6-0.87L3.38,962.36z M21.24,974.1l1.3,0.81L22,975.86l-1.35-0.84L21.24,974.1z"/>
			</g>
			<g>
				<path class="st3" d="M18.89,5.24c1.03-0.24,1.68-1.28,1.43-2.32C20.08,1.9,19.04,1.25,18,1.5s-1.68,1.28-1.43,2.32
					C16.81,4.85,17.85,5.49,18.89,5.24z M18.17,2.19c0.65-0.15,1.31,0.25,1.46,0.9c0.15,0.65-0.25,1.31-0.9,1.46
					c-0.65,0.15-1.31-0.25-1.46-0.9C17.11,3,17.52,2.34,18.17,2.19z"/>
				<path class="st3" d="M7.24,7.99c0.92-0.22,1.52-1.05,1.48-1.96l2.14-0.5c0.32,0.72,1.06,1.18,1.85,1.14l0.5,2.14
					c-0.83,0.37-1.31,1.29-1.1,2.2c0.24,1.03,1.28,1.68,2.32,1.43c0.92-0.22,1.52-1.05,1.48-1.96l2.14-0.5
					c0.32,0.72,1.06,1.18,1.85,1.14l0.5,2.14c-0.83,0.37-1.31,1.29-1.1,2.2c0.24,1.03,1.28,1.68,2.32,1.43
					c1.03-0.24,1.68-1.28,1.43-2.32c-0.22-0.92-1.05-1.52-1.96-1.48l-0.5-2.14c0.83-0.37,1.31-1.29,1.1-2.2
					c-0.24-1.03-1.28-1.68-2.32-1.43c-0.92,0.22-1.52,1.05-1.48,1.96l-2.14,0.5c-0.32-0.72-1.06-1.18-1.85-1.14L13.4,6.5
					c0.83-0.37,1.31-1.29,1.09-2.2c-0.24-1.03-1.28-1.68-2.32-1.43c-0.92,0.22-1.52,1.05-1.48,1.96l-2.14,0.5
					c-0.37-0.83-1.29-1.31-2.2-1.1C5.32,4.48,4.68,5.52,4.92,6.55S6.2,8.23,7.24,7.99z M22.37,14.74c0.15,0.65-0.25,1.31-0.9,1.46
					c-0.65,0.15-1.31-0.25-1.46-0.9s0.25-1.31,0.9-1.46C21.56,13.68,22.22,14.09,22.37,14.74z M19.54,8.01
					c0.65-0.15,1.31,0.25,1.46,0.9c0.15,0.65-0.25,1.31-0.9,1.46c-0.65,0.15-1.31-0.25-1.46-0.9S18.89,8.17,19.54,8.01z
					 M15.17,10.29c0.15,0.65-0.25,1.31-0.9,1.46c-0.65,0.15-1.31-0.25-1.46-0.9c-0.15-0.65,0.25-1.31,0.9-1.46
					S15.02,9.64,15.17,10.29z M12.34,3.56c0.65-0.15,1.31,0.25,1.46,0.9c0.15,0.65-0.25,1.31-0.9,1.46
					c-0.65,0.15-1.31-0.25-1.46-0.9C11.29,4.37,11.69,3.71,12.34,3.56z M6.52,4.93c0.65-0.15,1.31,0.25,1.46,0.9
					c0.15,0.65-0.25,1.31-0.9,1.46s-1.31-0.25-1.46-0.9C5.46,5.74,5.87,5.08,6.52,4.93z"/>
				<circle class="st3" cx="21.19" cy="15.02" r="1.47"/>
				<circle class="st3" cx="6.8" cy="6.11" r="1.47"/>
			</g>
			<path class="st3" d="M23.11,22.41c0,0.06-0.74,1.82-0.74,1.82l-1.55-0.63l-0.62-0.85l0.96-1.51l1.23,0.41L23.11,22.41z"/>
			<path class="st3" d="M3.43,9.58l2.15,0.74c0,0-0.66,1.81-0.66,1.86c0,0.05-0.93,1.62-0.93,1.62l-1.57,0.42
				c0,0-1.2-0.51-1.23-0.68s0.18-1.33,0.18-1.33l0.76-1.49L3.43,9.58z"/>
		</g>
	</g>
</g>
</svg>
