<?xml version="1.0" encoding="utf-8"?>
<!-- Generator: Adobe Illustrator 24.3.0, SVG Export Plug-In . SVG Version: 6.00 Build 0)  -->
<svg version="1.1" id="Layer_1" xmlns="http://www.w3.org/2000/svg" xmlns:xlink="http://www.w3.org/1999/xlink" x="0px" y="0px"
	 viewBox="0 0 26 26" style="enable-background:new 0 0 26 26;" xml:space="preserve">
<style type="text/css">
	.st0{fill:none;}
	.st1{fill:url(#SVGID_1_);}
	.st2{fill:url(#SVGID_2_);}
	.st3{fill:url(#SVGID_3_);}
	.st4{fill:url(#SVGID_4_);}
	.st5{fill:url(#SVGID_5_);}
	.st6{fill:url(#SVGID_6_);}
	.st7{fill:url(#SVGID_7_);}
	.st8{fill:url(#SVGID_8_);}
	.st9{fill:url(#SVGID_9_);}
	.st10{fill:url(#SVGID_10_);}
	.st11{fill:url(#SVGID_11_);}
	.st12{fill:url(#SVGID_12_);}
	.st13{fill:url(#SVGID_13_);}
	.st14{fill:url(#SVGID_14_);}
	.st15{fill:url(#SVGID_15_);}
	.st16{fill:url(#SVGID_16_);}
	.st17{fill:url(#SVGID_17_);}
	.st18{fill:url(#SVGID_18_);}
	.st19{fill:url(#SVGID_19_);}
	.st20{fill:url(#SVGID_20_);}
	.st21{fill:url(#SVGID_21_);}
	.st22{fill:url(#SVGID_22_);}
	.st23{fill:url(#SVGID_23_);}
	.st24{fill:url(#SVGID_24_);}
	.st25{fill:url(#SVGID_25_);}
	.st26{fill:url(#SVGID_26_);}
	.st27{fill:url(#SVGID_27_);}
	.st28{fill:url(#SVGID_28_);}
	.st29{fill:url(#SVGID_29_);}
	.st30{fill:url(#SVGID_30_);}
	.st31{fill:url(#SVGID_31_);}
	.st32{fill:url(#SVGID_32_);}
	.st33{fill:url(#SVGID_33_);}
	.st34{fill:url(#SVGID_34_);}
	.st35{fill:url(#SVGID_35_);}
	.st36{fill:url(#SVGID_36_);}
	.st37{fill:url(#SVGID_37_);}
	.st38{fill:url(#SVGID_38_);}
	.st39{fill:url(#SVGID_39_);}
	.st40{fill:url(#SVGID_40_);}
	.st41{fill:url(#SVGID_41_);}
	.st42{fill:url(#SVGID_42_);}
	.st43{fill:url(#SVGID_43_);}
	.st44{fill:url(#SVGID_44_);}
	.st45{fill:url(#SVGID_45_);}
	.st46{fill:url(#SVGID_46_);}
	.st47{fill:url(#SVGID_47_);}
	.st48{fill:url(#SVGID_48_);}
	.st49{fill:url(#SVGID_49_);}
	.st50{fill:url(#SVGID_50_);}
	.st51{fill:url(#SVGID_51_);}
	.st52{fill:url(#SVGID_52_);}
	.st53{fill:url(#SVGID_53_);}
	.st54{fill:url(#SVGID_54_);}
	.st55{fill:#DBBF85;}
	.st56{fill:url(#SVGID_55_);}
	.st57{fill:url(#SVGID_56_);}
	.st58{fill:url(#SVGID_57_);}
	.st59{fill:url(#SVGID_58_);}
	.st60{fill:url(#SVGID_59_);}
	.st61{fill:url(#SVGID_60_);}
	.st62{fill:url(#SVGID_61_);}
	.st63{fill:url(#SVGID_62_);}
	.st64{fill:url(#SVGID_63_);}
	.st65{fill:url(#SVGID_64_);}
	.st66{fill:url(#SVGID_65_);}
	.st67{fill:url(#SVGID_66_);}
	.st68{fill:url(#SVGID_67_);}
	.st69{fill:url(#SVGID_68_);}
	.st70{fill:url(#SVGID_69_);}
	.st71{fill:url(#SVGID_70_);}
	.st72{fill:url(#SVGID_71_);}
	.st73{fill:url(#SVGID_72_);}
	.st74{fill:url(#SVGID_73_);}
	.st75{fill:url(#SVGID_74_);}
	.st76{fill:url(#SVGID_75_);}
	.st77{fill:url(#SVGID_76_);}
	.st78{fill:url(#SVGID_77_);}
	.st79{fill:url(#SVGID_78_);}
	.st80{fill:url(#SVGID_79_);}
	.st81{fill:url(#SVGID_80_);}
	.st82{fill:url(#SVGID_81_);}
	.st83{fill:url(#SVGID_82_);}
	.st84{fill:url(#SVGID_83_);}
	.st85{fill:url(#SVGID_84_);}
	.st86{fill:url(#SVGID_85_);}
	.st87{fill:url(#SVGID_86_);}
	.st88{fill:url(#SVGID_87_);}
	.st89{fill:url(#SVGID_88_);}
	.st90{fill:url(#SVGID_89_);}
	.st91{fill:url(#SVGID_90_);}
	.st92{fill:url(#SVGID_91_);}
	.st93{fill:url(#SVGID_92_);}
	.st94{fill:url(#SVGID_93_);}
	.st95{fill:url(#SVGID_94_);}
	.st96{fill:url(#SVGID_95_);}
	.st97{fill:url(#SVGID_96_);}
	.st98{fill:url(#SVGID_97_);}
	.st99{fill:url(#SVGID_98_);}
	.st100{fill:url(#SVGID_99_);}
	.st101{fill:url(#SVGID_100_);}
	.st102{fill:url(#SVGID_101_);}
	.st103{fill:url(#SVGID_102_);}
	.st104{fill:url(#SVGID_103_);}
	.st105{fill:url(#SVGID_104_);}
	.st106{fill:url(#SVGID_105_);}
	.st107{fill:url(#SVGID_106_);}
	.st108{fill:url(#SVGID_107_);}
	.st109{fill:url(#SVGID_108_);}
	.st110{fill:url(#SVGID_109_);}
	.st111{fill:url(#SVGID_110_);}
	.st112{fill:url(#SVGID_111_);}
	.st113{fill:url(#SVGID_112_);}
	.st114{fill:url(#SVGID_113_);}
	.st115{fill:url(#SVGID_114_);}
	.st116{fill:url(#SVGID_115_);}
	.st117{fill:url(#SVGID_116_);}
	.st118{fill:url(#SVGID_117_);}
	.st119{fill:url(#SVGID_118_);}
	.st120{fill:url(#SVGID_119_);}
	.st121{fill:url(#SVGID_120_);}
	.st122{fill:url(#SVGID_121_);}
	.st123{fill:url(#SVGID_122_);}
	.st124{fill:url(#SVGID_123_);}
	.st125{fill:url(#SVGID_124_);}
	.st126{fill:url(#SVGID_125_);}
	.st127{fill:url(#SVGID_126_);}
	.st128{fill:url(#SVGID_127_);}
	.st129{fill:url(#SVGID_128_);}
	.st130{fill:url(#SVGID_129_);}
	.st131{fill:url(#SVGID_130_);}
	.st132{fill:#FFFFFF;stroke:#AD8400;stroke-width:4.750214e-02;}
	.st133{fill:url(#SVGID_131_);}
	.st134{fill:url(#SVGID_132_);stroke:#DBE0EE;stroke-width:7.472196e-03;}
	.st135{fill:url(#SVGID_133_);stroke:#DBE0EE;stroke-width:7.472196e-03;}
	.st136{fill:url(#SVGID_134_);stroke:#DBE0EE;stroke-width:7.472196e-03;}
	.st137{fill:url(#SVGID_135_);stroke:#DBE0EE;stroke-width:7.472196e-03;}
	.st138{fill:url(#SVGID_136_);stroke:#DBE0EE;stroke-width:7.472196e-03;}
	.st139{fill:url(#SVGID_137_);stroke:#DBE0EE;stroke-width:7.472196e-03;}
	.st140{fill:url(#SVGID_138_);stroke:#DBE0EE;stroke-width:7.472196e-03;}
	.st141{fill:#90A6CE;stroke:#DBE0EE;stroke-width:7.472196e-03;}
	.st142{fill:#99ADD2;stroke:#DBE0EE;stroke-width:7.472196e-03;}
	.st143{fill:#BCC8E1;stroke:#DBE0EE;stroke-width:7.472196e-03;}
	.st144{fill:#FFFFFF;stroke:#005699;stroke-width:9.962928e-02;}
	.st145{fill:#AD8400;}
	.st146{opacity:0.27;fill:url(#SVGID_139_);}
</style>
<g>
	<g>
		<path class="st0" d="M17.4,21.5c0.1,0.3,0.2,0.6,0.4,0.7l0.2,0c0.3-0.1,0.7-0.3,0.9-0.5c0.3-0.2,0.7-0.5,0.8-0.9
			c0-0.3-0.2-0.4-0.4-0.6c-0.7-0.5-1.4-0.8-2.1-1.1c0,0,0,0,0,0C17.1,20,17.3,20.7,17.4,21.5z"/>
		<path class="st0" d="M22.1,15.9c0.3,0.1,0.6,0.3,0.8,0.2l0.2-0.1c0.2-0.3,0.2-0.6,0.3-0.8c0,0,0,0,0-0.1c0-0.4,0.1-0.9-0.1-1.3
			c-0.2-0.2-0.4-0.2-0.7-0.1c-0.1,0-0.2,0-0.3,0.1c-0.5,0.4-1,0.8-1.5,1.2C21.2,15.3,21.6,15.6,22.1,15.9z"/>
		<path class="st0" d="M20.3,19.2c0.2,0.2,0.4,0.5,0.7,0.5l0.2,0c0.3-0.2,0.5-0.5,0.7-0.7c0,0,0,0,0,0c0.2-0.3,0.5-0.8,0.4-1.2
			c-0.1-0.2-0.3-0.3-0.6-0.4c-0.8-0.2-1.6-0.3-2.4-0.2c0,0,0,0.1-0.1,0.1C19.4,17.9,19.9,18.5,20.3,19.2z"/>
		<path class="st0" d="M5.6,15.2c-0.2,0.2-0.4,0.5-0.6,0.7c-0.1,0.2-0.5,0.5-0.2,0.7c0.6,0.1,1.1,0.1,1.7,0.1
			c-0.2-0.4-0.4-0.8-0.6-1.3C5.8,15.3,5.7,15.3,5.6,15.2z"/>
		<path class="st0" d="M17.6,18.9c0.3,0.2,0.7,0.3,1.1,0.5c0.2,0,0.6,0.3,0.7-0.1c-0.1-0.6-0.3-1.1-0.6-1.7
			C18.5,18.1,18.1,18.5,17.6,18.9z"/>
		<path class="st0" d="M12.1,20.4c0.1,0.4,0.3,0.7,0.5,1.1c0.2,0.2,0.2,0.6,0.6,0.5c0.3-0.5,0.6-1,0.8-1.6c-0.3,0-0.6,0.1-0.9,0.1
			C12.7,20.5,12.4,20.5,12.1,20.4z"/>
		<path class="st0" d="M7.2,17.6C7,18,6.9,18.4,6.7,18.8c0,0.2-0.3,0.6,0.1,0.7c0.6-0.1,1.1-0.3,1.6-0.6C8,18.5,7.5,18.1,7.2,17.6z"
			/>
		<path class="st0" d="M10.1,22.1c-0.1,0.3-0.3,0.5-0.2,0.8l0.1,0.2c0.3,0.2,0.7,0.3,1.1,0.3c0.4,0,0.8,0.1,1.1-0.1
			c0.2-0.2,0.2-0.4,0.1-0.7c-0.1-0.8-0.4-1.6-0.7-2.3c0,0-0.1,0-0.1,0C11,20.8,10.5,21.5,10.1,22.1z"/>
		<path class="st0" d="M3.5,13.8c-0.3,0-0.6-0.1-0.9,0.1L2.6,14c-0.1,0.4,0,0.8,0.1,1.2c0.1,0.3,0.2,0.7,0.5,0.9
			c0.2,0.1,0.5,0,0.7-0.1c0.5-0.3,1-0.7,1.4-1.1c-0.5-0.3-1-0.7-1.5-1.2C3.7,13.8,3.6,13.8,3.5,13.8z"/>
		<path class="st0" d="M4.6,17.3c-0.3,0.1-0.6,0.2-0.7,0.4l0,0.2c0.1,0.4,0.3,0.7,0.5,1c0.2,0.3,0.5,0.6,0.9,0.7
			c0.3,0,0.4-0.2,0.6-0.4c0.5-0.7,0.8-1.4,1.1-2.1c0,0,0-0.1-0.1-0.1C6,17.1,5.3,17.2,4.6,17.3z"/>
		<path class="st0" d="M6.3,15.6c1,2.7,3.6,4.6,6.7,4.6c3,0,5.7-1.9,6.7-4.6c-2,1.1-4.3,1.7-6.7,1.7C10.6,17.3,8.3,16.7,6.3,15.6z"
			/>
		<path class="st0" d="M13.8,22.5c0,0.3-0.1,0.6,0.1,0.9l0.1,0.1c0.4,0,0.7,0,1.1-0.1c0.4-0.1,0.8-0.2,1-0.5c0.1-0.2,0-0.5-0.1-0.7
			c-0.4-0.7-0.9-1.3-1.5-1.9c0,0,0,0-0.1,0C14.1,21,14,21.8,13.8,22.5z"/>
		<path class="st0" d="M6.9,20.3c-0.2,0.2-0.5,0.4-0.5,0.7l0,0.2c0.2,0.3,0.6,0.5,0.9,0.8c0.3,0.2,0.7,0.3,1,0.3
			c0.2-0.1,0.3-0.3,0.4-0.6c0.2-0.8,0.3-1.6,0.2-2.4c0,0,0,0-0.1,0C8.1,19.5,7.5,19.9,6.9,20.3z"/>
		<path class="st0" d="M19.5,16.6c0.4,0.1,0.8,0,1.2,0c0.2-0.1,0.7,0,0.6-0.3c-0.3-0.4-0.6-0.8-1-1.1c-0.1,0.1-0.2,0.1-0.3,0.2
			C19.9,15.8,19.7,16.2,19.5,16.6z"/>
		<path class="st0" d="M9.4,20.7c0.1,0.2,0,0.7,0.3,0.6c0.5-0.3,0.9-0.7,1.3-1.2c-0.6-0.2-1.1-0.4-1.7-0.7
			C9.3,19.9,9.3,20.3,9.4,20.7z"/>
		<path class="st0" d="M15.9,21c0.2,0.1,0.5,0.5,0.7,0.2c0.1-0.6,0.1-1.2,0.1-1.8c-0.5,0.3-1.1,0.5-1.7,0.7
			C15.3,20.5,15.6,20.8,15.9,21z"/>
		<radialGradient id="SVGID_1_" cx="5.3428" cy="2.3179" r="26.079" gradientUnits="userSpaceOnUse">
			<stop  offset="0" style="stop-color:#E3CB9D"/>
			<stop  offset="1" style="stop-color:#AD8400"/>
		</radialGradient>
		<path class="st1" d="M2.6,14.8c0,0.1,0,0.2,0.1,0.3c0,0.1,0,0.1,0.1,0.2c-0.1-0.4-0.2-0.8-0.1-1.2l0.1-0.1
			c0.2-0.2,0.6-0.1,0.9-0.1c0.1,0,0.1,0,0.2,0c-0.7-0.6-1.3-1.2-1.9-2c0,0,0,0,0,0c-0.4,0.7-1.1,0.8-1.8,0.8c0,0.2,0,0.5,0,0.6
			c0.8,0,1.6,0.2,2,1.1c0.1,0.2,0.1,0.4,0.2,0.6c0-0.1,0-0.1,0-0.2L2.6,14.8z"/>
		<radialGradient id="SVGID_2_" cx="5.3427" cy="2.3189" r="26.077" gradientUnits="userSpaceOnUse">
			<stop  offset="0" style="stop-color:#E3CB9D"/>
			<stop  offset="1" style="stop-color:#AD8400"/>
		</radialGradient>
		<path class="st2" d="M4,18.7c0.1,0.1,0.1,0.1,0.2,0.2c0,0,0.1,0.1,0.1,0.1c-0.2-0.3-0.4-0.7-0.5-1l0-0.2c0.1-0.3,0.5-0.3,0.7-0.4
			c0.7-0.1,1.5-0.3,2.2-0.2c-0.1-0.1-0.2-0.3-0.3-0.4c-0.6,0-1.2,0-1.7-0.1c-0.3-0.2,0.1-0.5,0.2-0.7c0.2-0.2,0.4-0.5,0.6-0.7
			C5.5,15.1,5.4,15,5.3,15c-0.4,0.4-0.9,0.7-1.4,1.1c-0.2,0.1-0.4,0.2-0.7,0.1c-0.3-0.2-0.4-0.6-0.5-0.9c0,0,0,0.1,0,0.1l-0.3,0.1
			c0-0.2-0.1-0.3-0.1-0.5c0,0.4,0.1,0.9,0,1.3c-0.2,0.8-0.7,1.2-1.4,1.4c0.1,0.2,0.2,0.4,0.2,0.6c0.7-0.4,1.6-0.4,2.3,0.2
			c0.2,0.2,0.3,0.3,0.5,0.5c0-0.1-0.1-0.1-0.1-0.2L4,18.7z"/>
		<radialGradient id="SVGID_3_" cx="5.3428" cy="2.3179" r="26.079" gradientUnits="userSpaceOnUse">
			<stop  offset="0" style="stop-color:#E3CB9D"/>
			<stop  offset="1" style="stop-color:#AD8400"/>
		</radialGradient>
		<path class="st3" d="M2.7,15.4c0,0,0-0.1,0-0.1c0-0.1,0-0.1-0.1-0.2c0-0.1,0-0.2-0.1-0.3l-0.4,0c0,0.1,0,0.1,0,0.2
			c0.1,0.2,0.1,0.3,0.1,0.5L2.7,15.4z"/>
		<radialGradient id="SVGID_4_" cx="5.3427" cy="2.3189" r="26.077" gradientUnits="userSpaceOnUse">
			<stop  offset="0" style="stop-color:#E3CB9D"/>
			<stop  offset="1" style="stop-color:#AD8400"/>
		</radialGradient>
		<path class="st4" d="M2.7,15.4c0,0,0-0.1,0-0.1c0-0.1,0-0.1-0.1-0.2c0-0.1,0-0.2-0.1-0.3l-0.4,0c0,0.1,0,0.1,0,0.2
			c0.1,0.2,0.1,0.3,0.1,0.5L2.7,15.4z"/>
		<radialGradient id="SVGID_5_" cx="5.3427" cy="2.3192" r="26.076" gradientUnits="userSpaceOnUse">
			<stop  offset="0" style="stop-color:#E3CB9D"/>
			<stop  offset="1" style="stop-color:#AD8400"/>
		</radialGradient>
		<path class="st5" d="M6.9,21.7c0.1,0,0.2,0.1,0.2,0.1c0.1,0,0.1,0.1,0.2,0.1c-0.3-0.2-0.7-0.4-0.9-0.8l0-0.2
			c0-0.3,0.3-0.5,0.5-0.7c0.7-0.4,1.3-0.8,2-1.1c-0.1-0.1-0.3-0.2-0.4-0.3c-0.5,0.3-1.1,0.5-1.6,0.6c-0.3-0.1-0.1-0.5-0.1-0.7
			C6.9,18.4,7,18,7.2,17.6c-0.1-0.1-0.2-0.3-0.3-0.4c-0.3,0.7-0.7,1.4-1.1,2.1c-0.2,0.2-0.3,0.4-0.6,0.4c-0.3-0.1-0.6-0.4-0.9-0.7
			c0,0.1,0.1,0.1,0.1,0.2l-0.3,0.2C4,19.3,3.9,19.1,3.8,19c0.2,0.4,0.4,0.8,0.5,1.1c0.2,0.8-0.2,1.4-0.7,1.9
			c0.1,0.2,0.3,0.3,0.5,0.5c0.5-0.6,1.3-1,2.2-0.7c0.2,0.1,0.4,0.2,0.6,0.3c-0.1,0-0.1-0.1-0.2-0.1L6.9,21.7z"/>
		<radialGradient id="SVGID_6_" cx="5.3427" cy="2.3189" r="26.077" gradientUnits="userSpaceOnUse">
			<stop  offset="0" style="stop-color:#E3CB9D"/>
			<stop  offset="1" style="stop-color:#AD8400"/>
		</radialGradient>
		<path class="st6" d="M4.4,19.1c0-0.1-0.1-0.1-0.1-0.2c0,0-0.1-0.1-0.1-0.1c-0.1-0.1-0.1-0.1-0.2-0.2l-0.3,0.2
			c0,0.1,0.1,0.1,0.1,0.2c0.1,0.1,0.2,0.2,0.3,0.4L4.4,19.1z"/>
		<radialGradient id="SVGID_7_" cx="5.3427" cy="2.3193" r="26.0759" gradientUnits="userSpaceOnUse">
			<stop  offset="0" style="stop-color:#E3CB9D"/>
			<stop  offset="1" style="stop-color:#AD8400"/>
		</radialGradient>
		<path class="st7" d="M4.4,19.1c0-0.1-0.1-0.1-0.1-0.2c0,0-0.1-0.1-0.1-0.1c-0.1-0.1-0.1-0.1-0.2-0.2l-0.3,0.2
			c0,0.1,0.1,0.1,0.1,0.2c0.1,0.1,0.2,0.2,0.3,0.4L4.4,19.1z"/>
		<radialGradient id="SVGID_8_" cx="5.3427" cy="2.3189" r="26.077" gradientUnits="userSpaceOnUse">
			<stop  offset="0" style="stop-color:#E3CB9D"/>
			<stop  offset="1" style="stop-color:#AD8400"/>
		</radialGradient>
		<path class="st8" d="M10.7,23.4c0.1,0,0.2,0,0.3,0c0,0,0.1,0,0.1,0c-0.4-0.1-0.7-0.2-1.1-0.3l-0.1-0.2c-0.1-0.3,0.1-0.6,0.2-0.8
			c0.5-0.6,0.9-1.2,1.4-1.7c-0.2,0-0.3-0.1-0.5-0.1c-0.4,0.4-0.8,0.8-1.3,1.2c-0.4,0-0.2-0.4-0.3-0.6c0-0.4-0.1-0.8,0-1.2
			c-0.2-0.1-0.3-0.2-0.4-0.3c0,0.8-0.1,1.6-0.2,2.4c-0.1,0.2-0.1,0.5-0.4,0.6c-0.3,0-0.7-0.1-1-0.3c0,0,0.1,0.1,0.1,0.1l-0.2,0.3
			c-0.1-0.1-0.3-0.2-0.4-0.2c0.3,0.3,0.7,0.6,0.9,0.9c0.4,0.7,0.3,1.3,0,2C8,25,8.2,25.1,8.4,25.2c0.3-0.8,0.8-1.4,1.7-1.5
			c0.2,0,0.5,0,0.7,0c-0.1,0-0.2,0-0.2-0.1L10.7,23.4z"/>
		<radialGradient id="SVGID_9_" cx="5.3427" cy="2.3192" r="26.0761" gradientUnits="userSpaceOnUse">
			<stop  offset="0" style="stop-color:#E3CB9D"/>
			<stop  offset="1" style="stop-color:#AD8400"/>
		</radialGradient>
		<path class="st9" d="M7.4,22c0,0-0.1-0.1-0.1-0.1c-0.1,0-0.1-0.1-0.2-0.1c-0.1,0-0.2-0.1-0.2-0.1l-0.2,0.3c0.1,0,0.1,0.1,0.2,0.1
			c0.2,0.1,0.3,0.2,0.4,0.2L7.4,22z"/>
		<radialGradient id="SVGID_10_" cx="5.3427" cy="2.3189" r="26.0771" gradientUnits="userSpaceOnUse">
			<stop  offset="0" style="stop-color:#E3CB9D"/>
			<stop  offset="1" style="stop-color:#AD8400"/>
		</radialGradient>
		<path class="st10" d="M7.4,22c0,0-0.1-0.1-0.1-0.1c-0.1,0-0.1-0.1-0.2-0.1c-0.1,0-0.2-0.1-0.2-0.1l-0.2,0.3c0.1,0,0.1,0.1,0.2,0.1
			c0.2,0.1,0.3,0.2,0.4,0.2L7.4,22z"/>
		<radialGradient id="SVGID_11_" cx="5.3433" cy="2.318" r="26.0774" gradientUnits="userSpaceOnUse">
			<stop  offset="0" style="stop-color:#E3CB9D"/>
			<stop  offset="1" style="stop-color:#AD8400"/>
		</radialGradient>
		<path class="st11" d="M14.8,23.5c0.1,0,0.2,0,0.3-0.1c0,0,0,0,0.1,0c-0.3,0.1-0.7,0.1-1.1,0.1l-0.1-0.1c-0.2-0.2-0.1-0.6-0.1-0.9
			c0.2-0.7,0.3-1.5,0.7-2.2c-0.2,0-0.3,0.1-0.5,0.1c-0.2,0.6-0.4,1.1-0.8,1.6c-0.3,0.2-0.4-0.3-0.6-0.5c-0.2-0.4-0.4-0.7-0.5-1.1
			c-0.2,0-0.3,0-0.5-0.1c0.3,0.7,0.5,1.5,0.7,2.3c0,0.2,0,0.5-0.1,0.7c-0.3,0.2-0.8,0.1-1.1,0.1c0.1,0,0.2,0,0.2,0.1l0,0.4
			c-0.1,0-0.3,0-0.4-0.1c0.4,0.1,0.8,0.3,1.1,0.4c0.7,0.4,0.8,1.1,0.8,1.8c0.2,0,0.5,0,0.6,0c0-0.8,0.2-1.6,1.1-2
			c0.2-0.1,0.4-0.2,0.7-0.2c-0.1,0-0.2,0-0.3,0L14.8,23.5z"/>
		<radialGradient id="SVGID_12_" cx="5.3427" cy="2.3189" r="26.0771" gradientUnits="userSpaceOnUse">
			<stop  offset="0" style="stop-color:#E3CB9D"/>
			<stop  offset="1" style="stop-color:#AD8400"/>
		</radialGradient>
		<path class="st12" d="M11.3,23.5c-0.1,0-0.1,0-0.2-0.1c0,0-0.1,0-0.1,0c-0.1,0-0.2,0-0.3,0l-0.1,0.3c0.1,0,0.2,0,0.2,0.1
			c0.1,0,0.3,0,0.4,0.1L11.3,23.5z"/>
		<radialGradient id="SVGID_13_" cx="5.3433" cy="2.318" r="26.0774" gradientUnits="userSpaceOnUse">
			<stop  offset="0" style="stop-color:#E3CB9D"/>
			<stop  offset="1" style="stop-color:#AD8400"/>
		</radialGradient>
		<path class="st13" d="M11.3,23.5c-0.1,0-0.1,0-0.2-0.1c0,0-0.1,0-0.1,0c-0.1,0-0.2,0-0.3,0l-0.1,0.3c0.1,0,0.2,0,0.2,0.1
			c0.1,0,0.3,0,0.4,0.1L11.3,23.5z"/>
		<radialGradient id="SVGID_14_" cx="5.3427" cy="2.318" r="26.0779" gradientUnits="userSpaceOnUse">
			<stop  offset="0" style="stop-color:#E3CB9D"/>
			<stop  offset="1" style="stop-color:#AD8400"/>
		</radialGradient>
		<path class="st14" d="M18.6,22c0.1-0.1,0.1-0.1,0.2-0.2c0,0,0,0,0.1-0.1c-0.3,0.2-0.6,0.4-0.9,0.5l-0.2,0
			c-0.3-0.1-0.3-0.5-0.4-0.7c-0.1-0.8-0.3-1.5-0.2-2.3c-0.1,0.1-0.3,0.2-0.4,0.3c0,0.6,0,1.2-0.1,1.8c-0.2,0.3-0.5-0.1-0.7-0.2
			c-0.3-0.3-0.6-0.5-0.9-0.9c-0.2,0-0.3,0.1-0.5,0.1c0.6,0.6,1.1,1.2,1.5,1.9c0.1,0.2,0.2,0.4,0.1,0.7c-0.2,0.3-0.7,0.4-1,0.5
			c0.1,0,0.2,0,0.3-0.1l0.1,0.3c-0.1,0-0.3,0.1-0.4,0.1c0.4,0,0.8,0,1.2,0c0.8,0.2,1.2,0.7,1.4,1.4c0.2-0.1,0.4-0.2,0.6-0.2
			c-0.4-0.7-0.4-1.6,0.2-2.3c0.2-0.2,0.3-0.3,0.5-0.5c-0.1,0-0.2,0.1-0.2,0.1L18.6,22z"/>
		<radialGradient id="SVGID_15_" cx="5.3433" cy="2.3181" r="26.0773" gradientUnits="userSpaceOnUse">
			<stop  offset="0" style="stop-color:#E3CB9D"/>
			<stop  offset="1" style="stop-color:#AD8400"/>
		</radialGradient>
		<path class="st15" d="M15.4,23.3c-0.1,0-0.2,0-0.3,0.1c0,0-0.1,0-0.1,0c-0.1,0-0.2,0-0.3,0.1l0,0.4c0.1,0,0.2,0,0.3,0
			c0.1,0,0.3-0.1,0.4-0.1L15.4,23.3z"/>
		<radialGradient id="SVGID_16_" cx="5.3428" cy="2.318" r="26.0776" gradientUnits="userSpaceOnUse">
			<stop  offset="0" style="stop-color:#E3CB9D"/>
			<stop  offset="1" style="stop-color:#AD8400"/>
		</radialGradient>
		<path class="st16" d="M15.4,23.3c-0.1,0-0.2,0-0.3,0.1c0,0-0.1,0-0.1,0c-0.1,0-0.2,0-0.3,0.1l0,0.4c0.1,0,0.2,0,0.3,0
			c0.1,0,0.3-0.1,0.4-0.1L15.4,23.3z"/>
		<radialGradient id="SVGID_17_" cx="5.3427" cy="2.3177" r="26.0781" gradientUnits="userSpaceOnUse">
			<stop  offset="0" style="stop-color:#E3CB9D"/>
			<stop  offset="1" style="stop-color:#AD8400"/>
		</radialGradient>
		<path class="st17" d="M21.7,19.1c0-0.1,0.1-0.1,0.1-0.2c-0.2,0.3-0.4,0.5-0.7,0.7l-0.2,0c-0.3,0-0.5-0.3-0.7-0.5
			c-0.4-0.7-0.8-1.3-1.1-2c-0.1,0.1-0.2,0.3-0.3,0.4c0.3,0.5,0.5,1.1,0.6,1.7c-0.1,0.3-0.5,0.1-0.7,0.1c-0.4-0.1-0.8-0.3-1.1-0.5
			c-0.1,0.1-0.3,0.2-0.4,0.3c0.7,0.3,1.5,0.7,2.1,1.1c0.2,0.2,0.4,0.3,0.4,0.6c-0.1,0.3-0.5,0.7-0.8,0.9c0.1-0.1,0.2-0.1,0.3-0.2
			l0.2,0.3c-0.1,0.1-0.2,0.2-0.3,0.3c0.4-0.2,0.7-0.4,1.1-0.5c0.8-0.2,1.4,0.2,1.9,0.7c0.2-0.1,0.3-0.3,0.5-0.5
			c-0.6-0.5-1-1.3-0.7-2.2c0.1-0.2,0.2-0.5,0.3-0.7c-0.1,0.1-0.1,0.2-0.2,0.2L21.7,19.1z"/>
		<radialGradient id="SVGID_18_" cx="5.3428" cy="2.318" r="26.0778" gradientUnits="userSpaceOnUse">
			<stop  offset="0" style="stop-color:#E3CB9D"/>
			<stop  offset="1" style="stop-color:#AD8400"/>
		</radialGradient>
		<path class="st18" d="M19.2,21.6c-0.1,0.1-0.2,0.1-0.3,0.2c0,0,0,0-0.1,0.1c-0.1,0.1-0.1,0.1-0.2,0.2l0.2,0.3
			c0.1,0,0.2-0.1,0.2-0.1c0.1-0.1,0.2-0.2,0.3-0.3L19.2,21.6z"/>
		<radialGradient id="SVGID_19_" cx="5.3427" cy="2.3178" r="26.0781" gradientUnits="userSpaceOnUse">
			<stop  offset="0" style="stop-color:#E3CB9D"/>
			<stop  offset="1" style="stop-color:#AD8400"/>
		</radialGradient>
		<path class="st19" d="M19.2,21.6c-0.1,0.1-0.2,0.1-0.3,0.2c0,0,0,0-0.1,0.1c-0.1,0.1-0.1,0.1-0.2,0.2l0.2,0.3
			c0.1,0,0.2-0.1,0.2-0.1c0.1-0.1,0.2-0.2,0.3-0.3L19.2,21.6z"/>
		<radialGradient id="SVGID_20_" cx="5.3435" cy="2.3193" r="26.0761" gradientUnits="userSpaceOnUse">
			<stop  offset="0" style="stop-color:#E3CB9D"/>
			<stop  offset="1" style="stop-color:#AD8400"/>
		</radialGradient>
		<path class="st20" d="M23.3,15.4c0-0.1,0-0.1,0-0.2c-0.1,0.3-0.1,0.6-0.3,0.8l-0.2,0.1c-0.3,0.1-0.6-0.1-0.8-0.2
			c-0.4-0.3-0.9-0.6-1.3-1c-0.1,0.1-0.2,0.2-0.4,0.2c0.4,0.3,0.7,0.7,1,1.1c0,0.4-0.4,0.2-0.6,0.3c-0.4,0-0.8,0.1-1.2,0
			c-0.1,0.2-0.2,0.3-0.3,0.4c0.8,0,1.6,0.1,2.4,0.2c0.2,0.1,0.5,0.1,0.6,0.4c0.1,0.4-0.2,0.9-0.4,1.2c0,0,0,0,0,0
			c0.1-0.1,0.1-0.2,0.2-0.3l0.3,0.2c-0.1,0.1-0.1,0.2-0.2,0.3c0.3-0.3,0.5-0.6,0.8-0.8c0.7-0.4,1.3-0.3,2,0c0.1-0.2,0.2-0.4,0.2-0.6
			c-0.8-0.3-1.4-0.8-1.5-1.7c0-0.3,0-0.5,0-0.8c0,0.1-0.1,0.2-0.1,0.3L23.3,15.4z"/>
		<radialGradient id="SVGID_21_" cx="5.3426" cy="2.3177" r="26.078" gradientUnits="userSpaceOnUse">
			<stop  offset="0" style="stop-color:#E3CB9D"/>
			<stop  offset="1" style="stop-color:#AD8400"/>
		</radialGradient>
		<path class="st21" d="M22,18.6c-0.1,0.1-0.1,0.2-0.2,0.3c0,0.1-0.1,0.1-0.1,0.2l0.3,0.2c0.1-0.1,0.1-0.2,0.2-0.2
			c0.1-0.1,0.1-0.2,0.2-0.3L22,18.6z"/>
		<radialGradient id="SVGID_22_" cx="5.3435" cy="2.3192" r="26.076" gradientUnits="userSpaceOnUse">
			<stop  offset="0" style="stop-color:#E3CB9D"/>
			<stop  offset="1" style="stop-color:#AD8400"/>
		</radialGradient>
		<path class="st22" d="M22,18.6c-0.1,0.1-0.1,0.2-0.2,0.3c0,0.1-0.1,0.1-0.1,0.2l0.3,0.2c0.1-0.1,0.1-0.2,0.2-0.2
			c0.1-0.1,0.1-0.2,0.2-0.3L22,18.6z"/>
		<radialGradient id="SVGID_23_" cx="5.3418" cy="2.3186" r="26.078" gradientUnits="userSpaceOnUse">
			<stop  offset="0" style="stop-color:#E3CB9D"/>
			<stop  offset="1" style="stop-color:#AD8400"/>
		</radialGradient>
		<path class="st23" d="M24.1,11.9c-0.5,0.7-1.2,1.3-1.8,1.9c0.1,0,0.2,0,0.3-0.1c0.2,0,0.5,0,0.7,0.1c0.2,0.3,0.1,0.9,0.1,1.3
			c0,0,0,0,0,0.1c0-0.2,0.1-0.3,0.1-0.5l0.4,0c0,0.1,0,0.2,0,0.4c0.1-0.4,0.3-0.7,0.4-1c0.4-0.7,1.1-0.8,1.8-0.8c0-0.2,0-0.5,0-0.6
			C25.3,12.7,24.6,12.5,24.1,11.9z"/>
		<radialGradient id="SVGID_24_" cx="5.3434" cy="2.3193" r="26.0761" gradientUnits="userSpaceOnUse">
			<stop  offset="0" style="stop-color:#E3CB9D"/>
			<stop  offset="1" style="stop-color:#AD8400"/>
		</radialGradient>
		<path class="st24" d="M23.5,14.7c0,0.1-0.1,0.3-0.1,0.5c0,0.1,0,0.1,0,0.2l0.3,0.1c0-0.1,0.1-0.2,0.1-0.3c0-0.1,0-0.2,0-0.4
			L23.5,14.7z"/>
		<radialGradient id="SVGID_25_" cx="5.3417" cy="2.3187" r="26.0781" gradientUnits="userSpaceOnUse">
			<stop  offset="0" style="stop-color:#E3CB9D"/>
			<stop  offset="1" style="stop-color:#AD8400"/>
		</radialGradient>
		<path class="st25" d="M23.5,14.7c0,0.1-0.1,0.3-0.1,0.5c0,0.1,0,0.1,0,0.2l0.3,0.1c0-0.1,0.1-0.2,0.1-0.3c0-0.1,0-0.2,0-0.4
			L23.5,14.7z"/>
		<radialGradient id="SVGID_26_" cx="5.3428" cy="2.3189" r="26.077" gradientUnits="userSpaceOnUse">
			<stop  offset="0" style="stop-color:#EEDEC0"/>
			<stop  offset="1" style="stop-color:#AD8400"/>
		</radialGradient>
		<path class="st26" d="M19.7,15.6c-1,2.7-3.6,4.6-6.7,4.6c-3,0-5.7-1.9-6.7-4.6c-0.1-0.1-0.3-0.1-0.4-0.2c0.2,0.5,0.3,0.9,0.6,1.3
			c0,0,0.1,0,0.1,0l0-0.1c0,0,0,0,0,0c0,0.1,0,0.1,0.1,0.2c0.1,0.1,0.1,0.2,0.2,0.3c0,0,0,0-0.1,0c0,0,0,0.1,0.1,0.1c0,0,0,0,0-0.1
			c0,0,0,0,0,0l0,0c0.1,0.2,0.2,0.3,0.3,0.5c0,0,0,0,0,0c0,0,0,0,0,0c0,0,0,0,0,0c0,0,0,0,0,0c0.4,0.5,0.8,0.9,1.3,1.3
			c0,0,0.1,0,0.1,0l-0.1,0c0,0,0,0,0,0c0,0,0.1,0.1,0.1,0.1c0.1,0.1,0.2,0.2,0.3,0.2c0,0,0,0,0,0l0,0c0.1,0.1,0.3,0.3,0.5,0.3
			c0,0,0,0,0,0c0,0,0,0,0,0c0,0,0,0,0,0c0,0,0,0,0,0c0.5,0.3,1.1,0.5,1.7,0.7c0,0,0,0,0.1-0.1l-0.1,0c0,0,0,0,0,0
			c0.1,0,0.1,0.1,0.2,0.1c0.1,0.1,0.2,0.1,0.4,0.1c0,0,0,0,0,0c0,0,0.1,0,0.1,0c0,0,0,0,0,0c0,0,0.5,0.1,0.5,0.1c0,0,0,0,0,0
			c0.3,0,0.6,0.1,0.9,0.1c0.3,0,0.6,0,0.9-0.1c0,0,0,0,0-0.1c0,0,0.4,0,0.5,0c0,0,0,0,0,0c0,0,0,0,0.1,0c0,0,0,0,0,0c0,0,0,0-0.1,0
			l0,0c0.2,0,0.4,0,0.6-0.1c0,0,0,0,0,0c0,0,0,0,0,0c0,0,0,0,0,0c0,0,0,0,0,0c0.6-0.2,1.1-0.4,1.7-0.7c0,0,0,0,0-0.1l-0.1,0
			c0,0,0,0,0,0c0.1,0,0.1,0,0.2-0.1c0.1-0.1,0.2-0.1,0.3-0.2c0,0,0,0,0,0c0,0,0,0,0,0c0,0,0,0,0,0c0,0,0,0,0,0l0,0
			c0.2-0.1,0.3-0.2,0.5-0.3c0,0,0,0,0,0c0,0,0,0,0,0c0,0,0,0,0,0c0,0,0,0,0,0c0.5-0.4,0.9-0.8,1.3-1.3c0,0,0,0,0-0.1l0,0.1
			c0,0,0,0,0,0c0,0,0.1-0.1,0.1-0.1c0.1-0.1,0.2-0.2,0.2-0.3c0,0,0,0,0,0c0,0,0-0.1,0.1-0.1c0,0,0,0-0.1,0c0,0,0,0,0,0l0,0
			c0.1-0.1,0.3-0.3,0.3-0.5c0,0,0,0,0,0c0,0,0,0,0,0c0,0,0,0,0,0c0,0,0,0,0,0c0.2-0.4,0.4-0.8,0.6-1.3
			C19.9,15.4,19.8,15.5,19.7,15.6z"/>
		<radialGradient id="SVGID_27_" cx="5.3426" cy="2.3184" r="26.0778" gradientUnits="userSpaceOnUse">
			<stop  offset="0" style="stop-color:#EEDEC0"/>
			<stop  offset="1" style="stop-color:#AD8400"/>
		</radialGradient>
		<path class="st27" d="M8.9,19.2C8.9,19.2,8.9,19.2,8.9,19.2C8.9,19.2,8.9,19.2,8.9,19.2C8.9,19.2,8.9,19.2,8.9,19.2
			C8.9,19.2,8.9,19.2,8.9,19.2z"/>
		<radialGradient id="SVGID_28_" cx="5.3427" cy="2.3189" r="26.077" gradientUnits="userSpaceOnUse">
			<stop  offset="0" style="stop-color:#E3CB9D"/>
			<stop  offset="1" style="stop-color:#AD8400"/>
		</radialGradient>
		<path class="st28" d="M6.7,16.8c0-0.1,0-0.1-0.1-0.2c0,0,0,0,0,0l0,0.1c0,0-0.1,0-0.1,0c0.1,0.2,0.2,0.3,0.3,0.4c0,0,0,0,0.1,0
			C6.8,17,6.7,16.9,6.7,16.8z"/>
		<radialGradient id="SVGID_29_" cx="5.3428" cy="2.3189" r="26.077" gradientUnits="userSpaceOnUse">
			<stop  offset="0" style="stop-color:#EEDEC0"/>
			<stop  offset="1" style="stop-color:#AD8400"/>
		</radialGradient>
		<path class="st29" d="M6.7,16.8c0-0.1,0-0.1-0.1-0.2c0,0,0,0,0,0l0,0.1c0,0-0.1,0-0.1,0c0.1,0.2,0.2,0.3,0.3,0.4c0,0,0,0,0.1,0
			C6.8,17,6.7,16.9,6.7,16.8z"/>
		<radialGradient id="SVGID_30_" cx="5.3427" cy="2.3194" r="26.0758" gradientUnits="userSpaceOnUse">
			<stop  offset="0" style="stop-color:#E3CB9D"/>
			<stop  offset="1" style="stop-color:#AD8400"/>
		</radialGradient>
		<path class="st30" d="M8.9,19.2C8.8,19.1,8.7,19,8.6,19c0,0-0.1-0.1-0.1-0.1c0,0,0,0,0,0l0.1,0c0,0-0.1,0-0.1,0
			C8.6,19,8.7,19.1,8.9,19.2C8.9,19.2,8.9,19.2,8.9,19.2C8.9,19.2,8.9,19.2,8.9,19.2z"/>
		<radialGradient id="SVGID_31_" cx="5.3428" cy="2.319" r="26.0767" gradientUnits="userSpaceOnUse">
			<stop  offset="0" style="stop-color:#EEDEC0"/>
			<stop  offset="1" style="stop-color:#AD8400"/>
		</radialGradient>
		<path class="st31" d="M8.9,19.2C8.8,19.1,8.7,19,8.6,19c0,0-0.1-0.1-0.1-0.1c0,0,0,0,0,0l0.1,0c0,0-0.1,0-0.1,0
			C8.6,19,8.7,19.1,8.9,19.2C8.9,19.2,8.9,19.2,8.9,19.2C8.9,19.2,8.9,19.2,8.9,19.2z"/>
		<radialGradient id="SVGID_32_" cx="5.3427" cy="2.3192" r="26.076" gradientUnits="userSpaceOnUse">
			<stop  offset="0" style="stop-color:#E3CB9D"/>
			<stop  offset="1" style="stop-color:#AD8400"/>
		</radialGradient>
		<path class="st32" d="M7.2,17.6C7.2,17.6,7.2,17.6,7.2,17.6C7.2,17.6,7.2,17.6,7.2,17.6c-0.2-0.2-0.3-0.3-0.3-0.5l0,0c0,0,0,0,0,0
			c0,0,0,0,0,0.1C7,17.4,7.1,17.5,7.2,17.6C7.2,17.6,7.2,17.6,7.2,17.6C7.2,17.6,7.2,17.6,7.2,17.6z"/>
		<radialGradient id="SVGID_33_" cx="5.3428" cy="2.3189" r="26.077" gradientUnits="userSpaceOnUse">
			<stop  offset="0" style="stop-color:#EEDEC0"/>
			<stop  offset="1" style="stop-color:#AD8400"/>
		</radialGradient>
		<path class="st33" d="M7.2,17.6C7.2,17.6,7.2,17.6,7.2,17.6C7.2,17.6,7.2,17.6,7.2,17.6c-0.2-0.2-0.3-0.3-0.3-0.5l0,0c0,0,0,0,0,0
			c0,0,0,0,0,0.1C7,17.4,7.1,17.5,7.2,17.6C7.2,17.6,7.2,17.6,7.2,17.6C7.2,17.6,7.2,17.6,7.2,17.6z"/>
		<radialGradient id="SVGID_34_" cx="5.3426" cy="2.3187" r="26.0773" gradientUnits="userSpaceOnUse">
			<stop  offset="0" style="stop-color:#E3CB9D"/>
			<stop  offset="1" style="stop-color:#AD8400"/>
		</radialGradient>
		<path class="st34" d="M11.2,20.2c-0.1,0-0.1-0.1-0.2-0.1c0,0,0,0,0,0l0.1,0c0,0,0,0-0.1,0.1c0.2,0,0.3,0.1,0.5,0.1c0,0,0,0,0,0
			C11.4,20.3,11.3,20.2,11.2,20.2z"/>
		<radialGradient id="SVGID_35_" cx="5.3428" cy="2.3187" r="26.0773" gradientUnits="userSpaceOnUse">
			<stop  offset="0" style="stop-color:#EEDEC0"/>
			<stop  offset="1" style="stop-color:#AD8400"/>
		</radialGradient>
		<path class="st35" d="M11.2,20.2c-0.1,0-0.1-0.1-0.2-0.1c0,0,0,0,0,0l0.1,0c0,0,0,0-0.1,0.1c0.2,0,0.3,0.1,0.5,0.1c0,0,0,0,0,0
			C11.4,20.3,11.3,20.2,11.2,20.2z"/>
		<radialGradient id="SVGID_36_" cx="5.3427" cy="2.3188" r="26.0771" gradientUnits="userSpaceOnUse">
			<stop  offset="0" style="stop-color:#E3CB9D"/>
			<stop  offset="1" style="stop-color:#AD8400"/>
		</radialGradient>
		<path class="st36" d="M9.4,19.5C9.4,19.5,9.4,19.5,9.4,19.5C9.4,19.5,9.4,19.5,9.4,19.5c-0.2-0.1-0.4-0.2-0.5-0.3l0,0c0,0,0,0,0,0
			c0,0,0,0,0,0c0,0,0,0,0,0c0,0,0,0,0,0c0,0,0,0,0,0C9.1,19.3,9.2,19.4,9.4,19.5C9.4,19.5,9.4,19.5,9.4,19.5
			C9.4,19.5,9.4,19.5,9.4,19.5z"/>
		<radialGradient id="SVGID_37_" cx="5.3428" cy="2.3188" r="26.0772" gradientUnits="userSpaceOnUse">
			<stop  offset="0" style="stop-color:#EEDEC0"/>
			<stop  offset="1" style="stop-color:#AD8400"/>
		</radialGradient>
		<path class="st37" d="M9.4,19.5C9.4,19.5,9.4,19.5,9.4,19.5C9.4,19.5,9.4,19.5,9.4,19.5c-0.2-0.1-0.4-0.2-0.5-0.3l0,0c0,0,0,0,0,0
			c0,0,0,0,0,0c0,0,0,0,0,0c0,0,0,0,0,0c0,0,0,0,0,0C9.1,19.3,9.2,19.4,9.4,19.5C9.4,19.5,9.4,19.5,9.4,19.5
			C9.4,19.5,9.4,19.5,9.4,19.5z"/>
		<radialGradient id="SVGID_38_" cx="5.3433" cy="2.322" r="26.0717" gradientUnits="userSpaceOnUse">
			<stop  offset="0" style="stop-color:#E3CB9D"/>
			<stop  offset="1" style="stop-color:#AD8400"/>
		</radialGradient>
		<path class="st38" d="M8.9,19.2C8.9,19.2,8.9,19.2,8.9,19.2C8.9,19.2,8.9,19.2,8.9,19.2C8.9,19.2,8.9,19.2,8.9,19.2z"/>
		<radialGradient id="SVGID_39_" cx="5.3433" cy="2.3217" r="26.0727" gradientUnits="userSpaceOnUse">
			<stop  offset="0" style="stop-color:#E3CB9D"/>
			<stop  offset="1" style="stop-color:#AD8400"/>
		</radialGradient>
		<path class="st39" d="M8.9,19.2C8.9,19.2,8.9,19.2,8.9,19.2C8.9,19.2,8.9,19.2,8.9,19.2C8.9,19.2,8.9,19.2,8.9,19.2z"/>
		<radialGradient id="SVGID_40_" cx="5.3434" cy="2.3217" r="26.0727" gradientUnits="userSpaceOnUse">
			<stop  offset="0" style="stop-color:#EEDEC0"/>
			<stop  offset="1" style="stop-color:#AD8400"/>
		</radialGradient>
		<path class="st40" d="M8.9,19.2C8.9,19.2,8.9,19.2,8.9,19.2C8.9,19.2,8.9,19.2,8.9,19.2C8.9,19.2,8.9,19.2,8.9,19.2z"/>
		<radialGradient id="SVGID_41_" cx="5.3434" cy="2.3179" r="26.0774" gradientUnits="userSpaceOnUse">
			<stop  offset="0" style="stop-color:#E3CB9D"/>
			<stop  offset="1" style="stop-color:#AD8400"/>
		</radialGradient>
		<path class="st41" d="M14,20.3C14,20.4,14,20.4,14,20.3c0.2,0.1,0.3,0,0.5,0c0,0,0,0,0,0C14.4,20.3,14,20.3,14,20.3z"/>
		<radialGradient id="SVGID_42_" cx="5.3428" cy="2.3188" r="26.0772" gradientUnits="userSpaceOnUse">
			<stop  offset="0" style="stop-color:#EEDEC0"/>
			<stop  offset="1" style="stop-color:#AD8400"/>
		</radialGradient>
		<path class="st42" d="M14,20.3C14,20.4,14,20.4,14,20.3c0.2,0.1,0.3,0,0.5,0c0,0,0,0,0,0C14.4,20.3,14,20.3,14,20.3z"/>
		<radialGradient id="SVGID_43_" cx="5.3433" cy="2.3151" r="26.081" gradientUnits="userSpaceOnUse">
			<stop  offset="0" style="stop-color:#E3CB9D"/>
			<stop  offset="1" style="stop-color:#AD8400"/>
		</radialGradient>
		<path class="st43" d="M11.6,20.3C11.6,20.3,11.6,20.3,11.6,20.3c0.2,0.1,0.4,0.1,0.5,0.1c0,0,0,0,0,0
			C12.1,20.4,11.6,20.3,11.6,20.3z"/>
		<radialGradient id="SVGID_44_" cx="5.3428" cy="2.316" r="26.0807" gradientUnits="userSpaceOnUse">
			<stop  offset="0" style="stop-color:#EEDEC0"/>
			<stop  offset="1" style="stop-color:#AD8400"/>
		</radialGradient>
		<path class="st44" d="M11.6,20.3C11.6,20.3,11.6,20.3,11.6,20.3c0.2,0.1,0.4,0.1,0.5,0.1c0,0,0,0,0,0
			C12.1,20.4,11.6,20.3,11.6,20.3z"/>
		<radialGradient id="SVGID_45_" cx="5.3428" cy="2.3179" r="26.0778" gradientUnits="userSpaceOnUse">
			<stop  offset="0" style="stop-color:#E3CB9D"/>
			<stop  offset="1" style="stop-color:#AD8400"/>
		</radialGradient>
		<path class="st45" d="M16.8,19.4c-0.1,0-0.1,0-0.2,0.1c0,0,0,0,0,0l0.1,0c0,0,0,0,0,0.1c0.2-0.1,0.3-0.2,0.4-0.3c0,0,0,0,0,0
			C17.1,19.2,17,19.3,16.8,19.4z"/>
		<radialGradient id="SVGID_46_" cx="5.3428" cy="2.3189" r="26.077" gradientUnits="userSpaceOnUse">
			<stop  offset="0" style="stop-color:#EEDEC0"/>
			<stop  offset="1" style="stop-color:#AD8400"/>
		</radialGradient>
		<path class="st46" d="M16.8,19.4c-0.1,0-0.1,0-0.2,0.1c0,0,0,0,0,0l0.1,0c0,0,0,0,0,0.1c0.2-0.1,0.3-0.2,0.4-0.3c0,0,0,0,0,0
			C17.1,19.2,17,19.3,16.8,19.4z"/>
		<radialGradient id="SVGID_47_" cx="5.3428" cy="2.3178" r="26.0779" gradientUnits="userSpaceOnUse">
			<stop  offset="0" style="stop-color:#E3CB9D"/>
			<stop  offset="1" style="stop-color:#AD8400"/>
		</radialGradient>
		<path class="st47" d="M15,20.2C15,20.2,15,20.2,15,20.2C15,20.2,15,20.2,15,20.2c-0.2,0.1-0.4,0.1-0.6,0.1l0,0c0,0,0,0,0.1,0
			c0,0,0,0,0,0C14.7,20.3,14.9,20.2,15,20.2C15,20.2,15,20.2,15,20.2C15,20.2,15,20.2,15,20.2z"/>
		<radialGradient id="SVGID_48_" cx="5.3428" cy="2.3187" r="26.0771" gradientUnits="userSpaceOnUse">
			<stop  offset="0" style="stop-color:#EEDEC0"/>
			<stop  offset="1" style="stop-color:#AD8400"/>
		</radialGradient>
		<path class="st48" d="M15,20.2C15,20.2,15,20.2,15,20.2C15,20.2,15,20.2,15,20.2c-0.2,0.1-0.4,0.1-0.6,0.1l0,0c0,0,0,0,0.1,0
			c0,0,0,0,0,0C14.7,20.3,14.9,20.2,15,20.2C15,20.2,15,20.2,15,20.2C15,20.2,15,20.2,15,20.2z"/>
		<radialGradient id="SVGID_49_" cx="5.3425" cy="2.3177" r="26.0781" gradientUnits="userSpaceOnUse">
			<stop  offset="0" style="stop-color:#E3CB9D"/>
			<stop  offset="1" style="stop-color:#AD8400"/>
		</radialGradient>
		<path class="st49" d="M18.9,17.4c0,0-0.1,0.1-0.1,0.1c0,0,0,0,0,0L18.9,17.4c-0.1,0.1-0.1,0.1-0.1,0.2c0.1-0.1,0.2-0.3,0.3-0.4
			c0,0,0,0,0,0C19.1,17.2,19,17.3,18.9,17.4z"/>
		<radialGradient id="SVGID_50_" cx="5.3426" cy="2.3189" r="26.0771" gradientUnits="userSpaceOnUse">
			<stop  offset="0" style="stop-color:#EEDEC0"/>
			<stop  offset="1" style="stop-color:#AD8400"/>
		</radialGradient>
		<path class="st50" d="M18.9,17.4c0,0-0.1,0.1-0.1,0.1c0,0,0,0,0,0L18.9,17.4c-0.1,0.1-0.1,0.1-0.1,0.2c0.1-0.1,0.2-0.3,0.3-0.4
			c0,0,0,0,0,0C19.1,17.2,19,17.3,18.9,17.4z"/>
		<radialGradient id="SVGID_51_" cx="5.3427" cy="2.3178" r="26.078" gradientUnits="userSpaceOnUse">
			<stop  offset="0" style="stop-color:#E3CB9D"/>
			<stop  offset="1" style="stop-color:#AD8400"/>
		</radialGradient>
		<path class="st51" d="M17.6,18.9C17.6,18.9,17.6,18.9,17.6,18.9C17.6,18.9,17.6,18.9,17.6,18.9c-0.2,0.2-0.3,0.3-0.5,0.3l0,0
			c0,0,0,0,0,0c0,0,0,0,0,0C17.3,19.1,17.5,19,17.6,18.9C17.6,18.9,17.6,18.9,17.6,18.9C17.6,18.9,17.6,18.9,17.6,18.9z"/>
		<radialGradient id="SVGID_52_" cx="5.3428" cy="2.319" r="26.0769" gradientUnits="userSpaceOnUse">
			<stop  offset="0" style="stop-color:#EEDEC0"/>
			<stop  offset="1" style="stop-color:#AD8400"/>
		</radialGradient>
		<path class="st52" d="M17.6,18.9C17.6,18.9,17.6,18.9,17.6,18.9C17.6,18.9,17.6,18.9,17.6,18.9c-0.2,0.2-0.3,0.3-0.5,0.3l0,0
			c0,0,0,0,0,0c0,0,0,0,0,0C17.3,19.1,17.5,19,17.6,18.9C17.6,18.9,17.6,18.9,17.6,18.9C17.6,18.9,17.6,18.9,17.6,18.9z"/>
		<radialGradient id="SVGID_53_" cx="5.3436" cy="2.3194" r="26.0758" gradientUnits="userSpaceOnUse">
			<stop  offset="0" style="stop-color:#E3CB9D"/>
			<stop  offset="1" style="stop-color:#AD8400"/>
		</radialGradient>
		<path class="st53" d="M19.5,16.6C19.5,16.6,19.5,16.6,19.5,16.6C19.5,16.6,19.5,16.6,19.5,16.6c-0.1,0.2-0.2,0.4-0.3,0.5l0,0
			c0,0,0,0,0,0c0,0,0,0,0.1,0C19.3,16.9,19.4,16.8,19.5,16.6C19.5,16.6,19.5,16.6,19.5,16.6C19.5,16.6,19.5,16.6,19.5,16.6z"/>
		<radialGradient id="SVGID_54_" cx="5.3428" cy="2.319" r="26.0768" gradientUnits="userSpaceOnUse">
			<stop  offset="0" style="stop-color:#EEDEC0"/>
			<stop  offset="1" style="stop-color:#AD8400"/>
		</radialGradient>
		<path class="st54" d="M19.5,16.6C19.5,16.6,19.5,16.6,19.5,16.6C19.5,16.6,19.5,16.6,19.5,16.6c-0.1,0.2-0.2,0.4-0.3,0.5l0,0
			c0,0,0,0,0,0c0,0,0,0,0.1,0C19.3,16.9,19.4,16.8,19.5,16.6C19.5,16.6,19.5,16.6,19.5,16.6C19.5,16.6,19.5,16.6,19.5,16.6z"/>
		<path class="st0" d="M5.3,9.4c-0.2,0.1-0.7,0-0.6,0.3C5,10.2,5.4,10.6,5.8,11C6,10.4,6.2,9.9,6.5,9.3C6.1,9.3,5.7,9.3,5.3,9.4z"/>
		<path class="st0" d="M19.2,6.5c-0.6,0.1-1.1,0.3-1.7,0.6c0.5,0.4,0.9,0.8,1.3,1.3c0.2-0.3,0.3-0.7,0.5-1.1
			C19.3,7,19.6,6.7,19.2,6.5z"/>
		<path class="st0" d="M19.7,5.1l0-0.2c-0.3-0.4-0.7-0.6-1-0.8c-0.3-0.1-0.6-0.3-0.9-0.2c-0.2,0.1-0.3,0.3-0.4,0.6
			c-0.2,0.8-0.3,1.6-0.2,2.4c0,0,0,0,0,0c0.7-0.2,1.4-0.7,2-1.1C19.4,5.6,19.7,5.4,19.7,5.1z"/>
		<path class="st0" d="M5.8,15c-0.1,0.1-0.1,0.1-0.2,0.2c0.1,0.1,0.2,0.1,0.3,0.2C5.9,15.3,5.9,15.1,5.8,15z"/>
		<path class="st0" d="M16.7,6.5C16.7,6.5,16.7,6.5,16.7,6.5C16.7,6.5,16.7,6.5,16.7,6.5c0.1-0.4,0-0.8,0-1.3
			c-0.1-0.2,0-0.7-0.3-0.6C15.8,5,15.4,5.4,15,5.8C15.7,6,16.4,6.4,17,6.8C16.9,6.7,16.8,6.6,16.7,6.5C16.7,6.5,16.7,6.5,16.7,6.5z"
			/>
		<path class="st0" d="M21,10.1c0.1-0.2,0.5-0.5,0.2-0.7c-0.6-0.1-1.2-0.1-1.7-0.1c0.3,0.5,0.5,1.1,0.7,1.7
			C20.5,10.8,20.7,10.4,21,10.1z"/>
		<path class="st0" d="M22.8,9.9c-0.2-0.1-0.5,0-0.7,0.1c-0.7,0.4-1.3,0.9-1.8,1.5c0,0,0,0.1,0,0.1c0.7,0.3,1.4,0.5,2.2,0.7
			c0.3,0,0.6,0.1,0.9-0.1l0.1-0.1c0.1-0.4,0-0.7-0.1-1.1C23.2,10.5,23.1,10.1,22.8,9.9z"/>
		<path class="st0" d="M21.4,8.7c0.3-0.1,0.6-0.2,0.7-0.4l0-0.2c-0.1-0.4-0.4-0.8-0.6-1.1c-0.2-0.3-0.5-0.6-0.8-0.6
			c-0.3,0-0.4,0.2-0.6,0.4c-0.5,0.7-0.8,1.4-1.1,2.1c0,0,0,0,0,0.1C20,8.9,20.7,8.8,21.4,8.7z"/>
		<path class="st0" d="M6.5,6.8c0.1,0.6,0.3,1.1,0.6,1.7C7.5,8,7.9,7.5,8.4,7.2C8.1,7,7.7,6.9,7.3,6.7C7,6.7,6.7,6.5,6.5,6.8z"/>
		<path class="st0" d="M10.1,5C9.9,4.9,9.7,4.5,9.4,4.8C9.3,5.4,9.3,5.9,9.4,6.5C9.9,6.2,10.4,6,11,5.8C10.8,5.5,10.5,5.3,10.1,5z"
			/>
		<path class="st0" d="M5.7,6.9C5.6,6.7,5.4,6.4,5.1,6.4l-0.2,0C4.6,6.6,4.3,7,4.1,7.3C3.9,7.6,3.8,8,3.8,8.3
			c0.1,0.2,0.3,0.3,0.6,0.4C5.2,8.8,6,8.9,6.8,8.9c0,0,0,0,0,0C6.6,8.2,6.1,7.5,5.7,6.9z"/>
		<path class="st0" d="M8.7,4.5C8.6,4.3,8.5,3.9,8.3,3.8l-0.2,0C7.7,3.9,7.4,4.1,7,4.3C6.8,4.5,6.4,4.8,6.3,5.2
			c0,0.3,0.2,0.4,0.4,0.6c0.7,0.5,1.4,0.8,2.1,1.1c0,0,0.1,0,0.1-0.1C9,6,8.8,5.3,8.7,4.5z"/>
		<path class="st0" d="M20.1,15.4c0.1-0.1,0.2-0.1,0.3-0.2c-0.1-0.1-0.1-0.1-0.2-0.2C20.2,15.1,20.1,15.2,20.1,15.4z"/>
		<path class="st0" d="M12.3,3.5c0-0.3,0.1-0.6-0.1-0.9L12,2.6c-0.4-0.1-0.8,0-1.2,0.1c-0.3,0.1-0.7,0.2-0.9,0.5
			c-0.1,0.2,0,0.5,0.1,0.7c0.4,0.7,0.9,1.3,1.5,1.9c0,0,0,0,0.1,0C11.9,5,12.1,4.3,12.3,3.5z"/>
		<path class="st0" d="M12.9,4c-0.3,0.5-0.6,1-0.8,1.6c0.3,0,0.6-0.1,0.9-0.1c0.3,0,0.6,0,0.9,0.1c-0.1-0.4-0.3-0.7-0.5-1.1
			C13.3,4.4,13.2,3.9,12.9,4z"/>
		<path class="st0" d="M15.9,3.9c0.1-0.3,0.3-0.5,0.2-0.8l-0.1-0.2c-0.2-0.1-0.4-0.2-0.7-0.3c-0.1,0-0.2,0-0.2,0
			c-0.4,0-0.9-0.1-1.3,0.1c-0.2,0.2-0.2,0.4-0.1,0.7c0.1,0.8,0.4,1.6,0.7,2.3c0.1,0,0.2,0,0.3,0.1c-0.1,0-0.2-0.1-0.3-0.1
			C15.1,5.2,15.5,4.6,15.9,3.9z"/>
		<path class="st0" d="M20.3,14.5c0.1,0.2,0.3,0.3,0.5,0.5c0.5-0.4,1-0.7,1.5-1.2C21.6,13.9,21,14.1,20.3,14.5
			C20.3,14.4,20.3,14.4,20.3,14.5z"/>
		<path class="st0" d="M13,5.9c-4,0-7.2,3.2-7.2,7.2c0,0.9,0.2,1.8,0.5,2.6c2,1.1,4.3,1.7,6.7,1.7c2.4,0,4.7-0.6,6.7-1.7
			c0.3-0.8,0.5-1.7,0.5-2.6C20.2,9.1,17,5.9,13,5.9z"/>
		<path class="st0" d="M4,10.1C3.7,9.9,3.4,9.7,3.1,9.9L3,9.9c-0.2,0.3-0.3,0.6-0.3,1c0,0.4-0.1,0.9,0.1,1.2
			c0.2,0.2,0.4,0.2,0.7,0.1c0.8-0.1,1.6-0.4,2.3-0.7c0,0,0,0,0-0.1C5.2,10.9,4.6,10.5,4,10.1z"/>
		<path class="st0" d="M20.4,13.9c0.4-0.1,0.7-0.3,1.1-0.5c0.2-0.2,0.6-0.2,0.5-0.6c-0.5-0.3-1-0.6-1.6-0.7c0,0.3,0.1,0.6,0.1,0.9
			C20.5,13.3,20.4,13.6,20.4,13.9z"/>
		<path class="st0" d="M5.6,12.1c-0.4,0.1-0.7,0.3-1.1,0.5c-0.2,0.2-0.6,0.2-0.5,0.6c0.5,0.3,1,0.6,1.6,0.7c0-0.3-0.1-0.6-0.1-0.9
			C5.6,12.7,5.6,12.4,5.6,12.1z"/>
		<path class="st0" d="M5.7,14.5c0,0,0-0.1,0-0.1c-0.6-0.3-1.3-0.4-2-0.6c0.5,0.4,1,0.8,1.5,1.2C5.4,14.8,5.6,14.7,5.7,14.5z"/>
		<path class="st55" d="M7.4,4C7.3,4.1,7.2,4.2,7.1,4.2c0,0-0.1,0.1-0.1,0.1c0.3-0.2,0.7-0.4,1-0.5l0.2,0c0.3,0.1,0.3,0.5,0.4,0.7
			C8.8,5.3,9,6,8.9,6.8c0.1-0.1,0.3-0.2,0.4-0.3c0-0.6,0-1.2,0.1-1.7C9.7,4.5,9.9,4.9,10.1,5c0.3,0.3,0.6,0.5,0.9,0.9
			c0.2,0,0.3-0.1,0.5-0.1C11,5.2,10.4,4.5,10,3.9C9.9,3.6,9.8,3.4,9.9,3.2c0.2-0.2,0.6-0.4,0.9-0.5c0,0-0.1,0-0.1,0l-0.1-0.3
			c0.2,0,0.3-0.1,0.5-0.1c-0.5,0.1-0.9,0.1-1.3,0C9,2.1,8.6,1.5,8.3,0.9C8.1,1,7.9,1,7.7,1.1c0.4,0.7,0.4,1.6-0.2,2.3
			C7.3,3.5,7.2,3.7,7,3.8c0.1,0,0.1-0.1,0.2-0.1L7.4,4z"/>
		<path class="st55" d="M4.4,6.8c0,0.1-0.1,0.2-0.1,0.2c0,0.1-0.1,0.1-0.1,0.2C4.3,7,4.6,6.6,4.9,6.4l0.2,0c0.3,0,0.5,0.3,0.7,0.5
			c0.4,0.7,0.8,1.3,1.1,2C6.9,8.7,7,8.6,7.1,8.5C6.9,7.9,6.7,7.4,6.5,6.8C6.7,6.5,7,6.7,7.3,6.7C7.7,6.9,8.1,7,8.4,7.2
			C8.5,7.1,8.7,7,8.8,6.9C8.1,6.6,7.4,6.2,6.7,5.7C6.5,5.6,6.3,5.4,6.3,5.2C6.4,4.8,6.8,4.5,7,4.3C7,4.3,6.9,4.4,6.9,4.4L6.7,4.1
			C6.8,4,6.9,3.9,7,3.8C6.6,4,6.2,4.2,5.9,4.4C5.1,4.5,4.5,4.2,4,3.6C3.8,3.8,3.7,4,3.5,4.1c0.6,0.5,1,1.3,0.7,2.2
			C4.1,6.4,4,6.6,4,6.8C4,6.7,4,6.7,4.1,6.6L4.4,6.8z"/>
		<radialGradient id="SVGID_55_" cx="5.3427" cy="2.3188" r="26.0772" gradientUnits="userSpaceOnUse">
			<stop  offset="0" style="stop-color:#E3CB9D"/>
			<stop  offset="1" style="stop-color:#AD8400"/>
		</radialGradient>
		<path class="st56" d="M6.9,4.4C6.9,4.4,7,4.3,7,4.3c0,0,0.1-0.1,0.1-0.1C7.2,4.2,7.3,4.1,7.4,4L7.2,3.7C7.1,3.8,7.1,3.8,7,3.8
			C6.9,3.9,6.8,4,6.7,4.1L6.9,4.4z"/>
		<path class="st55" d="M6.9,4.4C6.9,4.4,7,4.3,7,4.3c0,0,0.1-0.1,0.1-0.1C7.2,4.2,7.3,4.1,7.4,4L7.2,3.7C7.1,3.8,7.1,3.8,7,3.8
			C6.9,3.9,6.8,4,6.7,4.1L6.9,4.4z"/>
		<path class="st55" d="M3.1,9.9C3.4,9.7,3.7,9.9,4,10.1c0.6,0.5,1.3,0.9,1.8,1.4c0-0.2,0.1-0.3,0.1-0.5C5.4,10.6,5,10.2,4.7,9.7
			c0-0.4,0.4-0.2,0.6-0.3c0.4,0,0.8-0.1,1.2,0C6.6,9.2,6.7,9,6.8,8.9C6,8.9,5.2,8.8,4.4,8.6C4.2,8.6,3.9,8.5,3.8,8.3
			c0-0.3,0.1-0.7,0.3-1c0,0-0.1,0.1-0.1,0.1L3.7,7.3C3.8,7.1,3.9,6.9,4,6.8C3.7,7.1,3.4,7.4,3.1,7.7c-0.7,0.4-1.3,0.3-2,0
			C1,7.9,0.9,8.2,0.8,8.3c0.8,0.3,1.4,0.8,1.5,1.7c0,0.2,0,0.5,0,0.7c0-0.1,0.1-0.2,0.1-0.3l0.3,0.1c0,0.1,0,0.2,0,0.3c0,0,0,0,0,0
			c0.1-0.3,0.1-0.7,0.3-1L3.1,9.9z"/>
		<radialGradient id="SVGID_56_" cx="5.3427" cy="2.3185" r="26.0774" gradientUnits="userSpaceOnUse">
			<stop  offset="0" style="stop-color:#E3CB9D"/>
			<stop  offset="1" style="stop-color:#AD8400"/>
		</radialGradient>
		<path class="st57" d="M4,7.4c0,0,0.1-0.1,0.1-0.1c0-0.1,0.1-0.2,0.1-0.2c0-0.1,0.1-0.2,0.1-0.2L4.1,6.6C4,6.7,4,6.7,4,6.8
			C3.9,6.9,3.8,7.1,3.7,7.3L4,7.4z"/>
		<path class="st55" d="M4,7.4c0,0,0.1-0.1,0.1-0.1c0-0.1,0.1-0.2,0.1-0.2c0-0.1,0.1-0.2,0.1-0.2L4.1,6.6C4,6.7,4,6.7,4,6.8
			C3.9,6.9,3.8,7.1,3.7,7.3L4,7.4z"/>
		<path class="st55" d="M3.7,13.8c0.7,0.2,1.3,0.3,2,0.6c0-0.2-0.1-0.3-0.1-0.5c-0.6-0.2-1.1-0.4-1.6-0.7c-0.2-0.3,0.3-0.4,0.5-0.6
			c0.4-0.2,0.7-0.4,1.1-0.5c0-0.2,0-0.3,0.1-0.5c-0.7,0.3-1.5,0.5-2.3,0.7c-0.2,0-0.5,0-0.7-0.1c-0.2-0.3-0.1-0.8-0.1-1.2
			c0,0.1,0,0.2-0.1,0.3l-0.4,0c0-0.1,0-0.3,0-0.4c-0.1,0.4-0.3,0.7-0.4,1C2.4,12.6,3,13.2,3.7,13.8z"/>
		<radialGradient id="SVGID_57_" cx="5.3428" cy="2.3185" r="26.0779" gradientUnits="userSpaceOnUse">
			<stop  offset="0" style="stop-color:#E3CB9D"/>
			<stop  offset="1" style="stop-color:#AD8400"/>
		</radialGradient>
		<path class="st58" d="M2.7,10.6l-0.3-0.1c0,0.1-0.1,0.2-0.1,0.3c0,0.1,0,0.3,0,0.4l0.4,0c0-0.1,0-0.2,0.1-0.3c0,0,0,0,0,0
			C2.7,10.8,2.7,10.7,2.7,10.6z"/>
		<path class="st55" d="M2.7,10.6l-0.3-0.1c0,0.1-0.1,0.2-0.1,0.3c0,0.1,0,0.3,0,0.4l0.4,0c0-0.1,0-0.2,0.1-0.3c0,0,0,0,0,0
			C2.7,10.8,2.7,10.7,2.7,10.6z"/>
		<radialGradient id="SVGID_58_" cx="5.3427" cy="2.3189" r="26.077" gradientUnits="userSpaceOnUse">
			<stop  offset="0" style="stop-color:#E3CB9D"/>
			<stop  offset="1" style="stop-color:#AD8400"/>
		</radialGradient>
		<path class="st59" d="M5.7,14.5c-0.1,0.2-0.3,0.3-0.5,0.4c0.1,0.1,0.2,0.2,0.4,0.2c0.1-0.1,0.1-0.1,0.2-0.2
			C5.8,14.8,5.7,14.7,5.7,14.5z"/>
		<radialGradient id="SVGID_59_" cx="5.3434" cy="2.3194" r="26.076" gradientUnits="userSpaceOnUse">
			<stop  offset="0" style="stop-color:#E3CB9D"/>
			<stop  offset="1" style="stop-color:#AD8400"/>
		</radialGradient>
		<path class="st60" d="M20.3,14.5c0,0.2-0.1,0.3-0.1,0.5c0.1,0.1,0.1,0.1,0.2,0.2c0.1-0.1,0.3-0.2,0.4-0.2
			C20.6,14.8,20.5,14.6,20.3,14.5z"/>
		<path class="st55" d="M23.8,10.9c0,0.1,0,0.2,0,0.3l-0.4,0c0-0.1,0-0.2-0.1-0.3c0,0,0-0.1,0-0.1c0.1,0.3,0.1,0.7,0.1,1.1l-0.1,0.1
			c-0.2,0.2-0.6,0.1-0.9,0.1c-0.7-0.2-1.5-0.3-2.2-0.7c0,0.2,0.1,0.3,0.1,0.5c0.6,0.2,1.1,0.4,1.6,0.7c0.2,0.3-0.3,0.4-0.5,0.6
			c-0.4,0.2-0.7,0.4-1.1,0.5c0,0.2,0,0.3-0.1,0.5c0.6-0.3,1.3-0.5,2-0.6c0.7-0.6,1.3-1.2,1.8-1.9c-0.1-0.1-0.1-0.2-0.1-0.3
			C23.9,11.4,23.8,11.2,23.8,10.9z"/>
		<path class="st55" d="M22,7.4c-0.1-0.1-0.1-0.1-0.2-0.2c0-0.1-0.1-0.1-0.2-0.2c0.2,0.3,0.5,0.7,0.6,1.1l0,0.2
			c-0.1,0.3-0.5,0.3-0.7,0.4c-0.8,0.1-1.5,0.3-2.2,0.2c0.1,0.1,0.2,0.3,0.3,0.4c0.6,0,1.2,0,1.7,0.1c0.3,0.2-0.1,0.5-0.2,0.7
			c-0.3,0.3-0.5,0.6-0.8,0.9c0,0.2,0.1,0.3,0.1,0.5c0.5-0.6,1.2-1.1,1.8-1.5c0.2-0.1,0.4-0.2,0.7-0.1c0.3,0.2,0.4,0.7,0.5,1
			c0-0.1,0-0.2,0-0.3l0.3-0.1c0,0.1,0.1,0.3,0.1,0.4c0-0.4,0-0.8,0-1.2c0.2-0.8,0.7-1.2,1.4-1.4C25,8.1,25,7.9,24.9,7.7
			c-0.7,0.4-1.6,0.4-2.3-0.2c-0.1-0.1-0.3-0.3-0.4-0.5c0,0.1,0.1,0.1,0.1,0.2L22,7.4z"/>
		<radialGradient id="SVGID_60_" cx="5.3417" cy="2.3186" r="26.0782" gradientUnits="userSpaceOnUse">
			<stop  offset="0" style="stop-color:#E3CB9D"/>
			<stop  offset="1" style="stop-color:#AD8400"/>
		</radialGradient>
		<path class="st61" d="M23.3,10.6c0,0.1,0,0.2,0,0.3c0,0,0,0.1,0,0.1c0,0.1,0,0.2,0.1,0.3l0.4,0c0-0.1,0-0.2,0-0.3
			c0-0.1-0.1-0.3-0.1-0.4L23.3,10.6z"/>
		<path class="st55" d="M23.3,10.6c0,0.1,0,0.2,0,0.3c0,0,0,0.1,0,0.1c0,0.1,0,0.2,0.1,0.3l0.4,0c0-0.1,0-0.2,0-0.3
			c0-0.1-0.1-0.3-0.1-0.4L23.3,10.6z"/>
		<path class="st55" d="M19.2,4.3c-0.1,0-0.2-0.1-0.2-0.1c-0.1,0-0.2-0.1-0.3-0.2c0.3,0.2,0.7,0.5,1,0.8l0,0.2
			c0,0.3-0.3,0.5-0.5,0.7c-0.7,0.4-1.3,0.8-2,1.1c0,0,0,0,0,0c0.1,0.1,0.3,0.2,0.4,0.3c0.5-0.3,1.1-0.5,1.7-0.6
			c0.3,0.1,0.1,0.5,0.1,0.7c-0.1,0.4-0.3,0.8-0.5,1.1c0.1,0.1,0.2,0.3,0.3,0.4c0.3-0.7,0.7-1.5,1.1-2.1c0.2-0.2,0.3-0.4,0.6-0.4
			c0.3,0.1,0.6,0.4,0.8,0.6c0,0,0-0.1-0.1-0.1l0.3-0.2C22,6.8,22.1,6.9,22.2,7c-0.2-0.4-0.4-0.8-0.5-1.2c-0.2-0.8,0.2-1.4,0.7-1.9
			c-0.1-0.2-0.3-0.3-0.5-0.5c-0.5,0.6-1.3,1-2.2,0.7c-0.2-0.1-0.3-0.1-0.5-0.2c0,0,0.1,0.1,0.1,0.1L19.2,4.3z"/>
		<radialGradient id="SVGID_61_" cx="5.3432" cy="2.3184" r="26.0764" gradientUnits="userSpaceOnUse">
			<stop  offset="0" style="stop-color:#E3CB9D"/>
			<stop  offset="1" style="stop-color:#AD8400"/>
		</radialGradient>
		<path class="st62" d="M21.6,6.9c0,0,0,0.1,0.1,0.1c0.1,0.1,0.1,0.1,0.2,0.2c0.1,0.1,0.1,0.1,0.2,0.2l0.3-0.2
			c0-0.1-0.1-0.1-0.1-0.2c-0.1-0.1-0.2-0.3-0.3-0.4L21.6,6.9z"/>
		<path class="st55" d="M21.6,6.9c0,0,0,0.1,0.1,0.1c0.1,0.1,0.1,0.1,0.2,0.2c0.1,0.1,0.1,0.1,0.2,0.2l0.3-0.2
			c0-0.1-0.1-0.1-0.1-0.2c-0.1-0.1-0.2-0.3-0.3-0.4L21.6,6.9z"/>
		<path class="st55" d="M15.4,2.7C15.4,2.7,15.4,2.7,15.4,2.7c0.2,0.1,0.4,0.1,0.7,0.3l0.1,0.2c0.1,0.3-0.1,0.6-0.2,0.8
			c-0.5,0.6-0.9,1.3-1.5,1.8c0.1,0,0.2,0,0.3,0.1c0.1,0,0.1,0,0.2,0.1c0.4-0.5,0.8-0.9,1.3-1.2c0.4,0,0.2,0.4,0.3,0.6
			c0,0.4,0.1,0.9,0,1.3c0,0,0,0,0,0c0,0,0,0,0,0c0,0,0,0,0,0c0.2,0.1,0.3,0.1,0.4,0.2c0,0,0.1,0,0.1,0.1c0,0,0,0,0,0c0,0,0,0,0,0
			c0-0.8,0.1-1.6,0.2-2.4c0.1-0.2,0.1-0.5,0.4-0.6c0.3,0,0.6,0.1,0.9,0.2c0,0,0,0,0,0l0.2-0.3c0.2,0.1,0.3,0.2,0.5,0.3
			c-0.4-0.3-0.7-0.6-1-0.9c-0.4-0.7-0.3-1.3,0-2c-0.2-0.1-0.4-0.2-0.6-0.2c-0.3,0.8-0.8,1.4-1.7,1.5c-0.3,0-0.6,0-0.8-0.1
			c0.1,0,0.3,0.1,0.4,0.1L15.4,2.7z"/>
		<radialGradient id="SVGID_62_" cx="5.3429" cy="2.3185" r="26.0771" gradientUnits="userSpaceOnUse">
			<stop  offset="0" style="stop-color:#E3CB9D"/>
			<stop  offset="1" style="stop-color:#AD8400"/>
		</radialGradient>
		<path class="st63" d="M18.6,4C18.6,4,18.6,4,18.6,4c0.2,0.1,0.3,0.1,0.3,0.2c0.1,0,0.2,0.1,0.2,0.1l0.2-0.3c0,0-0.1-0.1-0.1-0.1
			c-0.2-0.1-0.4-0.2-0.5-0.3L18.6,4z"/>
		<path class="st55" d="M18.6,4C18.6,4,18.6,4,18.6,4c0.2,0.1,0.3,0.1,0.3,0.2c0.1,0,0.2,0.1,0.2,0.1l0.2-0.3c0,0-0.1-0.1-0.1-0.1
			c-0.2-0.1-0.4-0.2-0.5-0.3L18.6,4z"/>
		<radialGradient id="SVGID_63_" cx="5.3412" cy="2.3171" r="26.0815" gradientUnits="userSpaceOnUse">
			<stop  offset="0" style="stop-color:#E3CB9D"/>
			<stop  offset="1" style="stop-color:#AD8400"/>
		</radialGradient>
		<polygon class="st64" points="17.1,6.8 17.1,6.8 17.1,6.8 		"/>
		<radialGradient id="SVGID_64_" cx="5.3407" cy="2.3173" r="26.0826" gradientUnits="userSpaceOnUse">
			<stop  offset="0" style="stop-color:#E3CB9D"/>
			<stop  offset="1" style="stop-color:#AD8400"/>
		</radialGradient>
		<polygon class="st65" points="17.1,6.8 17.1,6.8 17.1,6.8 		"/>
		<path class="st55" d="M11.3,2.6c-0.1,0-0.2,0-0.3,0.1c-0.1,0-0.2,0-0.2,0.1c0.4-0.1,0.8-0.2,1.2-0.1l0.1,0.1
			c0.2,0.2,0.1,0.6,0.1,0.9c-0.2,0.7-0.3,1.5-0.7,2.2c0.2,0,0.3-0.1,0.5-0.1c0.2-0.6,0.4-1.1,0.8-1.6c0.3-0.2,0.4,0.3,0.6,0.5
			c0.2,0.4,0.4,0.7,0.5,1.1c0.2,0,0.3,0,0.5,0.1c-0.3-0.7-0.6-1.5-0.7-2.3c0-0.2,0-0.5,0.1-0.7c0.3-0.2,0.9-0.1,1.3-0.1
			c0.1,0,0.2,0,0.2,0c-0.2-0.1-0.4-0.1-0.6-0.1l0-0.4c0.1,0,0.2,0,0.3,0c-0.4-0.1-0.7-0.3-1-0.4c-0.7-0.4-0.8-1.1-0.8-1.8
			c-0.2,0-0.5,0-0.6,0c0,0.8-0.2,1.6-1.1,2c-0.2,0.1-0.4,0.1-0.6,0.2c0.1,0,0.1,0,0.2,0L11.3,2.6z"/>
		<radialGradient id="SVGID_65_" cx="5.3427" cy="2.3188" r="26.0772" gradientUnits="userSpaceOnUse">
			<stop  offset="0" style="stop-color:#E3CB9D"/>
			<stop  offset="1" style="stop-color:#AD8400"/>
		</radialGradient>
		<path class="st66" d="M10.7,2.7c0,0,0.1,0,0.1,0c0.1,0,0.2,0,0.2-0.1c0.1,0,0.2,0,0.3-0.1l0-0.4c-0.1,0-0.1,0-0.2,0
			c-0.2,0.1-0.3,0.1-0.5,0.1L10.7,2.7z"/>
		<path class="st55" d="M10.7,2.7c0,0,0.1,0,0.1,0c0.1,0,0.2,0,0.2-0.1c0.1,0,0.2,0,0.3-0.1l0-0.4c-0.1,0-0.1,0-0.2,0
			c-0.2,0.1-0.3,0.1-0.5,0.1L10.7,2.7z"/>
		<radialGradient id="SVGID_66_" cx="5.3425" cy="2.3187" r="26.0781" gradientUnits="userSpaceOnUse">
			<stop  offset="0" style="stop-color:#E3CB9D"/>
			<stop  offset="1" style="stop-color:#AD8400"/>
		</radialGradient>
		<path class="st67" d="M14.8,2.5c0.2,0,0.4,0.1,0.6,0.1c0,0,0,0,0,0l0.1-0.3c-0.1,0-0.3-0.1-0.4-0.1c-0.1,0-0.2,0-0.3,0L14.8,2.5z"
			/>
		<path class="st55" d="M14.8,2.5c0.2,0,0.4,0.1,0.6,0.1c0,0,0,0,0,0l0.1-0.3c-0.1,0-0.3-0.1-0.4-0.1c-0.1,0-0.2,0-0.3,0L14.8,2.5z"
			/>
		<radialGradient id="SVGID_67_" cx="5.3428" cy="2.3191" r="26.0765" gradientUnits="userSpaceOnUse">
			<stop  offset="0" style="stop-color:#EEDEC0"/>
			<stop  offset="1" style="stop-color:#AD8400"/>
		</radialGradient>
		<path class="st68" d="M5.8,14.5C5.8,14.5,5.8,14.4,5.8,14.5C5.7,14.4,5.7,14.4,5.8,14.5C5.7,14.4,5.7,14.5,5.8,14.5
			C5.7,14.5,5.7,14.5,5.8,14.5z"/>
		<radialGradient id="SVGID_68_" cx="5.3429" cy="2.3198" r="26.0735" gradientUnits="userSpaceOnUse">
			<stop  offset="0" style="stop-color:#EEDEC0"/>
			<stop  offset="1" style="stop-color:#AD8400"/>
		</radialGradient>
		<polygon class="st69" points="6.8,8.9 6.8,8.9 6.8,8.9 		"/>
		<radialGradient id="SVGID_69_" cx="5.3429" cy="2.3192" r="26.0766" gradientUnits="userSpaceOnUse">
			<stop  offset="0" style="stop-color:#EEDEC0"/>
			<stop  offset="1" style="stop-color:#AD8400"/>
		</radialGradient>
		<path class="st70" d="M19.2,8.9C19.2,8.9,19.2,8.9,19.2,8.9C19.2,8.9,19.2,8.8,19.2,8.9C19.2,8.8,19.1,8.8,19.2,8.9
			C19.1,8.9,19.1,8.9,19.2,8.9z"/>
		<radialGradient id="SVGID_70_" cx="5.3425" cy="2.3195" r="26.0767" gradientUnits="userSpaceOnUse">
			<stop  offset="0" style="stop-color:#EEDEC0"/>
			<stop  offset="1" style="stop-color:#AD8400"/>
		</radialGradient>
		<path class="st71" d="M11.6,5.7C11.6,5.7,11.6,5.7,11.6,5.7C11.6,5.7,11.6,5.7,11.6,5.7C11.5,5.7,11.6,5.7,11.6,5.7
			C11.6,5.7,11.6,5.7,11.6,5.7z"/>
		<radialGradient id="SVGID_71_" cx="5.3427" cy="2.3189" r="26.0771" gradientUnits="userSpaceOnUse">
			<stop  offset="0" style="stop-color:#EEDEC0"/>
			<stop  offset="1" style="stop-color:#AD8400"/>
		</radialGradient>
		<path class="st72" d="M5.7,13.9C5.7,13.9,5.7,13.9,5.7,13.9c0,0.1,0,0.1,0,0.2c0,0.1,0,0.2,0,0.4c0,0,0,0,0,0l0,0
			c0,0.2,0,0.4,0.1,0.6c0,0,0,0,0,0c0,0,0,0,0,0c0,0,0,0,0,0c0,0,0,0,0,0c0,0.1,0.1,0.2,0.1,0.4c0.1,0.1,0.3,0.1,0.4,0.2
			C6,14.8,5.8,13.9,5.8,13c0-4,3.2-7.2,7.2-7.2c4,0,7.2,3.2,7.2,7.2c0,0.9-0.2,1.8-0.5,2.6c0.1-0.1,0.3-0.1,0.4-0.2
			c0-0.1,0.1-0.3,0.1-0.4c0,0,0,0-0.1-0.1l0,0.1c0,0,0,0,0,0c0-0.1,0.1-0.1,0.1-0.2c0.1-0.1,0.1-0.2,0.1-0.4c0,0,0,0,0,0
			c0,0,0,0,0-0.1c0,0,0,0-0.1,0c0,0,0,0,0,0l0,0c0.1-0.2,0.1-0.4,0.1-0.6c0,0,0,0,0,0c0,0,0,0,0,0c0,0,0,0,0,0c0,0,0,0,0.1,0
			c0-0.3,0.1-0.6,0.1-0.9c0-0.3,0-0.6-0.1-0.9c0,0-0.1,0-0.1,0l0,0.1c0,0,0,0,0,0c0-0.1,0-0.1,0-0.2c0-0.1,0-0.3-0.1-0.4
			c0,0,0,0,0.1,0c0,0,0-0.1,0-0.1c0,0,0,0,0,0c0,0,0,0,0,0.1l0,0c0-0.2,0-0.4-0.1-0.6c0,0,0,0,0,0c0,0,0,0,0,0c0,0,0,0,0,0
			c0,0,0,0,0,0c-0.2-0.6-0.4-1.1-0.7-1.7c0,0-0.1,0-0.1,0l0,0.1c0,0,0,0,0,0c0-0.1,0-0.1-0.1-0.2c0-0.1-0.1-0.2-0.2-0.3l0,0
			c-0.1-0.2-0.2-0.3-0.3-0.5c0,0,0,0,0,0c0,0,0,0,0,0c0,0,0,0,0,0c0,0,0,0,0,0c-0.4-0.5-0.8-0.9-1.3-1.3c0,0,0,0-0.1,0l0.1,0
			c0,0,0,0,0,0c0,0-0.1-0.1-0.1-0.1c-0.1-0.1-0.2-0.1-0.3-0.2l0,0c0,0,0,0,0,0c0,0,0,0,0,0c0,0,0,0,0,0c0,0,0,0-0.1-0.1
			C16.4,6.4,15.7,6,15,5.8c0,0,0,0,0,0l0.1,0c0,0,0,0,0,0c-0.1,0-0.1-0.1-0.2-0.1c0,0,0,0-0.1,0c-0.1,0-0.2,0-0.3-0.1c0,0,0,0,0,0
			c0,0,0,0,0,0l0,0c-0.2-0.1-0.4-0.1-0.6-0.1c0,0,0,0,0,0c0,0,0,0,0,0c0,0,0,0,0,0c0,0,0,0,0,0c-0.3,0-0.6-0.1-0.9-0.1
			c-0.3,0-0.6,0-0.9,0.1c0,0,0,0.1,0,0.1l0.1,0c0,0,0,0,0,0c-0.1,0-0.1,0-0.2,0c-0.1,0-0.2,0-0.3,0l0,0c-0.2,0-0.4,0-0.6,0.1
			c0,0,0,0,0,0c0,0,0,0,0,0c0,0,0,0,0,0c0,0,0,0,0,0C10.4,6,9.9,6.2,9.4,6.5c0,0,0,0.1,0,0.1l0.1,0c0,0,0,0,0,0
			c-0.1,0-0.1,0-0.2,0.1C9.1,6.7,9,6.8,8.9,6.9c0,0,0,0,0-0.1c0,0-0.1,0-0.1,0.1c0,0,0,0,0,0c0,0,0,0,0,0l0,0C8.7,6.9,8.6,7,8.4,7.2
			c0,0,0,0,0,0c0,0,0,0,0,0c0,0,0,0,0,0c0,0,0,0,0,0C7.9,7.5,7.5,8,7.1,8.5c0,0,0,0,0,0.1l0-0.1c0,0,0,0,0,0c0,0-0.1,0.1-0.1,0.1
			C7,8.7,6.9,8.8,6.9,8.9l0,0C6.8,9,6.6,9.1,6.6,9.3c0,0,0,0,0,0c0,0,0,0,0,0c0,0,0,0,0,0c0,0,0,0,0,0C6.2,9.9,6,10.4,5.8,11
			c0,0,0,0,0.1,0l0-0.1c0,0,0,0,0,0c0,0.1-0.1,0.1-0.1,0.2c-0.1,0.1-0.1,0.2-0.1,0.4c0,0,0,0,0,0c0,0,0,0,0,0.1c0,0,0,0,0.1,0
			c0,0,0,0,0,0l0,0c-0.1,0.2-0.1,0.4-0.1,0.6c0,0,0,0,0,0c0,0,0,0,0,0c0,0,0,0,0,0c0,0,0,0,0,0c0,0.3-0.1,0.6-0.1,0.9
			C5.6,13.3,5.6,13.6,5.7,13.9C5.6,13.9,5.7,13.9,5.7,13.9L5.7,13.9z"/>
		<radialGradient id="SVGID_72_" cx="5.3427" cy="2.3188" r="26.0772" gradientUnits="userSpaceOnUse">
			<stop  offset="0" style="stop-color:#E3CB9D"/>
			<stop  offset="1" style="stop-color:#AD8400"/>
		</radialGradient>
		<path class="st73" d="M8.9,6.9C9,6.8,9.1,6.7,9.2,6.7c0.1,0,0.1,0,0.2-0.1c0,0,0,0,0,0l-0.1,0c0,0,0-0.1,0-0.1
			C9.2,6.6,9.1,6.7,8.9,6.9C8.9,6.8,8.9,6.8,8.9,6.9z"/>
		<radialGradient id="SVGID_73_" cx="5.3428" cy="2.3189" r="26.077" gradientUnits="userSpaceOnUse">
			<stop  offset="0" style="stop-color:#EEDEC0"/>
			<stop  offset="1" style="stop-color:#AD8400"/>
		</radialGradient>
		<path class="st74" d="M8.9,6.9C9,6.8,9.1,6.7,9.2,6.7c0.1,0,0.1,0,0.2-0.1c0,0,0,0,0,0l-0.1,0c0,0,0-0.1,0-0.1
			C9.2,6.6,9.1,6.7,8.9,6.9C8.9,6.8,8.9,6.8,8.9,6.9z"/>
		<radialGradient id="SVGID_74_" cx="5.3427" cy="2.3187" r="26.0774" gradientUnits="userSpaceOnUse">
			<stop  offset="0" style="stop-color:#E3CB9D"/>
			<stop  offset="1" style="stop-color:#AD8400"/>
		</radialGradient>
		<path class="st75" d="M11.6,5.7C11.6,5.7,11.6,5.7,11.6,5.7C11.6,5.7,11.5,5.7,11.6,5.7c-0.2,0-0.4,0-0.6,0.1c0,0,0,0,0,0
			c0,0,0,0,0,0c0,0,0,0,0,0c0,0,0,0,0,0C11.2,5.8,11.4,5.8,11.6,5.7L11.6,5.7C11.6,5.7,11.6,5.8,11.6,5.7
			C11.6,5.8,11.6,5.7,11.6,5.7z"/>
		<radialGradient id="SVGID_75_" cx="5.3428" cy="2.3188" r="26.0771" gradientUnits="userSpaceOnUse">
			<stop  offset="0" style="stop-color:#EEDEC0"/>
			<stop  offset="1" style="stop-color:#AD8400"/>
		</radialGradient>
		<path class="st76" d="M11.6,5.7C11.6,5.7,11.6,5.7,11.6,5.7C11.6,5.7,11.5,5.7,11.6,5.7c-0.2,0-0.4,0-0.6,0.1c0,0,0,0,0,0
			c0,0,0,0,0,0c0,0,0,0,0,0c0,0,0,0,0,0C11.2,5.8,11.4,5.8,11.6,5.7L11.6,5.7C11.6,5.7,11.6,5.8,11.6,5.7
			C11.6,5.8,11.6,5.7,11.6,5.7z"/>
		<radialGradient id="SVGID_76_" cx="5.3428" cy="2.3185" r="26.0774" gradientUnits="userSpaceOnUse">
			<stop  offset="0" style="stop-color:#E3CB9D"/>
			<stop  offset="1" style="stop-color:#AD8400"/>
		</radialGradient>
		<path class="st77" d="M6.8,8.9C6.8,8.9,6.8,8.9,6.8,8.9C6.9,8.9,6.9,8.9,6.8,8.9L6.8,8.9C6.9,8.8,7,8.7,7.1,8.6
			c0,0,0.1-0.1,0.1-0.1c0,0,0,0,0,0l0,0.1c0,0,0,0,0-0.1C7,8.6,6.9,8.7,6.8,8.9C6.8,8.9,6.8,8.9,6.8,8.9z"/>
		<radialGradient id="SVGID_77_" cx="5.3428" cy="2.3189" r="26.077" gradientUnits="userSpaceOnUse">
			<stop  offset="0" style="stop-color:#EEDEC0"/>
			<stop  offset="1" style="stop-color:#AD8400"/>
		</radialGradient>
		<path class="st78" d="M6.8,8.9C6.8,8.9,6.8,8.9,6.8,8.9C6.9,8.9,6.9,8.9,6.8,8.9L6.8,8.9C6.9,8.8,7,8.7,7.1,8.6
			c0,0,0.1-0.1,0.1-0.1c0,0,0,0,0,0l0,0.1c0,0,0,0,0-0.1C7,8.6,6.9,8.7,6.8,8.9C6.8,8.9,6.8,8.9,6.8,8.9z"/>
		<radialGradient id="SVGID_78_" cx="5.3427" cy="2.3185" r="26.0774" gradientUnits="userSpaceOnUse">
			<stop  offset="0" style="stop-color:#E3CB9D"/>
			<stop  offset="1" style="stop-color:#AD8400"/>
		</radialGradient>
		<path class="st79" d="M8.4,7.2C8.4,7.2,8.4,7.2,8.4,7.2C8.4,7.2,8.4,7.2,8.4,7.2C8.4,7.2,8.4,7.2,8.4,7.2C8.6,7,8.7,6.9,8.9,6.9
			l0,0c0,0,0,0,0,0c0,0,0,0,0,0C8.7,7,8.5,7.1,8.4,7.2C8.4,7.2,8.4,7.2,8.4,7.2z"/>
		<radialGradient id="SVGID_79_" cx="5.3428" cy="2.3189" r="26.077" gradientUnits="userSpaceOnUse">
			<stop  offset="0" style="stop-color:#EEDEC0"/>
			<stop  offset="1" style="stop-color:#AD8400"/>
		</radialGradient>
		<path class="st80" d="M8.4,7.2C8.4,7.2,8.4,7.2,8.4,7.2C8.4,7.2,8.4,7.2,8.4,7.2C8.4,7.2,8.4,7.2,8.4,7.2C8.6,7,8.7,6.9,8.9,6.9
			l0,0c0,0,0,0,0,0c0,0,0,0,0,0C8.7,7,8.5,7.1,8.4,7.2C8.4,7.2,8.4,7.2,8.4,7.2z"/>
		<radialGradient id="SVGID_80_" cx="5.3428" cy="2.3185" r="26.0779" gradientUnits="userSpaceOnUse">
			<stop  offset="0" style="stop-color:#E3CB9D"/>
			<stop  offset="1" style="stop-color:#AD8400"/>
		</radialGradient>
		<path class="st81" d="M5.7,11.5c0-0.1,0-0.2,0.1-0.4c0-0.1,0.1-0.1,0.1-0.2c0,0,0,0,0,0l0,0.1c0,0,0,0-0.1,0
			C5.8,11.2,5.7,11.3,5.7,11.5C5.7,11.5,5.7,11.5,5.7,11.5z"/>
		<radialGradient id="SVGID_81_" cx="5.3428" cy="2.3188" r="26.0771" gradientUnits="userSpaceOnUse">
			<stop  offset="0" style="stop-color:#EEDEC0"/>
			<stop  offset="1" style="stop-color:#AD8400"/>
		</radialGradient>
		<path class="st82" d="M5.7,11.5c0-0.1,0-0.2,0.1-0.4c0-0.1,0.1-0.1,0.1-0.2c0,0,0,0,0,0l0,0.1c0,0,0,0-0.1,0
			C5.8,11.2,5.7,11.3,5.7,11.5C5.7,11.5,5.7,11.5,5.7,11.5z"/>
		<radialGradient id="SVGID_82_" cx="5.3428" cy="2.3186" r="26.0777" gradientUnits="userSpaceOnUse">
			<stop  offset="0" style="stop-color:#E3CB9D"/>
			<stop  offset="1" style="stop-color:#AD8400"/>
		</radialGradient>
		<path class="st83" d="M6.8,8.9C6.8,8.9,6.8,8.9,6.8,8.9C6.7,9,6.6,9.2,6.5,9.3c0,0,0,0,0,0c0,0,0,0,0,0c0,0,0,0,0,0c0,0,0,0,0,0
			C6.6,9.1,6.8,9,6.8,8.9L6.8,8.9C6.9,8.9,6.8,8.9,6.8,8.9C6.8,8.9,6.8,8.9,6.8,8.9z"/>
		<radialGradient id="SVGID_83_" cx="5.3428" cy="2.3189" r="26.0769" gradientUnits="userSpaceOnUse">
			<stop  offset="0" style="stop-color:#EEDEC0"/>
			<stop  offset="1" style="stop-color:#AD8400"/>
		</radialGradient>
		<path class="st84" d="M6.8,8.9C6.8,8.9,6.8,8.9,6.8,8.9C6.7,9,6.6,9.2,6.5,9.3c0,0,0,0,0,0c0,0,0,0,0,0c0,0,0,0,0,0c0,0,0,0,0,0
			C6.6,9.1,6.8,9,6.8,8.9L6.8,8.9C6.9,8.9,6.8,8.9,6.8,8.9C6.8,8.9,6.8,8.9,6.8,8.9z"/>
		<radialGradient id="SVGID_84_" cx="5.3427" cy="2.3185" r="26.0774" gradientUnits="userSpaceOnUse">
			<stop  offset="0" style="stop-color:#E3CB9D"/>
			<stop  offset="1" style="stop-color:#AD8400"/>
		</radialGradient>
		<path class="st85" d="M6.8,8.9C6.8,8.9,6.8,8.9,6.8,8.9C6.8,8.9,6.8,8.9,6.8,8.9C6.8,8.9,6.9,8.9,6.8,8.9L6.8,8.9
			C6.9,8.9,6.9,8.9,6.8,8.9z"/>
		<radialGradient id="SVGID_85_" cx="5.3428" cy="2.3185" r="26.0778" gradientUnits="userSpaceOnUse">
			<stop  offset="0" style="stop-color:#E3CB9D"/>
			<stop  offset="1" style="stop-color:#AD8400"/>
		</radialGradient>
		<path class="st86" d="M6.8,8.9C6.8,8.9,6.8,8.9,6.8,8.9C6.8,8.9,6.8,8.9,6.8,8.9C6.8,8.9,6.9,8.9,6.8,8.9L6.8,8.9
			C6.9,8.9,6.9,8.9,6.8,8.9z"/>
		<radialGradient id="SVGID_86_" cx="5.3428" cy="2.3189" r="26.077" gradientUnits="userSpaceOnUse">
			<stop  offset="0" style="stop-color:#EEDEC0"/>
			<stop  offset="1" style="stop-color:#AD8400"/>
		</radialGradient>
		<path class="st87" d="M6.8,8.9C6.8,8.9,6.8,8.9,6.8,8.9C6.8,8.9,6.8,8.9,6.8,8.9C6.8,8.9,6.9,8.9,6.8,8.9L6.8,8.9
			C6.9,8.9,6.9,8.9,6.8,8.9z"/>
		<radialGradient id="SVGID_87_" cx="5.3428" cy="2.3179" r="26.079" gradientUnits="userSpaceOnUse">
			<stop  offset="0" style="stop-color:#E3CB9D"/>
			<stop  offset="1" style="stop-color:#AD8400"/>
		</radialGradient>
		<path class="st88" d="M5.7,12.1C5.7,12.1,5.7,12.1,5.7,12.1C5.7,12.1,5.7,12.1,5.7,12.1c0-0.2,0-0.4,0.1-0.6l0,0c0,0,0,0,0,0
			c0,0,0,0-0.1,0C5.7,11.8,5.6,11.9,5.7,12.1C5.6,12.1,5.6,12.1,5.7,12.1C5.7,12.1,5.7,12.1,5.7,12.1z"/>
		<radialGradient id="SVGID_88_" cx="5.3428" cy="2.3189" r="26.077" gradientUnits="userSpaceOnUse">
			<stop  offset="0" style="stop-color:#EEDEC0"/>
			<stop  offset="1" style="stop-color:#AD8400"/>
		</radialGradient>
		<path class="st89" d="M5.7,12.1C5.7,12.1,5.7,12.1,5.7,12.1C5.7,12.1,5.7,12.1,5.7,12.1c0-0.2,0-0.4,0.1-0.6l0,0c0,0,0,0,0,0
			c0,0,0,0-0.1,0C5.7,11.8,5.6,11.9,5.7,12.1C5.6,12.1,5.6,12.1,5.7,12.1C5.7,12.1,5.7,12.1,5.7,12.1z"/>
		<radialGradient id="SVGID_89_" cx="5.3428" cy="2.3178" r="26.0793" gradientUnits="userSpaceOnUse">
			<stop  offset="0" style="stop-color:#E3CB9D"/>
			<stop  offset="1" style="stop-color:#AD8400"/>
		</radialGradient>
		<path class="st90" d="M5.7,14.4c0-0.1,0-0.2,0-0.4c0-0.1,0-0.1,0-0.2c0,0,0,0,0,0l0,0.1c0,0-0.1,0-0.1,0
			C5.6,14.1,5.7,14.2,5.7,14.4C5.7,14.4,5.7,14.4,5.7,14.4C5.8,14.4,5.7,14.4,5.7,14.4z"/>
		<radialGradient id="SVGID_90_" cx="5.3428" cy="2.3188" r="26.0772" gradientUnits="userSpaceOnUse">
			<stop  offset="0" style="stop-color:#EEDEC0"/>
			<stop  offset="1" style="stop-color:#AD8400"/>
		</radialGradient>
		<path class="st91" d="M5.7,14.4c0-0.1,0-0.2,0-0.4c0-0.1,0-0.1,0-0.2c0,0,0,0,0,0l0,0.1c0,0-0.1,0-0.1,0
			C5.6,14.1,5.7,14.2,5.7,14.4C5.7,14.4,5.7,14.4,5.7,14.4C5.8,14.4,5.7,14.4,5.7,14.4z"/>
		<radialGradient id="SVGID_91_" cx="5.3427" cy="2.3189" r="26.0768" gradientUnits="userSpaceOnUse">
			<stop  offset="0" style="stop-color:#E3CB9D"/>
			<stop  offset="1" style="stop-color:#AD8400"/>
		</radialGradient>
		<path class="st92" d="M5.9,15C5.9,15,5.9,15,5.9,15C5.9,15,5.9,15,5.9,15c-0.1-0.2-0.1-0.4-0.1-0.6l0,0c0,0,0,0,0,0c0,0,0,0,0,0
			c0,0,0,0,0,0c0,0,0,0,0,0c0,0,0,0,0,0C5.7,14.7,5.8,14.8,5.9,15C5.8,15,5.9,15,5.9,15C5.9,15,5.9,15,5.9,15z"/>
		<radialGradient id="SVGID_92_" cx="5.3428" cy="2.3189" r="26.0769" gradientUnits="userSpaceOnUse">
			<stop  offset="0" style="stop-color:#EEDEC0"/>
			<stop  offset="1" style="stop-color:#AD8400"/>
		</radialGradient>
		<path class="st93" d="M5.9,15C5.9,15,5.9,15,5.9,15C5.9,15,5.9,15,5.9,15c-0.1-0.2-0.1-0.4-0.1-0.6l0,0c0,0,0,0,0,0c0,0,0,0,0,0
			c0,0,0,0,0,0c0,0,0,0,0,0c0,0,0,0,0,0C5.7,14.7,5.8,14.8,5.9,15C5.8,15,5.9,15,5.9,15C5.9,15,5.9,15,5.9,15z"/>
		<radialGradient id="SVGID_93_" cx="5.343" cy="2.317" r="26.0809" gradientUnits="userSpaceOnUse">
			<stop  offset="0" style="stop-color:#E3CB9D"/>
			<stop  offset="1" style="stop-color:#AD8400"/>
		</radialGradient>
		<path class="st94" d="M5.7,14.4C5.7,14.4,5.8,14.4,5.7,14.4C5.8,14.4,5.8,14.4,5.7,14.4C5.8,14.4,5.8,14.4,5.7,14.4z"/>
		<radialGradient id="SVGID_94_" cx="5.3429" cy="2.318" r="26.0788" gradientUnits="userSpaceOnUse">
			<stop  offset="0" style="stop-color:#E3CB9D"/>
			<stop  offset="1" style="stop-color:#AD8400"/>
		</radialGradient>
		<path class="st95" d="M5.7,14.4C5.7,14.4,5.8,14.4,5.7,14.4C5.8,14.4,5.8,14.4,5.7,14.4C5.8,14.4,5.8,14.4,5.7,14.4z"/>
		<radialGradient id="SVGID_95_" cx="5.343" cy="2.318" r="26.0788" gradientUnits="userSpaceOnUse">
			<stop  offset="0" style="stop-color:#EEDEC0"/>
			<stop  offset="1" style="stop-color:#AD8400"/>
		</radialGradient>
		<path class="st96" d="M5.7,14.4C5.7,14.4,5.8,14.4,5.7,14.4C5.8,14.4,5.8,14.4,5.7,14.4C5.8,14.4,5.8,14.4,5.7,14.4z"/>
		<radialGradient id="SVGID_96_" cx="5.3436" cy="2.3192" r="26.076" gradientUnits="userSpaceOnUse">
			<stop  offset="0" style="stop-color:#E3CB9D"/>
			<stop  offset="1" style="stop-color:#AD8400"/>
		</radialGradient>
		<path class="st97" d="M20.2,14.8c0,0.1-0.1,0.1-0.1,0.2c0,0,0,0,0,0l0-0.1c0,0,0,0,0.1,0.1c0-0.2,0.1-0.3,0.1-0.5c0,0,0,0,0,0
			C20.3,14.5,20.2,14.7,20.2,14.8z"/>
		<radialGradient id="SVGID_97_" cx="5.3429" cy="2.3188" r="26.077" gradientUnits="userSpaceOnUse">
			<stop  offset="0" style="stop-color:#EEDEC0"/>
			<stop  offset="1" style="stop-color:#AD8400"/>
		</radialGradient>
		<path class="st98" d="M20.2,14.8c0,0.1-0.1,0.1-0.1,0.2c0,0,0,0,0,0l0-0.1c0,0,0,0,0.1,0.1c0-0.2,0.1-0.3,0.1-0.5c0,0,0,0,0,0
			C20.3,14.5,20.2,14.7,20.2,14.8z"/>
		<radialGradient id="SVGID_98_" cx="5.3415" cy="2.3187" r="26.0783" gradientUnits="userSpaceOnUse">
			<stop  offset="0" style="stop-color:#E3CB9D"/>
			<stop  offset="1" style="stop-color:#AD8400"/>
		</radialGradient>
		<path class="st99" d="M20.4,13.9C20.4,13.9,20.4,13.9,20.4,13.9C20.4,13.9,20.4,13.9,20.4,13.9c0,0.2,0,0.4-0.1,0.6l0,0
			c0,0,0,0,0,0c0,0,0,0,0.1,0C20.4,14.2,20.4,14.1,20.4,13.9C20.4,13.9,20.4,13.9,20.4,13.9C20.4,13.9,20.4,13.9,20.4,13.9z"/>
		<radialGradient id="SVGID_99_" cx="5.3426" cy="2.3189" r="26.0771" gradientUnits="userSpaceOnUse">
			<stop  offset="0" style="stop-color:#EEDEC0"/>
			<stop  offset="1" style="stop-color:#AD8400"/>
		</radialGradient>
		<path class="st100" d="M20.4,13.9C20.4,13.9,20.4,13.9,20.4,13.9C20.4,13.9,20.4,13.9,20.4,13.9c0,0.2,0,0.4-0.1,0.6l0,0
			c0,0,0,0,0,0c0,0,0,0,0.1,0C20.4,14.2,20.4,14.1,20.4,13.9C20.4,13.9,20.4,13.9,20.4,13.9C20.4,13.9,20.4,13.9,20.4,13.9z"/>
		<radialGradient id="SVGID_100_" cx="5.3416" cy="2.3186" r="26.0785" gradientUnits="userSpaceOnUse">
			<stop  offset="0" style="stop-color:#E3CB9D"/>
			<stop  offset="1" style="stop-color:#AD8400"/>
		</radialGradient>
		<path class="st101" d="M20.3,11.9c0,0.1,0,0.1,0,0.2c0,0,0,0,0,0l0-0.1c0,0,0.1,0,0.1,0c0-0.2,0-0.3-0.1-0.5c0,0,0,0-0.1,0
			C20.3,11.7,20.3,11.8,20.3,11.9z"/>
		<radialGradient id="SVGID_101_" cx="5.3426" cy="2.3188" r="26.0773" gradientUnits="userSpaceOnUse">
			<stop  offset="0" style="stop-color:#EEDEC0"/>
			<stop  offset="1" style="stop-color:#AD8400"/>
		</radialGradient>
		<path class="st102" d="M20.3,11.9c0,0.1,0,0.1,0,0.2c0,0,0,0,0,0l0-0.1c0,0,0.1,0,0.1,0c0-0.2,0-0.3-0.1-0.5c0,0,0,0-0.1,0
			C20.3,11.7,20.3,11.8,20.3,11.9z"/>
		<radialGradient id="SVGID_102_" cx="5.3432" cy="2.3184" r="26.0763" gradientUnits="userSpaceOnUse">
			<stop  offset="0" style="stop-color:#E3CB9D"/>
			<stop  offset="1" style="stop-color:#AD8400"/>
		</radialGradient>
		<path class="st103" d="M19.2,8.9C19.2,8.9,19.2,8.9,19.2,8.9L19.2,8.9c0.1,0.1,0.1,0.2,0.2,0.3c0,0.1,0,0.1,0.1,0.2c0,0,0,0,0,0
			l0-0.1c0,0,0.1,0,0.1,0C19.4,9.2,19.3,9,19.2,8.9C19.2,8.9,19.2,8.9,19.2,8.9z"/>
		<radialGradient id="SVGID_103_" cx="5.3428" cy="2.3189" r="26.077" gradientUnits="userSpaceOnUse">
			<stop  offset="0" style="stop-color:#EEDEC0"/>
			<stop  offset="1" style="stop-color:#AD8400"/>
		</radialGradient>
		<path class="st104" d="M19.2,8.9C19.2,8.9,19.2,8.9,19.2,8.9L19.2,8.9c0.1,0.1,0.1,0.2,0.2,0.3c0,0.1,0,0.1,0.1,0.2c0,0,0,0,0,0
			l0-0.1c0,0,0.1,0,0.1,0C19.4,9.2,19.3,9,19.2,8.9C19.2,8.9,19.2,8.9,19.2,8.9z"/>
		<radialGradient id="SVGID_104_" cx="5.3436" cy="2.3183" r="26.0759" gradientUnits="userSpaceOnUse">
			<stop  offset="0" style="stop-color:#E3CB9D"/>
			<stop  offset="1" style="stop-color:#AD8400"/>
		</radialGradient>
		<path class="st105" d="M20.1,11C20.1,11,20.1,11,20.1,11C20.1,11,20.1,11,20.1,11C20.1,11,20.1,11,20.1,11
			c0.1,0.2,0.1,0.4,0.1,0.6l0,0c0,0,0,0,0-0.1c0,0,0,0,0,0C20.3,11.3,20.2,11.2,20.1,11C20.2,11,20.1,11,20.1,11z"/>
		<radialGradient id="SVGID_105_" cx="5.3431" cy="2.3188" r="26.0766" gradientUnits="userSpaceOnUse">
			<stop  offset="0" style="stop-color:#EEDEC0"/>
			<stop  offset="1" style="stop-color:#AD8400"/>
		</radialGradient>
		<path class="st106" d="M20.1,11C20.1,11,20.1,11,20.1,11C20.1,11,20.1,11,20.1,11C20.1,11,20.1,11,20.1,11
			c0.1,0.2,0.1,0.4,0.1,0.6l0,0c0,0,0,0,0-0.1c0,0,0,0,0,0C20.3,11.3,20.2,11.2,20.1,11C20.2,11,20.1,11,20.1,11z"/>
		<radialGradient id="SVGID_106_" cx="5.3392" cy="2.3197" r="26.0835" gradientUnits="userSpaceOnUse">
			<stop  offset="0" style="stop-color:#E3CB9D"/>
			<stop  offset="1" style="stop-color:#AD8400"/>
		</radialGradient>
		<polygon class="st107" points="17.1,6.8 17.1,6.8 17.1,6.8 		"/>
		<radialGradient id="SVGID_107_" cx="5.339" cy="2.3201" r="26.0833" gradientUnits="userSpaceOnUse">
			<stop  offset="0" style="stop-color:#EEDEC0"/>
			<stop  offset="1" style="stop-color:#AD8400"/>
		</radialGradient>
		<polygon class="st108" points="17.1,6.8 17.1,6.8 17.1,6.8 		"/>
		<radialGradient id="SVGID_108_" cx="5.3428" cy="2.3186" r="26.0772" gradientUnits="userSpaceOnUse">
			<stop  offset="0" style="stop-color:#E3CB9D"/>
			<stop  offset="1" style="stop-color:#AD8400"/>
		</radialGradient>
		<path class="st109" d="M19.2,8.9C19.1,8.9,19.1,8.9,19.2,8.9C19.1,8.8,19.2,8.8,19.2,8.9c-0.1-0.2-0.2-0.3-0.3-0.5c0,0,0,0,0,0
			c0,0,0,0,0,0c0,0,0,0,0,0c0,0,0,0,0,0C19,8.6,19.1,8.7,19.2,8.9L19.2,8.9C19.2,8.9,19.2,8.9,19.2,8.9C19.2,8.9,19.2,8.9,19.2,8.9z
			"/>
		<radialGradient id="SVGID_109_" cx="5.3427" cy="2.3189" r="26.077" gradientUnits="userSpaceOnUse">
			<stop  offset="0" style="stop-color:#EEDEC0"/>
			<stop  offset="1" style="stop-color:#AD8400"/>
		</radialGradient>
		<path class="st110" d="M19.2,8.9C19.1,8.9,19.1,8.9,19.2,8.9C19.1,8.8,19.2,8.8,19.2,8.9c-0.1-0.2-0.2-0.3-0.3-0.5c0,0,0,0,0,0
			c0,0,0,0,0,0c0,0,0,0,0,0c0,0,0,0,0,0C19,8.6,19.1,8.7,19.2,8.9L19.2,8.9C19.2,8.9,19.2,8.9,19.2,8.9C19.2,8.9,19.2,8.9,19.2,8.9z
			"/>
		<radialGradient id="SVGID_110_" cx="5.343" cy="2.3185" r="26.077" gradientUnits="userSpaceOnUse">
			<stop  offset="0" style="stop-color:#E3CB9D"/>
			<stop  offset="1" style="stop-color:#AD8400"/>
		</radialGradient>
		<path class="st111" d="M17.2,6.8L17.2,6.8c0.1,0.1,0.2,0.1,0.2,0.2c0,0,0.1,0.1,0.1,0.1c0,0,0,0,0,0l-0.1,0c0,0,0,0,0.1,0
			C17.4,7,17.3,6.9,17.2,6.8C17.1,6.8,17.2,6.8,17.2,6.8z"/>
		<radialGradient id="SVGID_111_" cx="5.3428" cy="2.3189" r="26.0768" gradientUnits="userSpaceOnUse">
			<stop  offset="0" style="stop-color:#EEDEC0"/>
			<stop  offset="1" style="stop-color:#AD8400"/>
		</radialGradient>
		<path class="st112" d="M17.2,6.8L17.2,6.8c0.1,0.1,0.2,0.1,0.2,0.2c0,0,0.1,0.1,0.1,0.1c0,0,0,0,0,0l-0.1,0c0,0,0,0,0.1,0
			C17.4,7,17.3,6.9,17.2,6.8C17.1,6.8,17.2,6.8,17.2,6.8z"/>
		<radialGradient id="SVGID_112_" cx="5.3426" cy="2.3177" r="26.0777" gradientUnits="userSpaceOnUse">
			<stop  offset="0" style="stop-color:#E3CB9D"/>
			<stop  offset="1" style="stop-color:#AD8400"/>
		</radialGradient>
		<path class="st113" d="M19.2,8.9C19.2,8.9,19.2,8.9,19.2,8.9C19.2,8.9,19.2,8.9,19.2,8.9L19.2,8.9C19.2,8.9,19.2,8.9,19.2,8.9z"/>
		<radialGradient id="SVGID_113_" cx="5.3423" cy="2.3179" r="26.0786" gradientUnits="userSpaceOnUse">
			<stop  offset="0" style="stop-color:#E3CB9D"/>
			<stop  offset="1" style="stop-color:#AD8400"/>
		</radialGradient>
		<path class="st114" d="M19.2,8.9C19.2,8.9,19.2,8.9,19.2,8.9C19.2,8.9,19.2,8.9,19.2,8.9L19.2,8.9C19.2,8.9,19.2,8.9,19.2,8.9z"/>
		<radialGradient id="SVGID_114_" cx="5.3421" cy="2.3183" r="26.0784" gradientUnits="userSpaceOnUse">
			<stop  offset="0" style="stop-color:#EEDEC0"/>
			<stop  offset="1" style="stop-color:#AD8400"/>
		</radialGradient>
		<path class="st115" d="M19.2,8.9C19.2,8.9,19.2,8.9,19.2,8.9C19.2,8.9,19.2,8.9,19.2,8.9L19.2,8.9C19.2,8.9,19.2,8.9,19.2,8.9z"/>
		<radialGradient id="SVGID_115_" cx="5.3425" cy="2.3187" r="26.078" gradientUnits="userSpaceOnUse">
			<stop  offset="0" style="stop-color:#E3CB9D"/>
			<stop  offset="1" style="stop-color:#AD8400"/>
		</radialGradient>
		<path class="st116" d="M14.8,5.8c0.1,0,0.1,0.1,0.2,0.1c0,0,0,0,0,0l-0.1,0c0,0,0,0,0,0C14.9,5.8,14.8,5.8,14.8,5.8
			C14.8,5.8,14.8,5.8,14.8,5.8z"/>
		<radialGradient id="SVGID_116_" cx="5.3428" cy="2.3189" r="26.0768" gradientUnits="userSpaceOnUse">
			<stop  offset="0" style="stop-color:#EEDEC0"/>
			<stop  offset="1" style="stop-color:#AD8400"/>
		</radialGradient>
		<path class="st117" d="M14.8,5.8c0.1,0,0.1,0.1,0.2,0.1c0,0,0,0,0,0l-0.1,0c0,0,0,0,0,0C14.9,5.8,14.8,5.8,14.8,5.8
			C14.8,5.8,14.8,5.8,14.8,5.8z"/>
		<radialGradient id="SVGID_117_" cx="5.3428" cy="2.3186" r="26.0776" gradientUnits="userSpaceOnUse">
			<stop  offset="0" style="stop-color:#E3CB9D"/>
			<stop  offset="1" style="stop-color:#AD8400"/>
		</radialGradient>
		<path class="st118" d="M17.1,6.9L17.1,6.9C17.1,6.8,17.1,6.8,17.1,6.9C17.1,6.8,17.1,6.9,17.1,6.9z"/>
		<radialGradient id="SVGID_118_" cx="5.3431" cy="2.3188" r="26.0764" gradientUnits="userSpaceOnUse">
			<stop  offset="0" style="stop-color:#EEDEC0"/>
			<stop  offset="1" style="stop-color:#AD8400"/>
		</radialGradient>
		<path class="st119" d="M17.1,6.9L17.1,6.9C17.1,6.8,17.1,6.8,17.1,6.9C17.1,6.8,17.1,6.9,17.1,6.9z"/>
		<radialGradient id="SVGID_119_" cx="5.3425" cy="2.3185" r="26.0782" gradientUnits="userSpaceOnUse">
			<stop  offset="0" style="stop-color:#E3CB9D"/>
			<stop  offset="1" style="stop-color:#AD8400"/>
		</radialGradient>
		<path class="st120" d="M17,6.8C17.1,6.8,17.1,6.8,17,6.8C17.1,6.8,17.1,6.8,17,6.8C17.1,6.8,17.1,6.8,17,6.8z"/>
		<radialGradient id="SVGID_120_" cx="5.3429" cy="2.3187" r="26.0769" gradientUnits="userSpaceOnUse">
			<stop  offset="0" style="stop-color:#EEDEC0"/>
			<stop  offset="1" style="stop-color:#AD8400"/>
		</radialGradient>
		<path class="st121" d="M17,6.8C17.1,6.8,17.1,6.8,17,6.8C17.1,6.8,17.1,6.8,17,6.8C17.1,6.8,17.1,6.8,17,6.8z"/>
		<radialGradient id="SVGID_121_" cx="5.3423" cy="2.3183" r="26.0785" gradientUnits="userSpaceOnUse">
			<stop  offset="0" style="stop-color:#E3CB9D"/>
			<stop  offset="1" style="stop-color:#AD8400"/>
		</radialGradient>
		<path class="st122" d="M17.1,6.8C17.1,6.8,17.1,6.8,17.1,6.8C17.1,6.8,17.1,6.8,17.1,6.8C17.1,6.8,17.1,6.8,17.1,6.8
			C17.1,6.8,17.1,6.8,17.1,6.8L17.1,6.8C17.2,6.8,17.1,6.8,17.1,6.8z"/>
		<radialGradient id="SVGID_122_" cx="5.3419" cy="2.3184" r="26.0796" gradientUnits="userSpaceOnUse">
			<stop  offset="0" style="stop-color:#E3CB9D"/>
			<stop  offset="1" style="stop-color:#AD8400"/>
		</radialGradient>
		<path class="st123" d="M17.1,6.8C17.1,6.8,17.1,6.8,17.1,6.8C17.1,6.8,17.1,6.8,17.1,6.8C17.1,6.8,17.1,6.8,17.1,6.8
			C17.1,6.8,17.1,6.8,17.1,6.8L17.1,6.8C17.2,6.8,17.1,6.8,17.1,6.8z"/>
		<radialGradient id="SVGID_123_" cx="5.3422" cy="2.3186" r="26.0783" gradientUnits="userSpaceOnUse">
			<stop  offset="0" style="stop-color:#EEDEC0"/>
			<stop  offset="1" style="stop-color:#AD8400"/>
		</radialGradient>
		<path class="st124" d="M17.1,6.8C17.1,6.8,17.1,6.8,17.1,6.8C17.1,6.8,17.1,6.8,17.1,6.8C17.1,6.8,17.1,6.8,17.1,6.8
			C17.1,6.8,17.1,6.8,17.1,6.8L17.1,6.8C17.2,6.8,17.1,6.8,17.1,6.8z"/>
		<radialGradient id="SVGID_124_" cx="5.3424" cy="2.3186" r="26.0785" gradientUnits="userSpaceOnUse">
			<stop  offset="0" style="stop-color:#E3CB9D"/>
			<stop  offset="1" style="stop-color:#AD8400"/>
		</radialGradient>
		<path class="st125" d="M13.9,5.7C13.9,5.7,13.9,5.7,13.9,5.7C13.9,5.7,13.9,5.7,13.9,5.7C13.9,5.7,13.9,5.7,13.9,5.7
			c0.2,0,0.4,0,0.6,0.1l0,0c0,0,0,0,0,0c0,0,0,0,0,0C14.3,5.7,14.1,5.7,13.9,5.7C13.9,5.6,13.9,5.7,13.9,5.7z"/>
		<radialGradient id="SVGID_125_" cx="5.3427" cy="2.3189" r="26.0771" gradientUnits="userSpaceOnUse">
			<stop  offset="0" style="stop-color:#EEDEC0"/>
			<stop  offset="1" style="stop-color:#AD8400"/>
		</radialGradient>
		<path class="st126" d="M13.9,5.7C13.9,5.7,13.9,5.7,13.9,5.7C13.9,5.7,13.9,5.7,13.9,5.7C13.9,5.7,13.9,5.7,13.9,5.7
			c0.2,0,0.4,0,0.6,0.1l0,0c0,0,0,0,0,0c0,0,0,0,0,0C14.3,5.7,14.1,5.7,13.9,5.7C13.9,5.6,13.9,5.7,13.9,5.7z"/>
		<radialGradient id="SVGID_126_" cx="5.3424" cy="2.3187" r="26.0783" gradientUnits="userSpaceOnUse">
			<stop  offset="0" style="stop-color:#E3CB9D"/>
			<stop  offset="1" style="stop-color:#AD8400"/>
		</radialGradient>
		<path class="st127" d="M11.6,5.7C11.6,5.7,11.6,5.7,11.6,5.7L11.6,5.7c0.1,0,0.2,0,0.4,0c0.1,0,0.1,0,0.2,0c0,0,0,0,0,0l-0.1,0
			c0,0,0-0.1,0-0.1C12,5.6,11.8,5.7,11.6,5.7C11.6,5.7,11.6,5.7,11.6,5.7z"/>
		<radialGradient id="SVGID_127_" cx="5.3428" cy="2.3189" r="26.077" gradientUnits="userSpaceOnUse">
			<stop  offset="0" style="stop-color:#EEDEC0"/>
			<stop  offset="1" style="stop-color:#AD8400"/>
		</radialGradient>
		<path class="st128" d="M11.6,5.7C11.6,5.7,11.6,5.7,11.6,5.7L11.6,5.7c0.1,0,0.2,0,0.4,0c0.1,0,0.1,0,0.2,0c0,0,0,0,0,0l-0.1,0
			c0,0,0-0.1,0-0.1C12,5.6,11.8,5.7,11.6,5.7C11.6,5.7,11.6,5.7,11.6,5.7z"/>
		<radialGradient id="SVGID_128_" cx="5.3438" cy="2.319" r="26.0735" gradientUnits="userSpaceOnUse">
			<stop  offset="0" style="stop-color:#E3CB9D"/>
			<stop  offset="1" style="stop-color:#AD8400"/>
		</radialGradient>
		<path class="st129" d="M11.6,5.7C11.6,5.7,11.6,5.8,11.6,5.7C11.6,5.8,11.6,5.7,11.6,5.7L11.6,5.7C11.6,5.7,11.6,5.7,11.6,5.7z"/>
		<radialGradient id="SVGID_129_" cx="5.3435" cy="2.3188" r="26.0747" gradientUnits="userSpaceOnUse">
			<stop  offset="0" style="stop-color:#E3CB9D"/>
			<stop  offset="1" style="stop-color:#AD8400"/>
		</radialGradient>
		<path class="st130" d="M11.6,5.7C11.6,5.7,11.6,5.8,11.6,5.7C11.6,5.8,11.6,5.7,11.6,5.7L11.6,5.7C11.6,5.7,11.6,5.7,11.6,5.7z"/>
		<radialGradient id="SVGID_130_" cx="5.3438" cy="2.3191" r="26.0733" gradientUnits="userSpaceOnUse">
			<stop  offset="0" style="stop-color:#EEDEC0"/>
			<stop  offset="1" style="stop-color:#AD8400"/>
		</radialGradient>
		<path class="st131" d="M11.6,5.7C11.6,5.7,11.6,5.8,11.6,5.7C11.6,5.8,11.6,5.7,11.6,5.7L11.6,5.7C11.6,5.7,11.6,5.7,11.6,5.7z"/>
	</g>
	<path class="st132" d="M21.9,13c0,4.9-4,8.9-8.9,8.9c-4.9,0-8.9-4-8.9-8.9c0-4.9,4-8.9,8.9-8.9C17.9,4.1,21.9,8.1,21.9,13z"/>
	<path class="st0" d="M16.3,8.9c0.2,0,0.4-0.3,0.4-0.3s0.3-0.4,1-0.4c0.7,0,0.8,0.3,0.9,0.4c0,0.1,0.3,0.2,0.5,0.2
		c0.3,0,0.4,0.2,0.4,0.2s0.2,0,0.4,0.1c0.2,0,0-0.2,0-0.2c0-0.1-0.1-0.2,0-0.3c0-0.1,0.5,0.1,0.7,0.1c0.2,0,0.1-0.2,0.1-0.2l0.1,0
		l-0.4-0.6c0,0,0,0,0,0l-0.1,0.1l-0.2-0.3l-0.1,0l-0.1,0.1l-0.1-0.1l-0.2-0.1l-0.2-0.2l-0.2-0.2l-0.1-0.1l0.1,0.2l0.2,0.2
		c0,0,0.1,0.2,0.1,0.2c0,0.1-0.2,0-0.3,0c0,0-0.3-0.2-0.3-0.2l-0.2-0.2l-0.3-0.2c0,0-0.6-0.4-0.7-0.4c-0.1,0-0.6-0.2-0.6-0.2
		l0.2,0.2l0.4,0.2c0,0,0.4,0.1,0.5,0.2c0.1,0.1,0.2,0.2,0.2,0.2l-0.1,0l0.1,0.3l-0.2-0.3c0,0-0.3-0.2-0.6-0.2
		c-0.2,0-0.5-0.2-0.6-0.2c-0.1,0-0.3-0.2-0.3-0.1c0,0.1-0.2,0.1-0.4,0.2c-0.2,0.1,0,0.3,0,0.3l-0.1,0.2l-0.1,0.2L16.3,8l0,0.3l0,0.3
		c0,0,0,0.1-0.2,0.1c-0.2,0-0.3,0.2-0.3,0.2c0,0,0,0,0,0c0,0,0.1,0,0.1,0c0,0,0,0,0,0.1c0,0,0,0,0,0C15.9,8.9,16.1,8.9,16.3,8.9z"/>
	<path class="st0" d="M15.5,8.7C15.5,8.7,15.4,8.6,15.5,8.7c-0.1-0.1-0.1-0.2-0.2-0.3c0-0.3-0.1-0.5-0.2-0.7c0,0-0.1-0.1-0.1-0.1
		l-0.2-0.2c-0.1,0-0.1,0-0.1,0.1c-0.1,0.1-0.2,0.1-0.2,0.1s0.2,0.2,0.3,0.3c0.1,0.1,0.1,0.6,0.1,0.6L15,8.6c0,0,0.1,0.2,0.1,0.2
		C15.2,8.8,15.4,8.8,15.5,8.7c0.1,0.1,0.2,0.2,0.3,0.2c0,0,0,0,0,0c0,0,0,0,0,0L15.5,8.7z"/>
	<path class="st0" d="M20.4,7.8L20.4,7.8C20.4,7.8,20.4,7.9,20.4,7.8L20.4,7.8z"/>
	<path class="st0" d="M15.8,8.9C15.8,8.9,15.8,8.9,15.8,8.9C15.8,8.9,15.8,8.9,15.8,8.9l-0.2,0.1l0.1,0.2C15.7,9.2,15.7,9,15.8,8.9
		C15.8,8.9,15.8,8.9,15.8,8.9C15.9,8.9,15.8,8.9,15.8,8.9z"/>
	<path class="st0" d="M15.7,8.9c-0.1,0-0.2,0-0.2,0l0,0.1L15.7,8.9C15.8,8.9,15.8,8.9,15.7,8.9z"/>
	<g>
		<g>
			<radialGradient id="SVGID_131_" cx="9.4199" cy="9.7877" r="12.5773" gradientUnits="userSpaceOnUse">
				<stop  offset="0" style="stop-color:#0FB3E8"/>
				<stop  offset="0.6512" style="stop-color:#006FAF"/>
				<stop  offset="1" style="stop-color:#005699"/>
			</radialGradient>
			<path class="st133" d="M22,13c0,4.9-4,9-9,9c-4.9,0-9-4-9-9c0-4.9,4-9,9-9C18,4.1,22,8.1,22,13z"/>
		</g>
		<g>
			<g>
				<radialGradient id="SVGID_132_" cx="9.7221" cy="9.7348" r="13.9533" gradientUnits="userSpaceOnUse">
					<stop  offset="0" style="stop-color:#CDD5E9"/>
					<stop  offset="0.1053" style="stop-color:#C0CBE3"/>
					<stop  offset="0.5024" style="stop-color:#96ABD1"/>
					<stop  offset="0.8142" style="stop-color:#7E99C6"/>
					<stop  offset="1" style="stop-color:#7693C2"/>
				</radialGradient>
				<path class="st134" d="M8.7,12.7c0.2,0,0.3-0.1,0.5-0.1l0.3-0.1c0.1,0,0.2,0,0.2,0c0.1,0,0.2,0,0.2-0.1c0-0.1,0.1-0.1,0.2-0.2
					c0.1,0,0.1,0,0.2,0c0.2,0,0.4,0.2,0.5,0.3c0.3,0.1,0.5,0.3,0.7,0.4c0.2,0.1,0.5,0.2,0.6,0.3c0,0.2,0.2,0.2,0.4,0.2
					c0.1,0,0.3,0,0.4,0c0.1,0.1,0.2,0.1,0.3,0.2c0.1,0,0.2,0,0.3,0c0.1,0.1,0.3,0.2,0.4,0.4c0,0,0,0.1,0,0.1
					c-0.2,0.2-0.3,0.6-0.3,0.9c0,0.2-0.1,0.3-0.2,0.4c-0.1,0.1-0.2,0.1-0.3,0.2c-0.1,0.1-0.3,0.2-0.4,0.3c-0.1,0.3-0.2,0.7-0.3,1
					c0,0.1-0.1,0.1-0.2,0.1c-0.2,0-0.4,0.2-0.4,0.4c0,0.1-0.1,0.2-0.2,0.2c-0.1,0-0.1,0.1-0.1,0.2c0,0.1,0,0.2-0.1,0.2
					c0,0-0.1,0.1,0,0.2c0.1,0.1,0.2,0.3,0.2,0.5c-0.1,0.1,0.1,0.2,0.1,0.3c0,0,0.1,0.1,0,0.2c0,0-0.1,0-0.1,0.1c-0.1,0-0.3,0-0.4,0
					c-0.1,0-0.2-0.2-0.2-0.3c-0.1-0.2-0.2-0.3-0.2-0.5c0-0.2-0.1-0.3-0.2-0.5c-0.1-0.2-0.1-0.5-0.1-0.8c0-0.2-0.1-0.3-0.2-0.4
					c-0.1-0.1-0.1-0.1-0.1-0.2c0-0.2,0-0.4-0.1-0.6l-0.1-0.5c-0.1-0.1-0.2-0.2-0.4-0.3c-0.1-0.1-0.2-0.1-0.3-0.2
					C9,15.1,9,14.9,8.9,14.7c0-0.1-0.1-0.2-0.2-0.4c0-0.2,0-0.3,0-0.4c0-0.1,0-0.2,0-0.2c0.1-0.1,0.1-0.2,0.1-0.3
					c0-0.2,0-0.3-0.1-0.4c0,0-0.1,0-0.1,0c-0.2,0-0.4-0.1-0.6-0.2c-0.1,0-0.1-0.1-0.1-0.1c-0.2-0.2-0.4-0.3-0.7-0.4
					C7,12.2,6.7,12.1,6.5,12c-0.2-0.1-0.3-0.3-0.3-0.5c0-0.1-0.1-0.2-0.2-0.2c-0.2-0.1-0.3-0.3-0.3-0.5c0-0.1-0.1-0.2-0.2-0.3
					c0-0.1,0-0.1,0-0.2c0.1-0.2,0-0.5,0-0.7c0-0.1,0-0.1,0-0.2c0-0.2,0.1-0.4,0.2-0.6c0-0.1,0-0.2,0-0.2C5.6,8.3,5.7,8.1,5.8,8
					c0.1,0,0.1-0.1,0.1-0.2C5.9,7.7,6,7.6,6.1,7.5c0-0.1,0.1-0.2,0.1-0.2c0.2-0.3,0.4-0.6,0.7-0.9c0.2-0.2,0.4-0.4,0.6-0.5L8,5.6
					l0.6-0.4C8.8,5.1,9,5,9.3,4.9c0,0,0.1,0,0.1,0c0,0.1,0.1,0.2,0.2,0.3c0.1,0,0.1,0,0.2,0c0.1,0,0.1,0.1,0.2,0.1c0,0,0.1,0,0.1,0
					c0,0.1,0.1,0.1,0.1,0.2c0.1,0.1,0.2,0.2,0.3,0.3c0.1,0,0.2,0,0.3,0.1c0,0,0,0.1,0,0.1c0,0.3,0,0.5-0.1,0.6c0,0-0.1,0-0.1,0
					c-0.1,0-0.2-0.1-0.2-0.2c0-0.1-0.1-0.2-0.1-0.2c0,0-0.1,0-0.1,0c-0.1,0-0.1,0.1-0.1,0.1c0,0,0,0.1,0,0.1
					C9.8,6.3,9.7,6.4,9.7,6.4c0,0-0.1,0.1-0.1,0.2C9.5,6.8,9.3,6.9,9.1,6.8c-0.1,0-0.3,0-0.4,0.1c0,0.1,0,0.1,0,0.2
					c0,0-0.1,0.1-0.1,0.1c0,0,0,0.1,0.1,0.1c0.1,0,0.1,0.1,0.2,0.1L9,7.6c0,0,0.1,0,0.1,0c0.1-0.1,0.3-0.1,0.4-0.2
					c0.1-0.1,0.2-0.3,0.2-0.4c0,0,0-0.1,0.1,0c0.1,0,0.3,0,0.4,0c0.2,0,0.3,0.1,0.3,0.3c0,0.1,0,0.2,0,0.3c0.1,0.1,0.1,0.1,0.2,0.2
					c0,0,0.1,0,0.1,0.1C11,7.9,11,8.2,10.8,8.2c-0.1,0-0.1,0.1-0.2,0.1c-0.1,0-0.2-0.1-0.3-0.1c-0.2,0-0.3,0.1-0.4,0.2
					c0,0,0,0.1,0,0.1c0.1,0,0.1,0,0.2,0c0.1,0,0.1,0,0.2,0c0,0,0,0,0,0.1c0,0.1,0,0.2-0.1,0.2C10.1,8.9,9.9,9,9.7,9.1
					C9.6,9.3,9.5,9.5,9.4,9.8C9.2,10,9,10.1,8.7,10.2c-0.1,0-0.1,0.1-0.1,0.2c0,0.1,0.1,0.2,0.1,0.3c0,0.1,0,0.1,0,0.2
					c0,0,0,0.1-0.1,0.1c-0.1,0-0.2-0.1-0.3-0.2c-0.1-0.1-0.1-0.2-0.3-0.2c-0.2,0-0.4,0-0.5,0.1c-0.1,0-0.2,0-0.3,0.1
					c0,0,0,0.1,0,0.1c0,0.1,0,0.3-0.1,0.4c0,0,0,0.1,0,0.2l0,0.2c0,0,0,0.1,0.1,0.1c0,0,0.1,0,0.1,0c0.1-0.1,0.2-0.2,0.3-0.2
					c0,0,0.1,0,0.1,0c0.1,0,0.1,0.1,0.1,0.1c0,0.1,0,0.2,0,0.3C8,12,8,12,8,12c0,0,0.1,0,0.1,0c0.1,0,0.1,0.1,0.2,0.1"/>
				<radialGradient id="SVGID_133_" cx="9.7221" cy="9.7345" r="13.9535" gradientUnits="userSpaceOnUse">
					<stop  offset="0" style="stop-color:#CDD5E9"/>
					<stop  offset="0.1053" style="stop-color:#C0CBE3"/>
					<stop  offset="0.5024" style="stop-color:#96ABD1"/>
					<stop  offset="0.8142" style="stop-color:#7E99C6"/>
					<stop  offset="1" style="stop-color:#7693C2"/>
				</radialGradient>
				<path class="st135" d="M14.1,20.9c0.2,0,0.4,0,0.6,0.1c0.1,0,0.2-0.1,0.3-0.1c0.4,0,0.7,0.1,0.9,0.2c0.1,0.1,0.3,0.1,0.4,0.2
					c-0.1,0.1-0.3,0.1-0.4,0.2c-0.7,0.3-1.4,0.4-2.3,0.5c-1.5,0.1-2.8-0.2-3.9-0.6c-0.1,0-0.2-0.1-0.3-0.1C9.6,21.1,9.8,21,10,21
					l0.4-0.1c0.3,0,0.4,0.1,0.7,0.1c0.1,0,0.2,0,0.3,0c0.3,0,0.4-0.2,0.5-0.3c0.1-0.1,0.1-0.1,0.1-0.2c0-0.2,0.2-0.3,0.3-0.4
					c0,0,0.1,0,0,0c0,0.1-0.1,0.1-0.1,0.2c0,0.1,0,0.1,0,0.1c0.1,0.1,0.1,0.2,0.1,0.3c0.1,0.1,0.3,0.2,0.5,0.2c0.1,0,0.2,0,0.4,0.1
					c0,0,0.1,0,0.1,0L14.1,20.9z"/>
				<radialGradient id="SVGID_134_" cx="9.7223" cy="9.7348" r="13.953" gradientUnits="userSpaceOnUse">
					<stop  offset="0" style="stop-color:#CDD5E9"/>
					<stop  offset="0.1053" style="stop-color:#C0CBE3"/>
					<stop  offset="0.5024" style="stop-color:#96ABD1"/>
					<stop  offset="0.8142" style="stop-color:#7E99C6"/>
					<stop  offset="1" style="stop-color:#7693C2"/>
				</radialGradient>
				<path class="st136" d="M12.3,5.6c0-0.1,0-0.1,0-0.1c0-0.1,0.1-0.1,0-0.2c0,0,0-0.1-0.1-0.1c-0.1,0-0.2-0.1-0.2-0.2
					c0-0.1,0.1-0.1,0.1-0.2c-0.1-0.1-0.3-0.2-0.3-0.3c0,0,0,0-0.1,0c0,0,0-0.1,0-0.1c0,0-0.1,0-0.1,0c0,0,0,0,0,0
					c-0.1,0-0.3,0-0.4,0.1c-0.1,0-0.1,0-0.2,0c0,0,0,0-0.1,0c-0.1,0.1-0.1,0.3-0.2,0.4c0,0,0,0.1,0,0c0,0,0,0.1,0.1,0.1
					c0,0,0.1,0,0.1,0c0,0,0.1,0,0.1,0c0,0,0,0.1-0.1,0.1C11,5.2,11,5.3,11,5.4c0,0.1,0,0.1,0,0.2c0,0,0,0.1,0,0.1
					c0,0.1,0.1,0.1,0.1,0.2c0.1,0.1,0.1,0.2,0.2,0.2l0.5,0.2c0,0,0.1,0,0.1,0c0-0.1,0.1-0.2,0.1-0.2C12,6.1,12.2,5.8,12.3,5.6z"/>
				<radialGradient id="SVGID_135_" cx="9.7222" cy="9.7348" r="13.9534" gradientUnits="userSpaceOnUse">
					<stop  offset="0" style="stop-color:#CDD5E9"/>
					<stop  offset="0.1053" style="stop-color:#C0CBE3"/>
					<stop  offset="0.5024" style="stop-color:#96ABD1"/>
					<stop  offset="0.8142" style="stop-color:#7E99C6"/>
					<stop  offset="1" style="stop-color:#7693C2"/>
				</radialGradient>
				<path class="st137" d="M8.9,11.1c-0.1,0-0.2,0-0.3,0c0,0,0,0,0,0c-0.1,0.1-0.2,0.1-0.2,0.2c0,0.1,0.1,0.1,0.2,0.1l0.6-0.1
					c0.2,0,0.3,0.1,0.4,0.1c0,0,0.1,0,0.1,0c0,0,0.1,0,0.1-0.1c0-0.1-0.1-0.1-0.1-0.2c-0.1,0-0.3-0.1-0.4-0.1L8.9,11.1z"/>
				<radialGradient id="SVGID_136_" cx="9.7226" cy="9.7351" r="13.9529" gradientUnits="userSpaceOnUse">
					<stop  offset="0" style="stop-color:#CDD5E9"/>
					<stop  offset="0.1053" style="stop-color:#C0CBE3"/>
					<stop  offset="0.5024" style="stop-color:#96ABD1"/>
					<stop  offset="0.8142" style="stop-color:#7E99C6"/>
					<stop  offset="1" style="stop-color:#7693C2"/>
				</radialGradient>
				<path class="st138" d="M12.5,5.9C12.6,5.9,12.6,5.9,12.5,5.9c0.2,0,0.3,0.1,0.3,0.1c0,0,0.1,0.1,0,0.1c0,0-0.1,0.1-0.1,0.1h-0.2
					c-0.1,0-0.1-0.1-0.2-0.1C12.4,6,12.4,5.9,12.5,5.9z"/>
			</g>
			<radialGradient id="SVGID_137_" cx="9.7222" cy="9.983" r="13.832" gradientUnits="userSpaceOnUse">
				<stop  offset="0" style="stop-color:#CDD5E9"/>
				<stop  offset="0.1053" style="stop-color:#C0CBE3"/>
				<stop  offset="0.5024" style="stop-color:#96ABD1"/>
				<stop  offset="0.8142" style="stop-color:#7E99C6"/>
				<stop  offset="1" style="stop-color:#7693C2"/>
			</radialGradient>
			<path class="st139" d="M21.9,12.2c0-0.4-0.1-0.8-0.2-1.2c-0.2-0.6-0.3-1.1-0.5-1.7c-0.2-0.4-0.5-0.9-0.5-0.9l-0.1,0
				c0,0,0.1,0.2-0.1,0.2c-0.2,0-0.6-0.3-0.7-0.1c0,0.1,0,0.2,0,0.3c0,0.1,0.2,0.3,0,0.2C19.7,9,19.5,9,19.5,9s-0.1-0.2-0.4-0.2
				c-0.3,0-0.5,0-0.5-0.2c0-0.1-0.2-0.4-0.9-0.4c-0.7,0-1,0.4-1,0.4s-0.2,0.3-0.4,0.3c-0.2,0-0.4,0-0.5,0c0,0,0,0,0,0
				c-0.1,0.1-0.1,0.3-0.1,0.5c-0.1,0.2-0.2,0.3-0.2,0.6c0,0.2-0.1,0.4-0.1,0.6c0,0.2,0,0.4,0,0.5c0,0.2,0.1,0.4,0.3,0.5l0.1,0.1
				c0.1,0.1,0.1,0.2,0.2,0.3c0.1,0.2,0.2,0.4,0.5,0.4c0.2,0,0.4,0,0.5-0.1c0.2,0,0.3,0,0.5-0.1c0.2-0.1,0.3-0.2,0.6-0.2
				c0,0,0.1,0,0.1,0c0.2,0.1,0.2,0.3,0.3,0.5c0,0.2,0.1,0.3,0.2,0.4c0.1,0.2,0.1,0.5,0.2,0.7c0,0.1,0.1,0.4,0,0.5
				c0,0.1-0.1,0.1-0.1,0.2l0.2,0.6c0,0.2-0.1,0.3-0.1,0.4c0,0.3,0,0.5,0.1,0.8c0,0.2-0.1,0.3-0.1,0.5c0,0.1,0,0.1,0.1,0.1
				c0.3,0,0.6-0.1,1-0.1c0.1,0,0.1,0,0.2-0.1c0.1-0.2,0.2-0.3,0.3-0.4c0-0.1,0.1-0.3,0.2-0.4c0.1-0.1,0.2-0.1,0.3-0.2
				c0.1-0.2,0.1-0.4,0.1-0.6c0.1-0.2,0.8-0.8,0.8-0.8C22,13.6,22,12.9,21.9,12.2z"/>
			<radialGradient id="SVGID_138_" cx="9.7221" cy="9.7348" r="13.9534" gradientUnits="userSpaceOnUse">
				<stop  offset="0" style="stop-color:#CDD5E9"/>
				<stop  offset="0.1053" style="stop-color:#C0CBE3"/>
				<stop  offset="0.5024" style="stop-color:#96ABD1"/>
				<stop  offset="0.8142" style="stop-color:#7E99C6"/>
				<stop  offset="1" style="stop-color:#7693C2"/>
			</radialGradient>
			<path class="st140" d="M14.8,4.9L15.1,5l0.2,0.1l0.2,0.1l0.1-0.1L15.4,5L15,4.7l-0.2,0l-0.2-0.2l-0.2-0.1l0.1,0l0.3,0.2l0.5,0.2
				l0.2,0l0.1,0.1l0.2,0L15.8,5l0.3,0.2l-0.2,0.1c0,0-0.2-0.1-0.2,0c0,0.1-0.4,0.1-0.4,0.1l-0.1-0.1l0-0.1l-0.2,0l-0.1,0l0.3,0.3
				l-0.1,0.2l0,0.2l-0.1,0.2L15,6.2l-0.1,0.1c0,0-0.1,0-0.3,0.1c-0.1,0.1,0.1,0.1,0.4,0.2c0.3,0.1,0.6,0.6,0.6,0.6s-0.3,0.1-0.4,0.1
				c-0.1,0-0.3,0-0.5,0l-0.3,0.2c0,0,0.2,0.2,0.2,0.3c0.1,0.1,0.1,0.1,0.1,0.2c0,0.1,0,0.2,0,0.2c0.1,0.1,0.3,0,0.2,0.1
				c0,0.1,0.1,0.2,0.1,0.2c0,0,0.2,0,0.2,0l0.3,0.1c0,0,0,0,0,0c0,0,0,0,0,0c0-0.1,0.1-0.2,0.3-0.2c0.2,0,0.2-0.1,0.2-0.1l0-0.3
				l0-0.3l-0.1-0.3l0.1-0.2l0.1-0.2c0,0-0.2-0.2,0-0.3c0.2-0.1,0.4-0.1,0.4-0.2c0-0.1,0.2,0.1,0.3,0.1c0.1,0,0.4,0.2,0.6,0.2
				c0.2,0,0.6,0.2,0.6,0.2l0.2,0.3l-0.1-0.3l0.1,0c0,0-0.1-0.1-0.2-0.2c-0.1-0.1-0.5-0.2-0.5-0.2l-0.4-0.2l-0.2-0.2
				c0,0,0.5,0.2,0.6,0.2c0.1,0,0.7,0.4,0.7,0.4l0.3,0.2l0.2,0.2c0,0,0.2,0.2,0.3,0.2c0,0,0.3,0.1,0.3,0c0-0.1-0.1-0.2-0.1-0.2
				l-0.2-0.2l-0.1-0.2l0.1,0.1l0.2,0.2l0.2,0.2l0.2,0.1l0.1,0.1L20,7.6l0.1,0l0.2,0.3l0.1-0.1C20,7.4,19.7,7,19.2,6.6
				c0,0-0.1-0.1-0.2-0.1c0,0-0.6-0.6-0.7-0.6c-0.1-0.1-0.2-0.2-0.3-0.2c-1.1-0.8-2.4-1.3-4.1-1.5c0,0-0.1,0-0.1,0c0,0,0,0.1,0,0.1
				c0,0.2,0,0.3-0.1,0.4c0,0,0,0,0,0.1c0,0.1,0.1,0.1,0.1,0.2C14.2,5,14.3,5,14.4,5C14.6,5.1,14.8,4.9,14.8,4.9z"/>
			<polygon class="st141" points="18.4,7.6 18.2,7.6 18.2,7.8 18.5,7.9 18.6,7.8 			"/>
			<polygon class="st141" points="17.3,7.5 17.5,7.8 17.7,7.9 17.7,7.7 17.4,7.5 17.3,7.4 			"/>
			<polygon class="st141" points="17.1,7.1 17.2,7.3 17.3,7.3 17.2,7.1 			"/>
			<polygon class="st142" points="14.5,6.4 14.8,6.2 15,6.1 14.9,6 14.8,5.9 14.7,5.9 14.5,5.8 14.3,5.8 14.2,5.7 14.2,5.6 14,5.6 
				13.9,5.5 13.9,5.6 14,5.7 14,5.8 14.1,5.9 14.2,5.9 14.4,5.9 14.4,6 14.3,6 14.4,6.1 14.4,6.2 14.5,6.2 			"/>
			<polygon class="st142" points="14.1,5.9 14.2,6 14.3,6.1 14.3,6.2 14.1,6.3 14,6.3 14,6.1 13.9,6.1 13.9,6 13.9,6 13.9,6 			"/>
			<polygon class="st143" points="10.2,11.3 10.2,11.4 9.9,11.5 10.1,11.6 10.5,11.6 10.7,11.7 10.6,11.4 10.4,11.2 			"/>
		</g>
	</g>
	<g>
		<g>
			<path class="st144" d="M4.9,15.8c0.5-0.1,0.8-0.1,0.8-0.7v-4.2c-0.5-0.6-0.6-0.6-0.8-0.6V10h1.9l3.1,3.8h0v-2.7
				c0-0.5-0.1-0.8-0.8-0.9V10h1.9v0.2c-0.6,0.1-0.7,0.3-0.7,0.7v5.2H10L6,11.4h0v3.5c0,0.6,0.2,0.8,0.8,0.9V16h-2V15.8z"/>
		</g>
		<g>
			<path class="st144" d="M15.1,11.8c-0.2-0.6-0.7-1.6-1.7-1.6c-0.5,0-0.9,0.3-0.9,0.8c0,0.5,0.2,0.7,0.9,1l1.3,0.6
				c0.3,0.2,1,0.7,1,1.6c0,0.8-0.6,1.8-2.2,1.8c-0.8,0-1.2-0.3-1.5-0.3c-0.2,0-0.2,0.2-0.3,0.3h-0.3V14h0.3c0.2,0.9,0.7,1.9,1.8,1.9
				c1.1,0,1.1-0.9,1.1-1c0-0.6-0.4-0.8-1-1.1L13,13.5c-1.5-0.7-1.5-1.5-1.5-1.9c0-0.5,0.3-1.7,2-1.7c0.7,0,1.1,0.3,1.4,0.3
				c0.2,0,0.2-0.1,0.3-0.3h0.3v1.9H15.1z"/>
		</g>
		<g>
			<path class="st144" d="M16.1,10h5v1.8h-0.2c-0.2-0.9-0.4-1.5-2-1.5c-0.5,0-0.6,0-0.6,0.4v2c1.1,0,1.2-0.6,1.4-1.3h0.2v3h-0.2
				c-0.1-0.7-0.2-1.4-1.4-1.4v2.1c0,0.6,0.4,0.6,1,0.6V16h-3.2v-0.2c0.5-0.1,0.8-0.1,0.8-0.6v-4.3c0-0.6-0.4-0.6-0.8-0.6V10z"/>
		</g>
	</g>
	<g>
		<path class="st145" d="M13,4.1c4.9,0,8.9,4,8.9,8.9c0,4.9-4,8.9-8.9,8.9c-4.9,0-8.9-4-8.9-8.9C4.1,8.1,8.1,4.1,13,4.1 M13,4
			C8,4,4,8,4,13c0,5,4.1,9,9,9c5,0,9-4.1,9-9C22.1,8,18,4,13,4L13,4z"/>
	</g>
	<radialGradient id="SVGID_139_" cx="13.0075" cy="13.0223" r="8.9517" fx="11.0301" fy="7.9074" gradientUnits="userSpaceOnUse">
		<stop  offset="0" style="stop-color:#0FB3E8"/>
		<stop  offset="0.3931" style="stop-color:#5D88A1"/>
		<stop  offset="0.8125" style="stop-color:#454C52"/>
		<stop  offset="1" style="stop-color:#000000"/>
	</radialGradient>
	<circle class="st146" cx="13" cy="13" r="9"/>
</g>
</svg>
