<?xml version="1.0" encoding="UTF-8" standalone="no"?>
<svg width="100%" height="100%" viewBox="0 0 962 224" version="1.1" xmlns="http://www.w3.org/2000/svg" xmlns:xlink="http://www.w3.org/1999/xlink" xml:space="preserve" xmlns:serif="http://www.serif.com/" style="fill: transparent;fill-rule:evenodd;clip-rule:evenodd;stroke-linejoin:round;stroke-miterlimit:2;">
    <g transform="matrix(1,0,0,1,-1036,-861)">
        <g id="Layer-11" serif:id="Layer 11">
        </g>
        <g id="Layer-10" serif:id="Layer 10">
        </g>
        <g transform="matrix(8.33333,0,0,8.33333,0,-11012.2)">
            <g id="Layer-1" serif:id="Layer 1">
                <rect x="0" y="1350.52" width="686.862" height="265.787"/>
            </g>
        </g>
        <g id="Layer-2" serif:id="Layer 2" transform="matrix(8.33333,0,0,8.33333,0,0)">
            <g transform="matrix(1,0,0,1,169.841,121.582)">
                <path d="M0,-3.264C-1.894,-3.592 -3.095,-3.881 -3.604,-4.131C-4.114,-4.38 -4.369,-4.811 -4.369,-5.423C-4.369,-6.035 -4.138,-6.482 -3.673,-6.766C-3.208,-7.049 -2.375,-7.191 -1.174,-7.191C0.027,-7.191 1.966,-7.009 4.641,-6.647L4.709,-9.741L3.654,-9.945C1.547,-10.307 -0.233,-10.489 -1.684,-10.489C-3.542,-10.489 -5.066,-10.058 -6.257,-9.197C-7.446,-8.335 -8.041,-7.032 -8.041,-5.287C-8.041,-3.541 -7.611,-2.34 -6.749,-1.683C-5.889,-1.025 -4.534,-0.544 -2.687,-0.238C-0.839,0.068 0.328,0.352 0.815,0.612C1.303,0.873 1.547,1.343 1.547,2.023C1.547,2.703 1.292,3.191 0.781,3.485C0.271,3.78 -0.584,3.927 -1.785,3.927C-2.987,3.927 -4.947,3.746 -7.667,3.383L-7.804,6.477L-6.749,6.647C-4.642,7.032 -2.896,7.225 -1.514,7.225C0.685,7.225 2.356,6.806 3.502,5.967C4.646,5.129 5.219,3.814 5.219,2.023C5.219,0.233 4.822,-1.014 4.028,-1.717C3.235,-2.419 1.892,-2.935 0,-3.264" style="fill:rgb(255,253,240);fill-rule:nonzero;"/>
            </g>
            <g transform="matrix(1,0,0,1,0,-1405.5)">
                <rect x="178.63" y="1516.94" width="3.706" height="17" style="fill:rgb(255,253,240);"/>
            </g>
            <g transform="matrix(1,0,0,1,0,-1432.19)">
                <rect x="178.63" y="1536.83" width="3.706" height="3.91" style="fill:rgb(255,253,240);"/>
            </g>
            <g transform="matrix(1,0,0,1,195.187,128.434)">
                <path d="M0,-17.374C-1.474,-17.374 -3.038,-16.898 -4.692,-15.946L-4.692,-17L-8.364,-17L-8.364,0L-4.658,0L-4.658,-13.192L-4.148,-13.396C-3.083,-13.849 -1.973,-14.076 -0.816,-14.076C0.407,-14.076 1.218,-13.69 1.614,-12.92C2.011,-12.149 2.21,-10.846 2.21,-9.01L2.21,0L5.882,0L5.882,-9.112C5.882,-12.058 5.468,-14.172 4.641,-15.453C3.813,-16.733 2.266,-17.374 0,-17.374" style="fill:rgb(255,253,240);fill-rule:nonzero;"/>
            </g>
            <g transform="matrix(1,0,0,1,211.711,109.802)">
                <path d="M0,15.708C-0.839,15.708 -1.36,15.481 -1.564,15.028C-1.769,14.575 -1.87,13.657 -1.87,12.274L-1.87,4.794L2.821,4.794L2.821,1.632L-1.87,1.632L-1.87,-3.298L-5.542,-3.298L-5.542,1.632L-7.719,1.632L-7.719,4.794L-5.542,4.794L-5.542,12.682C-5.542,15.13 -5.186,16.796 -4.472,17.68C-3.758,18.564 -2.438,19.006 -0.511,19.006C0.283,19.006 1.438,18.858 2.958,18.564L2.788,15.606L0,15.708Z" style="fill:rgb(255,253,240);fill-rule:nonzero;"/>
            </g>
            <g transform="matrix(1,0,0,1,220.448,121.226)">
                <path d="M0,-2.584C0.022,-4.193 0.323,-5.349 0.901,-6.052C1.479,-6.754 2.402,-7.106 3.672,-7.106C4.941,-7.106 5.843,-6.771 6.375,-6.103C6.907,-5.434 7.174,-4.261 7.174,-2.584L0,-2.584ZM3.672,-10.166C-1.247,-10.166 -3.706,-7.151 -3.706,-1.122C-3.706,1.916 -3.156,4.125 -2.057,5.508C-0.958,6.891 0.851,7.582 3.366,7.582C5.36,7.582 7.65,7.321 10.234,6.8L10.166,4.046L9.214,4.148C7.515,4.284 5.859,4.352 4.25,4.352C2.641,4.352 1.541,4.024 0.952,3.366C0.362,2.709 0.057,1.678 0.034,0.272L10.574,0.272L10.813,-2.38C10.813,-7.57 8.433,-10.166 3.672,-10.166" style="fill:rgb(255,253,240);fill-rule:nonzero;"/>
            </g>
            <g transform="matrix(1,0,0,1,0,-1412.57)">
                <rect x="235.034" y="1516.94" width="3.706" height="24.072" style="fill:rgb(255,253,240);"/>
            </g>
            <g transform="matrix(1,0,0,1,0,-1408.01)">
                <path d="M140.267,1517.23L139.083,1517.91L140.265,1518.6C140.971,1519.01 141.619,1519.51 142.19,1520.08C142.636,1520.52 143.041,1521.02 143.394,1521.55C143.694,1522.01 143.953,1522.48 144.165,1522.97C144.676,1524.15 144.935,1525.4 144.935,1526.69C144.935,1527.99 144.676,1529.24 144.165,1530.41C143.952,1530.9 143.694,1531.37 143.395,1531.83C143.043,1532.36 142.636,1532.86 142.19,1533.3C141.61,1533.88 140.962,1534.38 140.267,1534.78L139.078,1535.46L140.267,1536.15C141.921,1537.1 143.809,1537.61 145.726,1537.61C151.748,1537.61 156.648,1532.71 156.648,1526.69C156.648,1520.67 151.748,1515.77 145.726,1515.77C143.809,1515.77 141.921,1516.27 140.267,1517.23ZM144.715,1520.68C144.301,1520.05 143.826,1519.47 143.308,1518.96C142.974,1518.62 142.618,1518.31 142.243,1518.02C143.346,1517.58 144.528,1517.35 145.726,1517.35C150.876,1517.35 155.065,1521.54 155.065,1526.69C155.065,1531.84 150.876,1536.03 145.726,1536.03C144.53,1536.03 143.347,1535.8 142.244,1535.36C142.616,1535.07 142.971,1534.76 143.308,1534.42C143.831,1533.9 144.304,1533.32 144.715,1532.7C144.94,1532.36 145.137,1532.01 145.32,1531.64C145.548,1531.68 145.779,1531.7 146.017,1531.7C148.783,1531.7 151.025,1529.46 151.025,1526.69C151.025,1523.92 148.783,1521.68 146.017,1521.68C145.779,1521.68 145.548,1521.7 145.32,1521.73C145.137,1521.37 144.94,1521.02 144.715,1520.68Z" style="fill:white;fill-rule:nonzero;"/>
            </g>
            <g transform="matrix(1,0,0,1,144.164,114.962)">
                <path d="M0,7.438C-0.212,7.927 -0.471,8.405 -0.77,8.857C-1.122,9.39 -1.528,9.887 -1.975,10.334C-2.555,10.911 -3.202,11.407 -3.898,11.808C-5.312,12.625 -6.927,13.057 -8.566,13.057C-13.716,13.057 -17.906,8.869 -17.906,3.72C-17.906,-1.429 -13.716,-5.619 -8.566,-5.619C-6.926,-5.619 -5.312,-5.187 -3.899,-4.371C-3.193,-3.961 -2.546,-3.464 -1.974,-2.893C-1.529,-2.451 -1.124,-1.956 -0.77,-1.42C-0.47,-0.966 -0.211,-0.488 0,0.001C0.511,1.176 0.771,2.427 0.771,3.72C0.771,5.015 0.511,6.265 0,7.438M1.452,-0.629C1.205,-1.201 0.901,-1.76 0.55,-2.292C0.136,-2.918 -0.338,-3.499 -0.857,-4.014C-1.524,-4.68 -2.28,-5.261 -3.106,-5.741C-4.761,-6.696 -6.648,-7.201 -8.566,-7.201C-14.588,-7.201 -19.488,-2.302 -19.488,3.72C-19.488,9.741 -14.588,14.639 -8.566,14.639C-6.649,14.639 -4.761,14.134 -3.107,13.179C-2.293,12.71 -1.537,12.13 -0.857,11.455C-0.334,10.931 0.14,10.351 0.551,9.73C0.9,9.2 1.204,8.64 1.451,8.069C2.049,6.697 2.353,5.233 2.353,3.72C2.353,2.209 2.05,0.745 1.452,-0.629" style="fill:rgb(255,253,240);fill-rule:nonzero;"/>
            </g>
            <g transform="matrix(1,0,0,1,135.597,115.913)">
                <path d="M0,5.537C-1.526,5.537 -2.769,4.295 -2.769,2.768C-2.769,1.242 -1.526,-0 0,-0C1.526,-0 2.769,1.242 2.769,2.768C2.769,4.295 1.526,5.537 0,5.537M0,-3.077C-3.224,-3.077 -5.846,-0.455 -5.846,2.768C-5.846,5.992 -3.224,8.614 0,8.614C3.224,8.614 5.846,5.992 5.846,2.768C5.846,-0.455 3.224,-3.077 0,-3.077" style="fill:rgb(255,253,240);fill-rule:nonzero;"/>
            </g>
        </g>
        <g id="Layer-7" serif:id="Layer 7">
        </g>
        <g id="Layer-9" serif:id="Layer 9">
        </g>
    </g>
</svg>
