<?xml version="1.0" encoding="UTF-8" standalone="no"?>
<!DOCTYPE svg PUBLIC "-//W3C//DTD SVG 1.1//EN" "http://www.w3.org/Graphics/SVG/1.1/DTD/svg11.dtd">
<svg width="100%" height="100%" viewBox="0 0 48 48" version="1.1" xmlns="http://www.w3.org/2000/svg" xmlns:xlink="http://www.w3.org/1999/xlink" xml:space="preserve" xmlns:serif="http://www.serif.com/" style="fill-rule:evenodd;clip-rule:evenodd;stroke-linejoin:round;stroke-miterlimit:2;">
    <g transform="matrix(1,0,0,1,-53,0)">
        <g id="Artboard1" transform="matrix(1,0,0,1,53,0)">
            <rect x="0" y="0" width="48" height="48" style="fill:none;"/>
            <g transform="matrix(4.76684,0,0,4.76684,-893.373,-962.955)">
                <g transform="matrix(1,0,0,1,0,-1530.79)">
                    <path d="M190.201,1733.98C190.201,1734.51 190.633,1734.94 191.164,1734.94L192.128,1734.94L192.128,1733.98C192.128,1733.45 191.697,1733.02 191.164,1733.02C190.632,1733.02 190.201,1733.45 190.201,1733.98ZM188.597,1735.59C188.064,1735.59 187.633,1736.02 187.633,1736.55C187.632,1737.09 188.063,1737.52 188.596,1737.52L191.164,1737.52C191.696,1737.52 192.128,1737.09 192.128,1736.56C192.128,1736.02 191.696,1735.59 191.164,1735.59L188.597,1735.59Z" style="fill-rule:nonzero;"/>
                </g>
                <g transform="matrix(1,0,0,1,0,-1530.79)">
                    <path d="M192.77,1733.98L192.77,1736.55C192.769,1737.09 193.2,1737.52 193.733,1737.52C194.265,1737.52 194.697,1737.09 194.696,1736.55L194.696,1733.98C194.697,1733.45 194.266,1733.02 193.733,1733.02C193.2,1733.02 192.769,1733.45 192.77,1733.98ZM195.338,1736.55L195.338,1737.52L196.301,1737.52C196.834,1737.52 197.265,1737.09 197.265,1736.55C197.265,1736.02 196.834,1735.59 196.301,1735.59C195.769,1735.59 195.337,1736.02 195.338,1736.55Z" style="fill-rule:nonzero;"/>
                </g>
                <g transform="matrix(1,0,0,1,0,-1520.5)">
                    <path d="M193.733,1727.87C193.2,1727.87 192.769,1728.3 192.77,1728.83C192.769,1729.37 193.2,1729.8 193.733,1729.8L196.301,1729.8C196.834,1729.8 197.265,1729.37 197.265,1728.84C197.266,1728.3 196.834,1727.87 196.302,1727.87L193.733,1727.87ZM192.769,1730.44L192.769,1731.41C192.769,1731.94 193.2,1732.37 193.733,1732.37C194.265,1732.37 194.697,1731.94 194.696,1731.41C194.697,1730.88 194.265,1730.44 193.733,1730.44L192.769,1730.44Z" style="fill-rule:nonzero;"/>
                </g>
                <g transform="matrix(1,0,0,1,0,-1520.5)">
                    <path d="M190.201,1728.83L190.201,1731.41C190.201,1731.94 190.632,1732.37 191.164,1732.37C191.696,1732.37 192.128,1731.94 192.128,1731.41L192.128,1728.84C192.128,1728.3 191.697,1727.87 191.164,1727.87C190.632,1727.87 190.201,1728.3 190.201,1728.83ZM188.597,1727.87C188.064,1727.87 187.633,1728.3 187.633,1728.83C187.633,1729.37 188.064,1729.8 188.597,1729.8C189.129,1729.8 189.56,1729.37 189.56,1728.83L189.56,1727.87L188.597,1727.87Z" style="fill-rule:nonzero;"/>
                </g>
            </g>
        </g>
    </g>
</svg>
