<?xml version="1.0" encoding="utf-8"?>
<!-- Generator: Adobe Illustrator 24.3.0, SVG Export Plug-In . SVG Version: 6.00 Build 0)  -->
<svg version="1.1" id="Layer_1" xmlns="http://www.w3.org/2000/svg" xmlns:xlink="http://www.w3.org/1999/xlink" x="0px" y="0px"
	 viewBox="0 0 72.1 51.5" style="enable-background:new 0 0 72.1 51.5;" xml:space="preserve">
<style type="text/css">
	.st0{clip-path:url(#SVGID_2_);}
	.st1{clip-path:url(#SVGID_4_);fill:#FFFFFF;}
	.st2{clip-path:url(#SVGID_4_);}
	.st3{clip-path:url(#SVGID_6_);fill:#D26752;}
	.st4{clip-path:url(#SVGID_6_);fill:none;stroke:#000000;stroke-width:0.1431;stroke-miterlimit:10;}
	.st5{clip-path:url(#SVGID_8_);fill:#DD8C6F;}
	.st6{clip-path:url(#SVGID_8_);fill:none;stroke:#000000;stroke-width:0.1431;stroke-miterlimit:10;}
	.st7{clip-path:url(#SVGID_10_);fill:#E6B39A;}
	.st8{clip-path:url(#SVGID_10_);fill:none;stroke:#000000;stroke-width:0.1431;stroke-miterlimit:10;}
	.st9{clip-path:url(#SVGID_12_);fill:#F1DCCE;}
	.st10{clip-path:url(#SVGID_12_);fill:none;stroke:#000000;stroke-width:0.1431;stroke-miterlimit:10;}
	.st11{clip-path:url(#SVGID_14_);fill:#DDE7F1;}
	.st12{clip-path:url(#SVGID_14_);fill:none;stroke:#000000;stroke-width:0.1431;stroke-miterlimit:10;}
	.st13{clip-path:url(#SVGID_16_);fill:#C3D5E6;}
	.st14{clip-path:url(#SVGID_16_);fill:none;stroke:#000000;stroke-width:0.1431;stroke-miterlimit:10;}
	.st15{clip-path:url(#SVGID_18_);fill:#99BDD5;}
	.st16{clip-path:url(#SVGID_18_);fill:none;stroke:#000000;stroke-width:0.1431;stroke-miterlimit:10;}
	.st17{clip-path:url(#SVGID_20_);fill:#719CC3;}
	.st18{clip-path:url(#SVGID_20_);fill:none;stroke:#000000;stroke-width:0.1431;stroke-miterlimit:10;}
	
		.st19{clip-path:url(#SVGID_22_);fill:none;stroke:#B0B0B0;stroke-width:0.1145;stroke-linejoin:round;stroke-miterlimit:10;stroke-dasharray:0.4236,0.1832;}
	.st20{clip-path:url(#SVGID_4_);fill:none;stroke:#000000;stroke-width:0.1145;stroke-linejoin:round;stroke-miterlimit:10;}
	.st21{clip-path:url(#SVGID_24_);}
	
		.st22{clip-path:url(#SVGID_26_);fill:none;stroke:#B0B0B0;stroke-width:0.1145;stroke-linejoin:round;stroke-miterlimit:10;stroke-dasharray:0.4236,0.1832;}
	.st23{clip-path:url(#SVGID_28_);}
	
		.st24{clip-path:url(#SVGID_30_);fill:none;stroke:#B0B0B0;stroke-width:0.1145;stroke-linejoin:round;stroke-miterlimit:10;stroke-dasharray:0.4236,0.1832;}
	.st25{clip-path:url(#SVGID_32_);}
	
		.st26{clip-path:url(#SVGID_34_);fill:none;stroke:#B0B0B0;stroke-width:0.1145;stroke-linejoin:round;stroke-miterlimit:10;stroke-dasharray:0.4236,0.1832;}
	.st27{clip-path:url(#SVGID_36_);}
	
		.st28{clip-path:url(#SVGID_38_);fill:none;stroke:#B0B0B0;stroke-width:0.1145;stroke-linejoin:round;stroke-miterlimit:10;stroke-dasharray:0.4236,0.1832;}
	
		.st29{clip-path:url(#SVGID_40_);fill:none;stroke:#B0B0B0;stroke-width:0.1145;stroke-linejoin:round;stroke-miterlimit:10;stroke-dasharray:0.4236,0.1832;}
	
		.st30{clip-path:url(#SVGID_42_);fill:none;stroke:#B0B0B0;stroke-width:0.1145;stroke-linejoin:round;stroke-miterlimit:10;stroke-dasharray:0.4236,0.1832;}
	
		.st31{clip-path:url(#SVGID_44_);fill:none;stroke:#000000;stroke-width:0.2147;stroke-linecap:square;stroke-linejoin:round;stroke-miterlimit:10;}
	.st32{clip-path:url(#SVGID_4_);fill:none;stroke:#000000;stroke-width:0.1145;stroke-linecap:square;stroke-miterlimit:10;}
</style>
<g>
	<defs>
		<rect id="SVGID_1_" width="72.1" height="51.5"/>
	</defs>
	<clipPath id="SVGID_2_">
		<use xlink:href="#SVGID_1_"  style="overflow:visible;"/>
	</clipPath>
	<g class="st0">
		<defs>
			<rect id="SVGID_3_" width="72.1" height="51.5"/>
		</defs>
		<clipPath id="SVGID_4_">
			<use xlink:href="#SVGID_3_"  style="overflow:visible;"/>
		</clipPath>
		<rect x="13.9" y="4.1" class="st1" width="55.4" height="40.1"/>
		<g class="st2">
			<defs>
				<rect id="SVGID_5_" x="13.9" y="4.1" width="55.4" height="40.1"/>
			</defs>
			<clipPath id="SVGID_6_">
				<use xlink:href="#SVGID_5_"  style="overflow:visible;"/>
			</clipPath>
			<rect x="21.5" y="38.7" class="st3" width="29.3" height="3.7"/>
			<rect x="21.5" y="38.7" class="st4" width="29.3" height="3.7"/>
		</g>
		<g class="st2">
			<defs>
				<rect id="SVGID_7_" x="13.9" y="4.1" width="55.4" height="40.1"/>
			</defs>
			<clipPath id="SVGID_8_">
				<use xlink:href="#SVGID_7_"  style="overflow:visible;"/>
			</clipPath>
			<rect x="31.7" y="34" class="st5" width="19.2" height="3.7"/>
			<rect x="31.7" y="34" class="st6" width="19.2" height="3.7"/>
		</g>
		<g class="st2">
			<defs>
				<rect id="SVGID_9_" x="13.9" y="4.1" width="55.4" height="40.1"/>
			</defs>
			<clipPath id="SVGID_10_">
				<use xlink:href="#SVGID_9_"  style="overflow:visible;"/>
			</clipPath>
			<rect x="31.8" y="29.3" class="st7" width="19" height="3.7"/>
			<rect x="31.8" y="29.3" class="st8" width="19" height="3.7"/>
		</g>
		<g class="st2">
			<defs>
				<rect id="SVGID_11_" x="13.9" y="4.1" width="55.4" height="40.1"/>
			</defs>
			<clipPath id="SVGID_12_">
				<use xlink:href="#SVGID_11_"  style="overflow:visible;"/>
			</clipPath>
			<rect x="42.4" y="24.7" class="st9" width="8.5" height="3.7"/>
			<rect x="42.4" y="24.7" class="st10" width="8.5" height="3.7"/>
		</g>
		<g class="st2">
			<defs>
				<rect id="SVGID_13_" x="13.9" y="4.1" width="55.4" height="40.1"/>
			</defs>
			<clipPath id="SVGID_14_">
				<use xlink:href="#SVGID_13_"  style="overflow:visible;"/>
			</clipPath>
			<rect x="47" y="20" class="st11" width="3.8" height="3.7"/>
			<rect x="47" y="20" class="st12" width="3.8" height="3.7"/>
		</g>
		<g class="st2">
			<defs>
				<rect id="SVGID_15_" x="13.9" y="4.1" width="55.4" height="40.1"/>
			</defs>
			<clipPath id="SVGID_16_">
				<use xlink:href="#SVGID_15_"  style="overflow:visible;"/>
			</clipPath>
			<rect x="47.5" y="15.3" class="st13" width="3.3" height="3.7"/>
			<rect x="47.5" y="15.3" class="st14" width="3.3" height="3.7"/>
		</g>
		<g class="st2">
			<defs>
				<rect id="SVGID_17_" x="13.9" y="4.1" width="55.4" height="40.1"/>
			</defs>
			<clipPath id="SVGID_18_">
				<use xlink:href="#SVGID_17_"  style="overflow:visible;"/>
			</clipPath>
			<rect x="50.8" y="10.6" class="st15" width="1.9" height="3.7"/>
			<rect x="50.8" y="10.6" class="st16" width="1.9" height="3.7"/>
		</g>
		<g class="st2">
			<defs>
				<rect id="SVGID_19_" x="13.9" y="4.1" width="55.4" height="40.1"/>
			</defs>
			<clipPath id="SVGID_20_">
				<use xlink:href="#SVGID_19_"  style="overflow:visible;"/>
			</clipPath>
			<rect x="50.8" y="5.9" class="st17" width="7.1" height="3.7"/>
			<rect x="50.8" y="5.9" class="st18" width="7.1" height="3.7"/>
		</g>
		<g class="st2">
			<defs>
				<rect id="SVGID_21_" x="13.9" y="4.1" width="55.4" height="40.1"/>
			</defs>
			<clipPath id="SVGID_22_">
				<use xlink:href="#SVGID_21_"  style="overflow:visible;"/>
			</clipPath>
			<line class="st19" x1="13.9" y1="44.2" x2="13.9" y2="4.1"/>
		</g>
		<line class="st2" x1="13.9" y1="44.2" x2="13.9" y2="44.7"/>
		<line class="st20" x1="13.9" y1="44.2" x2="13.9" y2="44.7"/>
		<path class="st2" d="M13.8,45.7c0,0.1,0,0.1,0.1,0.2c0,0,0.1,0.1,0.2,0.1c0.1,0,0.2,0,0.2-0.1c0,0,0.1-0.1,0.1-0.2
			c0-0.1,0-0.1-0.1-0.2c0,0-0.1-0.1-0.2-0.1c-0.1,0-0.2,0-0.2,0.1C13.8,45.5,13.8,45.6,13.8,45.7 M13.9,46c-0.1,0-0.2-0.1-0.2-0.1
			c0-0.1-0.1-0.1-0.1-0.2c0-0.1,0-0.2,0.1-0.3c0.1-0.1,0.2-0.1,0.3-0.1c0.1,0,0.3,0,0.3,0.1c0.1,0.1,0.1,0.2,0.1,0.3
			c0,0.1,0,0.2-0.1,0.2c0,0.1-0.1,0.1-0.2,0.1c0.1,0,0.2,0.1,0.2,0.1c0.1,0.1,0.1,0.1,0.1,0.2c0,0.1,0,0.3-0.1,0.3
			c-0.1,0.1-0.2,0.1-0.4,0.1c-0.2,0-0.3,0-0.4-0.1c-0.1-0.1-0.1-0.2-0.1-0.3c0-0.1,0-0.2,0.1-0.2C13.7,46.1,13.8,46,13.9,46
			 M14.1,46.1c-0.1,0-0.2,0-0.2,0.1c-0.1,0.1-0.1,0.1-0.1,0.2s0,0.2,0.1,0.2c0.1,0.1,0.1,0.1,0.2,0.1c0.1,0,0.2,0,0.2-0.1
			c0.1-0.1,0.1-0.1,0.1-0.2s0-0.2-0.1-0.2C14.2,46.1,14.2,46.1,14.1,46.1"/>
		<path class="st2" d="M15.3,45.3c0.2,0,0.3,0.1,0.4,0.2c0.1,0.1,0.1,0.3,0.1,0.6c0,0.2,0,0.4-0.1,0.6c-0.1,0.1-0.2,0.2-0.4,0.2
			c-0.2,0-0.3-0.1-0.4-0.2c-0.1-0.1-0.1-0.3-0.1-0.6c0-0.2,0-0.4,0.1-0.6C15.1,45.4,15.2,45.3,15.3,45.3 M15.3,45.4
			c-0.1,0-0.2,0.1-0.2,0.2C15.1,45.7,15,45.8,15,46c0,0.2,0,0.4,0.1,0.5c0.1,0.1,0.1,0.2,0.2,0.2s0.2-0.1,0.2-0.2
			c0.1-0.1,0.1-0.3,0.1-0.5c0-0.2,0-0.4-0.1-0.5C15.5,45.5,15.4,45.4,15.3,45.4"/>
		<g class="st2">
			<defs>
				<rect id="SVGID_23_" x="9.7" y="44.3" width="5.6" height="3.4"/>
			</defs>
			<clipPath id="SVGID_24_">
				<use xlink:href="#SVGID_23_"  style="overflow:visible;"/>
			</clipPath>
			<polyline class="st21" points="12,46.1 13.2,46.1 13.2,46.2 12,46.2 12,46.1 			"/>
		</g>
		<g class="st2">
			<defs>
				<rect id="SVGID_25_" x="13.9" y="4.1" width="55.4" height="40.1"/>
			</defs>
			<clipPath id="SVGID_26_">
				<use xlink:href="#SVGID_25_"  style="overflow:visible;"/>
			</clipPath>
			<line class="st22" x1="23.1" y1="44.2" x2="23.1" y2="4.1"/>
		</g>
		<line class="st2" x1="23.1" y1="44.2" x2="23.1" y2="44.7"/>
		<line class="st20" x1="23.1" y1="44.2" x2="23.1" y2="44.7"/>
		<path class="st2" d="M23.7,45.3v0.2c-0.1,0-0.1,0-0.2-0.1c-0.1,0-0.1,0-0.2,0c-0.1,0-0.2,0-0.3,0.1C23.1,45.7,23,45.8,23,46
			c0-0.1,0.1-0.1,0.1-0.1c0.1,0,0.1,0,0.2,0c0.1,0,0.3,0,0.3,0.1c0.1,0.1,0.1,0.2,0.1,0.4c0,0.2,0,0.3-0.1,0.4
			c-0.1,0.1-0.2,0.1-0.4,0.1c-0.2,0-0.3-0.1-0.4-0.2c-0.1-0.1-0.1-0.3-0.1-0.6c0-0.2,0.1-0.4,0.2-0.6c0.1-0.1,0.3-0.2,0.4-0.2
			c0,0,0.1,0,0.2,0C23.6,45.3,23.7,45.3,23.7,45.3 M23.3,46c-0.1,0-0.2,0-0.2,0.1c-0.1,0.1-0.1,0.1-0.1,0.2c0,0.1,0,0.2,0.1,0.3
			c0.1,0.1,0.1,0.1,0.2,0.1c0.1,0,0.2,0,0.2-0.1c0.1-0.1,0.1-0.1,0.1-0.3c0-0.1,0-0.2-0.1-0.2C23.5,46,23.4,46,23.3,46"/>
		<path class="st2" d="M24.6,45.3c0.2,0,0.3,0.1,0.4,0.2c0.1,0.1,0.1,0.3,0.1,0.6c0,0.2,0,0.4-0.1,0.6c-0.1,0.1-0.2,0.2-0.4,0.2
			c-0.2,0-0.3-0.1-0.4-0.2c-0.1-0.1-0.1-0.3-0.1-0.6c0-0.2,0-0.4,0.1-0.6C24.3,45.4,24.4,45.3,24.6,45.3 M24.6,45.4
			c-0.1,0-0.2,0.1-0.2,0.2c-0.1,0.1-0.1,0.3-0.1,0.5c0,0.2,0,0.4,0.1,0.5c0.1,0.1,0.1,0.2,0.2,0.2c0.1,0,0.2-0.1,0.2-0.2
			c0.1-0.1,0.1-0.3,0.1-0.5c0-0.2,0-0.4-0.1-0.5C24.8,45.5,24.7,45.4,24.6,45.4"/>
		<g class="st2">
			<defs>
				<rect id="SVGID_27_" x="19" y="44.3" width="5.6" height="3.4"/>
			</defs>
			<clipPath id="SVGID_28_">
				<use xlink:href="#SVGID_27_"  style="overflow:visible;"/>
			</clipPath>
			<polyline class="st23" points="21.2,46.1 22.5,46.1 22.5,46.2 21.2,46.2 21.2,46.1 			"/>
		</g>
		<g class="st2">
			<defs>
				<rect id="SVGID_29_" x="13.9" y="4.1" width="55.4" height="40.1"/>
			</defs>
			<clipPath id="SVGID_30_">
				<use xlink:href="#SVGID_29_"  style="overflow:visible;"/>
			</clipPath>
			<line class="st24" x1="32.4" y1="44.2" x2="32.4" y2="4.1"/>
		</g>
		<line class="st2" x1="32.4" y1="44.2" x2="32.4" y2="44.7"/>
		<line class="st20" x1="32.4" y1="44.2" x2="32.4" y2="44.7"/>
		<path class="st2" d="M32.6,45.3h0.2v1h0.2v0.2h-0.2v0.3h-0.2v-0.3H32v-0.2L32.6,45.3 M32.7,45.5l-0.5,0.8h0.5V45.5"/>
		<path class="st2" d="M33.8,45.3c0.2,0,0.3,0.1,0.4,0.2c0.1,0.1,0.1,0.3,0.1,0.6c0,0.2,0,0.4-0.1,0.6c-0.1,0.1-0.2,0.2-0.4,0.2
			c-0.2,0-0.3-0.1-0.4-0.2c-0.1-0.1-0.1-0.3-0.1-0.6c0-0.2,0-0.4,0.1-0.6C33.5,45.4,33.7,45.3,33.8,45.3 M33.8,45.4
			c-0.1,0-0.2,0.1-0.2,0.2c-0.1,0.1-0.1,0.3-0.1,0.5c0,0.2,0,0.4,0.1,0.5c0.1,0.1,0.1,0.2,0.2,0.2c0.1,0,0.2-0.1,0.2-0.2
			c0.1-0.1,0.1-0.3,0.1-0.5c0-0.2,0-0.4-0.1-0.5C34,45.5,33.9,45.4,33.8,45.4"/>
		<g class="st2">
			<defs>
				<rect id="SVGID_31_" x="28.2" y="44.3" width="5.6" height="3.4"/>
			</defs>
			<clipPath id="SVGID_32_">
				<use xlink:href="#SVGID_31_"  style="overflow:visible;"/>
			</clipPath>
			<polyline class="st25" points="30.5,46.1 31.7,46.1 31.7,46.2 30.5,46.2 30.5,46.1 			"/>
		</g>
		<g class="st2">
			<defs>
				<rect id="SVGID_33_" x="13.9" y="4.1" width="55.4" height="40.1"/>
			</defs>
			<clipPath id="SVGID_34_">
				<use xlink:href="#SVGID_33_"  style="overflow:visible;"/>
			</clipPath>
			<line class="st26" x1="41.6" y1="44.2" x2="41.6" y2="4.1"/>
		</g>
		<line class="st2" x1="41.6" y1="44.2" x2="41.6" y2="44.7"/>
		<line class="st20" x1="41.6" y1="44.2" x2="41.6" y2="44.7"/>
		<path class="st2" d="M41.5,46.6h0.7v0.2h-0.9v-0.2c0.1-0.1,0.2-0.2,0.3-0.3c0.1-0.1,0.2-0.2,0.2-0.3c0.1-0.1,0.1-0.1,0.1-0.2
			c0,0,0-0.1,0-0.1c0-0.1,0-0.1-0.1-0.2c-0.1,0-0.1-0.1-0.2-0.1c-0.1,0-0.1,0-0.2,0c-0.1,0-0.1,0.1-0.2,0.1v-0.2
			c0.1,0,0.2-0.1,0.2-0.1c0.1,0,0.1,0,0.2,0c0.2,0,0.3,0,0.4,0.1s0.1,0.2,0.1,0.3c0,0.1,0,0.1,0,0.2c0,0.1-0.1,0.1-0.1,0.2
			c0,0-0.1,0.1-0.2,0.2C41.8,46.3,41.7,46.4,41.5,46.6"/>
		<path class="st2" d="M43.1,45.3c0.2,0,0.3,0.1,0.4,0.2c0.1,0.1,0.1,0.3,0.1,0.6c0,0.2,0,0.4-0.1,0.6c-0.1,0.1-0.2,0.2-0.4,0.2
			c-0.2,0-0.3-0.1-0.4-0.2c-0.1-0.1-0.1-0.3-0.1-0.6c0-0.2,0-0.4,0.1-0.6C42.8,45.4,42.9,45.3,43.1,45.3 M43.1,45.4
			c-0.1,0-0.2,0.1-0.2,0.2c-0.1,0.1-0.1,0.3-0.1,0.5c0,0.2,0,0.4,0.1,0.5c0.1,0.1,0.1,0.2,0.2,0.2c0.1,0,0.2-0.1,0.2-0.2
			c0.1-0.1,0.1-0.3,0.1-0.5c0-0.2,0-0.4-0.1-0.5C43.2,45.5,43.2,45.4,43.1,45.4"/>
		<g class="st2">
			<defs>
				<rect id="SVGID_35_" x="37.4" y="44.3" width="5.6" height="3.4"/>
			</defs>
			<clipPath id="SVGID_36_">
				<use xlink:href="#SVGID_35_"  style="overflow:visible;"/>
			</clipPath>
			<polyline class="st27" points="39.7,46.1 40.9,46.1 40.9,46.2 39.7,46.2 39.7,46.1 			"/>
		</g>
		<g class="st2">
			<defs>
				<rect id="SVGID_37_" x="13.9" y="4.1" width="55.4" height="40.1"/>
			</defs>
			<clipPath id="SVGID_38_">
				<use xlink:href="#SVGID_37_"  style="overflow:visible;"/>
			</clipPath>
			<line class="st28" x1="50.8" y1="44.2" x2="50.8" y2="4.1"/>
		</g>
		<line class="st2" x1="50.8" y1="44.2" x2="50.8" y2="44.7"/>
		<line class="st20" x1="50.8" y1="44.2" x2="50.8" y2="44.7"/>
		<path class="st2" d="M50.8,45.3c0.2,0,0.3,0.1,0.4,0.2c0.1,0.1,0.1,0.3,0.1,0.6c0,0.2,0,0.4-0.1,0.6c-0.1,0.1-0.2,0.2-0.4,0.2
			c-0.2,0-0.3-0.1-0.4-0.2c-0.1-0.1-0.1-0.3-0.1-0.6c0-0.2,0-0.4,0.1-0.6C50.5,45.4,50.7,45.3,50.8,45.3 M50.8,45.4
			c-0.1,0-0.2,0.1-0.2,0.2c-0.1,0.1-0.1,0.3-0.1,0.5c0,0.2,0,0.4,0.1,0.5c0.1,0.1,0.1,0.2,0.2,0.2c0.1,0,0.2-0.1,0.2-0.2
			c0.1-0.1,0.1-0.3,0.1-0.5c0-0.2,0-0.4-0.1-0.5C51,45.5,50.9,45.4,50.8,45.4"/>
		<g class="st2">
			<defs>
				<rect id="SVGID_39_" x="13.9" y="4.1" width="55.4" height="40.1"/>
			</defs>
			<clipPath id="SVGID_40_">
				<use xlink:href="#SVGID_39_"  style="overflow:visible;"/>
			</clipPath>
			<line class="st29" x1="60.1" y1="44.2" x2="60.1" y2="4.1"/>
		</g>
		<line class="st2" x1="60.1" y1="44.2" x2="60.1" y2="44.7"/>
		<line class="st20" x1="60.1" y1="44.2" x2="60.1" y2="44.7"/>
		<path class="st2" d="M59.2,46.6h0.7v0.2h-0.9v-0.2c0.1-0.1,0.2-0.2,0.3-0.3c0.1-0.1,0.2-0.2,0.2-0.3c0.1-0.1,0.1-0.1,0.1-0.2
			c0,0,0-0.1,0-0.1c0-0.1,0-0.1-0.1-0.2c-0.1,0-0.1-0.1-0.2-0.1c-0.1,0-0.1,0-0.2,0c-0.1,0-0.1,0.1-0.2,0.1v-0.2
			c0.1,0,0.2-0.1,0.2-0.1c0.1,0,0.1,0,0.2,0c0.2,0,0.3,0,0.4,0.1c0.1,0.1,0.1,0.2,0.1,0.3c0,0.1,0,0.1,0,0.2c0,0.1-0.1,0.1-0.1,0.2
			c0,0-0.1,0.1-0.2,0.2C59.5,46.3,59.3,46.4,59.2,46.6"/>
		<path class="st2" d="M60.7,45.3c0.2,0,0.3,0.1,0.4,0.2c0.1,0.1,0.1,0.3,0.1,0.6c0,0.2,0,0.4-0.1,0.6c-0.1,0.1-0.2,0.2-0.4,0.2
			c-0.2,0-0.3-0.1-0.4-0.2c-0.1-0.1-0.1-0.3-0.1-0.6c0-0.2,0-0.4,0.1-0.6C60.4,45.4,60.5,45.3,60.7,45.3 M60.7,45.4
			c-0.1,0-0.2,0.1-0.2,0.2c-0.1,0.1-0.1,0.3-0.1,0.5c0,0.2,0,0.4,0.1,0.5c0.1,0.1,0.1,0.2,0.2,0.2c0.1,0,0.2-0.1,0.2-0.2
			C61,46.4,61,46.2,61,46c0-0.2,0-0.4-0.1-0.5C60.9,45.5,60.8,45.4,60.7,45.4"/>
		<g class="st2">
			<defs>
				<rect id="SVGID_41_" x="13.9" y="4.1" width="55.4" height="40.1"/>
			</defs>
			<clipPath id="SVGID_42_">
				<use xlink:href="#SVGID_41_"  style="overflow:visible;"/>
			</clipPath>
			<line class="st30" x1="69.3" y1="44.2" x2="69.3" y2="4.1"/>
		</g>
		<line class="st2" x1="69.3" y1="44.2" x2="69.3" y2="44.7"/>
		<line class="st20" x1="69.3" y1="44.2" x2="69.3" y2="44.7"/>
		<path class="st2" d="M68.7,45.3H69v1h0.2v0.2H69v0.3h-0.2v-0.3h-0.7v-0.2L68.7,45.3 M68.8,45.5l-0.5,0.8h0.5V45.5"/>
		<path class="st2" d="M70,45.3c0.2,0,0.3,0.1,0.4,0.2c0.1,0.1,0.1,0.3,0.1,0.6c0,0.2,0,0.4-0.1,0.6c-0.1,0.1-0.2,0.2-0.4,0.2
			c-0.2,0-0.3-0.1-0.4-0.2c-0.1-0.1-0.1-0.3-0.1-0.6c0-0.2,0-0.4,0.1-0.6C69.7,45.4,69.8,45.3,70,45.3 M70,45.4
			c-0.1,0-0.2,0.1-0.2,0.2c-0.1,0.1-0.1,0.3-0.1,0.5c0,0.2,0,0.4,0.1,0.5c0.1,0.1,0.1,0.2,0.2,0.2c0.1,0,0.2-0.1,0.2-0.2
			c0.1-0.1,0.1-0.3,0.1-0.5c0-0.2,0-0.4-0.1-0.5C70.1,45.5,70.1,45.4,70,45.4"/>
		<path class="st2" d="M33,47.8c0.1,0,0.2,0,0.3,0.1c0.1,0.1,0.1,0.2,0.1,0.3c0,0.1,0,0.3-0.1,0.3c-0.1,0.1-0.2,0.1-0.3,0.1
			c-0.1,0-0.2,0-0.3-0.1c-0.1-0.1-0.1-0.2-0.1-0.3c0-0.1,0-0.2,0.1-0.3C32.7,47.8,32.8,47.8,33,47.8 M34,47.8h0.2l-1,1.7h-0.2
			L34,47.8 M33,47.9c-0.1,0-0.1,0-0.2,0.1c0,0.1-0.1,0.1-0.1,0.2c0,0.1,0,0.2,0.1,0.2c0,0.1,0.1,0.1,0.2,0.1c0.1,0,0.1,0,0.2-0.1
			c0-0.1,0.1-0.1,0.1-0.2c0-0.1,0-0.2-0.1-0.2C33.1,48,33,47.9,33,47.9 M34.1,48.6c0.1,0,0.2,0,0.3,0.1c0.1,0.1,0.1,0.2,0.1,0.3
			c0,0.1,0,0.2-0.1,0.3c-0.1,0.1-0.2,0.1-0.3,0.1c-0.1,0-0.2,0-0.3-0.1c-0.1-0.1-0.1-0.2-0.1-0.3s0-0.2,0.1-0.3
			C33.9,48.7,34,48.6,34.1,48.6 M34.1,48.8c-0.1,0-0.1,0-0.2,0.1c0,0.1-0.1,0.1-0.1,0.2c0,0.1,0,0.2,0.1,0.2c0,0.1,0.1,0.1,0.2,0.1
			c0.1,0,0.1,0,0.2-0.1c0-0.1,0.1-0.1,0.1-0.2c0-0.1,0-0.2-0.1-0.2C34.2,48.8,34.2,48.8,34.1,48.8"/>
		<polyline class="st2" points="35.6,47.8 35.8,47.8 35.8,49.5 35.6,49.5 35.6,47.8 		"/>
		<path class="st2" d="M37.2,48.5c0.1-0.1,0.1-0.2,0.2-0.2c0.1,0,0.2-0.1,0.3-0.1c0.1,0,0.2,0,0.3,0.1c0.1,0.1,0.1,0.2,0.1,0.4v0.8
			h-0.2v-0.7c0-0.1,0-0.2-0.1-0.3c0-0.1-0.1-0.1-0.2-0.1c-0.1,0-0.2,0-0.3,0.1c-0.1,0.1-0.1,0.2-0.1,0.3v0.7H37v-0.7
			c0-0.1,0-0.2-0.1-0.3c0-0.1-0.1-0.1-0.2-0.1c-0.1,0-0.2,0-0.3,0.1c-0.1,0.1-0.1,0.2-0.1,0.3v0.7h-0.2v-1.3h0.2v0.2
			c0-0.1,0.1-0.1,0.2-0.2c0.1,0,0.1-0.1,0.2-0.1c0.1,0,0.2,0,0.2,0.1C37.1,48.3,37.2,48.4,37.2,48.5"/>
		<path class="st2" d="M39.4,48.9c0-0.2,0-0.3-0.1-0.4c-0.1-0.1-0.1-0.1-0.3-0.1c-0.1,0-0.2,0-0.3,0.1c-0.1,0.1-0.1,0.2-0.1,0.4
			c0,0.2,0,0.3,0.1,0.4c0.1,0.1,0.1,0.1,0.3,0.1c0.1,0,0.2,0,0.3-0.1C39.3,49.1,39.4,49,39.4,48.9 M38.7,49.3V50h-0.2v-1.7h0.2v0.2
			c0-0.1,0.1-0.1,0.2-0.2c0.1,0,0.1-0.1,0.2-0.1c0.2,0,0.3,0.1,0.4,0.2c0.1,0.1,0.1,0.3,0.1,0.5c0,0.2,0,0.4-0.1,0.5
			c-0.1,0.1-0.2,0.2-0.4,0.2c-0.1,0-0.2,0-0.2-0.1C38.8,49.4,38.7,49.4,38.7,49.3"/>
		<path class="st2" d="M40.6,48.4C40.6,48.4,40.6,48.4,40.6,48.4c-0.1,0-0.1,0-0.2,0c-0.1,0-0.2,0-0.3,0.1c-0.1,0.1-0.1,0.2-0.1,0.3
			v0.7h-0.2v-1.3h0.2v0.2c0-0.1,0.1-0.1,0.2-0.2c0.1,0,0.2-0.1,0.3-0.1c0,0,0,0,0,0c0,0,0,0,0.1,0V48.4"/>
		<path class="st2" d="M41.3,48.2c0.2,0,0.3,0.1,0.4,0.2c0.1,0.1,0.2,0.3,0.2,0.5s-0.1,0.4-0.2,0.5c-0.1,0.1-0.2,0.2-0.4,0.2
			c-0.2,0-0.3-0.1-0.4-0.2c-0.1-0.1-0.2-0.3-0.2-0.5s0.1-0.4,0.2-0.5C41,48.3,41.2,48.2,41.3,48.2 M41.3,48.4c-0.1,0-0.2,0-0.3,0.1
			C41,48.6,41,48.7,41,48.9c0,0.2,0,0.3,0.1,0.4c0.1,0.1,0.2,0.1,0.3,0.1c0.1,0,0.2,0,0.3-0.1c0.1-0.1,0.1-0.2,0.1-0.4
			c0-0.1,0-0.3-0.1-0.4C41.5,48.4,41.5,48.4,41.3,48.4"/>
		<polyline class="st2" points="42.1,48.2 42.3,48.2 42.7,49.3 43.1,48.2 43.3,48.2 42.9,49.5 42.6,49.5 42.1,48.2 		"/>
		<path class="st2" d="M44.5,48.8c0-0.1,0-0.2-0.1-0.3c-0.1-0.1-0.1-0.1-0.2-0.1c-0.1,0-0.2,0-0.3,0.1c-0.1,0.1-0.1,0.2-0.1,0.3
			H44.5 M44.7,48.8v0.1h-0.9c0,0.1,0.1,0.3,0.1,0.3c0.1,0.1,0.2,0.1,0.3,0.1c0.1,0,0.2,0,0.2,0c0.1,0,0.1,0,0.2-0.1v0.2
			c-0.1,0-0.1,0.1-0.2,0.1c-0.1,0-0.2,0-0.2,0c-0.2,0-0.4-0.1-0.5-0.2c-0.1-0.1-0.2-0.3-0.2-0.5c0-0.2,0.1-0.4,0.2-0.5
			c0.1-0.1,0.3-0.2,0.4-0.2c0.2,0,0.3,0.1,0.4,0.2C44.6,48.5,44.7,48.6,44.7,48.8"/>
		<path class="st2" d="M46,48.5c0.1-0.1,0.1-0.2,0.2-0.2c0.1,0,0.2-0.1,0.3-0.1c0.1,0,0.2,0,0.3,0.1c0.1,0.1,0.1,0.2,0.1,0.4v0.8
			h-0.2v-0.7c0-0.1,0-0.2-0.1-0.3c0-0.1-0.1-0.1-0.2-0.1c-0.1,0-0.2,0-0.3,0.1c-0.1,0.1-0.1,0.2-0.1,0.3v0.7h-0.2v-0.7
			c0-0.1,0-0.2-0.1-0.3c0-0.1-0.1-0.1-0.2-0.1c-0.1,0-0.2,0-0.3,0.1c-0.1,0.1-0.1,0.2-0.1,0.3v0.7H45v-1.3h0.2v0.2
			c0-0.1,0.1-0.1,0.2-0.2c0.1,0,0.1-0.1,0.2-0.1s0.2,0,0.2,0.1C45.9,48.3,46,48.4,46,48.5"/>
		<path class="st2" d="M48.1,48.8c0-0.1,0-0.2-0.1-0.3c-0.1-0.1-0.1-0.1-0.2-0.1c-0.1,0-0.2,0-0.3,0.1c-0.1,0.1-0.1,0.2-0.1,0.3
			H48.1 M48.3,48.8v0.1h-0.9c0,0.1,0.1,0.3,0.1,0.3c0.1,0.1,0.2,0.1,0.3,0.1c0.1,0,0.2,0,0.2,0c0.1,0,0.1,0,0.2-0.1v0.2
			c-0.1,0-0.1,0.1-0.2,0.1c-0.1,0-0.2,0-0.2,0c-0.2,0-0.4-0.1-0.5-0.2c-0.1-0.1-0.2-0.3-0.2-0.5c0-0.2,0.1-0.4,0.2-0.5
			c0.1-0.1,0.3-0.2,0.4-0.2c0.2,0,0.3,0.1,0.4,0.2C48.3,48.5,48.3,48.6,48.3,48.8"/>
		<path class="st2" d="M49.7,48.7v0.8h-0.2v-0.7c0-0.1,0-0.2-0.1-0.3c0-0.1-0.1-0.1-0.2-0.1c-0.1,0-0.2,0-0.3,0.1
			c-0.1,0.1-0.1,0.2-0.1,0.3v0.7h-0.2v-1.3h0.2v0.2c0-0.1,0.1-0.1,0.2-0.2c0.1,0,0.1-0.1,0.2-0.1c0.1,0,0.3,0,0.3,0.1
			C49.7,48.4,49.7,48.6,49.7,48.7"/>
		<path class="st2" d="M50.3,47.9v0.4h0.4v0.2h-0.4v0.7c0,0.1,0,0.2,0,0.2c0,0,0.1,0,0.2,0h0.2v0.2h-0.2c-0.2,0-0.3,0-0.3-0.1
			c-0.1-0.1-0.1-0.2-0.1-0.3v-0.7H50v-0.2h0.2v-0.4H50.3"/>
		<line class="st2" x1="13.9" y1="40.6" x2="13.4" y2="40.6"/>
		<line class="st20" x1="13.9" y1="40.6" x2="13.4" y2="40.6"/>
		<polyline class="st2" points="2.4,39.8 2.8,39.8 3.2,40.9 3.6,39.8 3.9,39.8 3.9,41.4 3.7,41.4 3.7,40 3.3,41.1 3.1,41.1 2.6,40 
			2.6,41.4 2.4,41.4 2.4,39.8 		"/>
		<path class="st2" d="M5.4,39.8V40c-0.1,0-0.2-0.1-0.2-0.1c-0.1,0-0.2,0-0.2,0c-0.1,0-0.2,0-0.3,0.1c-0.1,0-0.1,0.1-0.1,0.2
			c0,0.1,0,0.1,0.1,0.2c0,0,0.1,0.1,0.3,0.1l0.1,0c0.2,0,0.3,0.1,0.4,0.2c0.1,0.1,0.1,0.2,0.1,0.3c0,0.2-0.1,0.3-0.2,0.4
			c-0.1,0.1-0.3,0.1-0.5,0.1c-0.1,0-0.2,0-0.3,0c-0.1,0-0.2,0-0.3-0.1v-0.2c0.1,0.1,0.2,0.1,0.3,0.1c0.1,0,0.2,0,0.3,0
			c0.1,0,0.2,0,0.3-0.1c0.1-0.1,0.1-0.1,0.1-0.2c0-0.1,0-0.1-0.1-0.2c-0.1,0-0.1-0.1-0.2-0.1l-0.1,0c-0.2,0-0.3-0.1-0.4-0.2
			c-0.1-0.1-0.1-0.2-0.1-0.3c0-0.1,0.1-0.3,0.2-0.3c0.1-0.1,0.2-0.1,0.4-0.1c0.1,0,0.2,0,0.2,0C5.2,39.8,5.3,39.8,5.4,39.8"/>
		<path class="st2" d="M7,39.8h0.3l0.6,1.7H7.7L7.5,41H6.8l-0.2,0.4H6.4L7,39.8 M7.1,40l-0.3,0.8h0.6L7.1,40"/>
		<polyline class="st2" points="8,40.2 9,40.2 9,40.4 8.2,41.3 9,41.3 9,41.4 8,41.4 8,41.2 8.8,40.3 8,40.3 8,40.2 		"/>
		<path class="st2" d="M9.8,40.1L9.8,40.1 M9.3,40.9v-0.8h0.2v0.8c0,0.1,0,0.2,0.1,0.3c0,0.1,0.1,0.1,0.2,0.1c0.1,0,0.2,0,0.3-0.1
			c0.1-0.1,0.1-0.2,0.1-0.3v-0.7h0.2v1.3h-0.2v-0.2c-0.1,0.1-0.1,0.1-0.2,0.2c-0.1,0-0.1,0.1-0.2,0.1c-0.1,0-0.3,0-0.3-0.1
			C9.3,41.2,9.3,41.1,9.3,40.9"/>
		<path class="st2" d="M11.5,40.4C11.5,40.3,11.5,40.3,11.5,40.4c-0.1,0-0.1,0-0.2,0c-0.1,0-0.2,0-0.3,0.1C11,40.5,11,40.6,11,40.8
			v0.7h-0.2v-1.3H11v0.2c0-0.1,0.1-0.1,0.2-0.2c0.1,0,0.2-0.1,0.3-0.1c0,0,0,0,0,0c0,0,0,0,0.1,0V40.4"/>
		<path class="st2" d="M12.6,40.7c0-0.1,0-0.2-0.1-0.3c-0.1-0.1-0.1-0.1-0.2-0.1c-0.1,0-0.2,0-0.3,0.1c-0.1,0.1-0.1,0.2-0.1,0.3
			H12.6 M12.8,40.7v0.1h-0.9c0,0.1,0.1,0.3,0.1,0.3c0.1,0.1,0.2,0.1,0.3,0.1c0.1,0,0.2,0,0.2,0c0.1,0,0.1,0,0.2-0.1v0.2
			c-0.1,0-0.1,0.1-0.2,0.1c-0.1,0-0.2,0-0.2,0c-0.2,0-0.4-0.1-0.5-0.2c-0.1-0.1-0.2-0.3-0.2-0.5c0-0.2,0.1-0.4,0.2-0.5
			c0.1-0.1,0.3-0.2,0.4-0.2c0.2,0,0.3,0.1,0.4,0.2C12.7,40.4,12.8,40.6,12.8,40.7"/>
		<line class="st2" x1="13.9" y1="35.9" x2="13.4" y2="35.9"/>
		<line class="st20" x1="13.9" y1="35.9" x2="13.4" y2="35.9"/>
		<polyline class="st2" points="1.8,35.1 2.1,35.1 2.6,36.2 3,35.1 3.3,35.1 3.3,36.7 3.1,36.7 3.1,35.3 2.7,36.4 2.5,36.4 2,35.3 
			2,36.7 1.8,36.7 1.8,35.1 		"/>
		<path class="st2" d="M4.2,35.1h0.3l0.6,1.7H4.9l-0.2-0.4H4l-0.2,0.4H3.6L4.2,35.1 M4.3,35.3L4,36.1h0.6L4.3,35.3"/>
		<path class="st2" d="M5.4,35.1h0.5c0.3,0,0.6,0.1,0.7,0.2c0.2,0.1,0.2,0.3,0.2,0.6c0,0.3-0.1,0.5-0.2,0.6
			c-0.2,0.1-0.4,0.2-0.7,0.2H5.4V35.1 M5.6,35.3v1.3h0.3c0.2,0,0.4-0.1,0.5-0.2c0.1-0.1,0.2-0.3,0.2-0.5c0-0.2-0.1-0.4-0.2-0.5
			c-0.1-0.1-0.3-0.2-0.5-0.2H5.6"/>
		<polyline class="st2" points="7,36 7.6,36 7.6,36.2 7,36.2 7,36 		"/>
		<path class="st2" d="M9.1,36.5v-0.4H8.7v-0.2h0.6v0.7c-0.1,0.1-0.2,0.1-0.3,0.1c-0.1,0-0.2,0-0.3,0c-0.3,0-0.5-0.1-0.6-0.2
			c-0.1-0.2-0.2-0.4-0.2-0.6c0-0.3,0.1-0.5,0.2-0.6C8.2,35.1,8.4,35,8.7,35c0.1,0,0.2,0,0.3,0c0.1,0,0.2,0.1,0.3,0.1v0.2
			c-0.1-0.1-0.2-0.1-0.3-0.2c-0.1,0-0.2-0.1-0.3-0.1c-0.2,0-0.4,0.1-0.5,0.2c-0.1,0.1-0.2,0.3-0.2,0.5c0,0.2,0.1,0.4,0.2,0.5
			c0.1,0.1,0.3,0.2,0.5,0.2c0.1,0,0.1,0,0.2,0S9,36.5,9.1,36.5"/>
		<path class="st2" d="M10.1,35.1h0.3l0.6,1.7h-0.2l-0.2-0.4H9.9l-0.2,0.4H9.5L10.1,35.1 M10.3,35.3L10,36.1h0.6L10.3,35.3"/>
		<polyline class="st2" points="11.3,35.1 11.6,35.1 12.3,36.5 12.3,35.1 12.5,35.1 12.5,36.7 12.2,36.7 11.5,35.3 11.5,36.7 
			11.3,36.7 11.3,35.1 		"/>
		<line class="st2" x1="13.9" y1="31.2" x2="13.4" y2="31.2"/>
		<line class="st20" x1="13.9" y1="31.2" x2="13.4" y2="31.2"/>
		<path class="st2" d="M2.1,30.4h0.5c0.3,0,0.6,0.1,0.7,0.2c0.2,0.1,0.2,0.3,0.2,0.6c0,0.3-0.1,0.5-0.2,0.6
			c-0.2,0.1-0.4,0.2-0.7,0.2H2.1V30.4 M2.3,30.6v1.3h0.3c0.2,0,0.4-0.1,0.5-0.2c0.1-0.1,0.2-0.3,0.2-0.5c0-0.2-0.1-0.4-0.2-0.5
			c-0.1-0.1-0.3-0.2-0.5-0.2H2.3"/>
		<path class="st2" d="M4.7,31.3c0-0.1,0-0.2-0.1-0.3C4.6,31,4.5,31,4.4,31c-0.1,0-0.2,0-0.3,0.1C4.1,31.1,4,31.2,4,31.3H4.7
			 M4.9,31.4v0.1H4c0,0.1,0.1,0.3,0.1,0.3c0.1,0.1,0.2,0.1,0.3,0.1c0.1,0,0.2,0,0.2,0c0.1,0,0.1,0,0.2-0.1V32
			c-0.1,0-0.1,0.1-0.2,0.1c-0.1,0-0.2,0-0.2,0c-0.2,0-0.4-0.1-0.5-0.2c-0.1-0.1-0.2-0.3-0.2-0.5c0-0.2,0.1-0.4,0.2-0.5
			c0.1-0.1,0.3-0.2,0.4-0.2c0.2,0,0.3,0.1,0.4,0.2C4.9,31.1,4.9,31.2,4.9,31.4"/>
		<path class="st2" d="M6.3,31.3v0.8H6.1v-0.7c0-0.1,0-0.2-0.1-0.3C6,31,5.9,31,5.8,31c-0.1,0-0.2,0-0.3,0.1
			c-0.1,0.1-0.1,0.2-0.1,0.3v0.7H5.3v-1.3h0.2V31c0-0.1,0.1-0.1,0.2-0.2c0.1,0,0.1-0.1,0.2-0.1c0.1,0,0.3,0,0.3,0.1
			C6.3,31,6.3,31.1,6.3,31.3"/>
		<path class="st2" d="M7.5,30.9V31C7.5,31,7.4,31,7.4,31c-0.1,0-0.1,0-0.2,0c-0.1,0-0.2,0-0.2,0c-0.1,0-0.1,0.1-0.1,0.1
			c0,0,0,0.1,0.1,0.1c0,0,0.1,0.1,0.2,0.1l0.1,0c0.1,0,0.2,0.1,0.3,0.1c0.1,0.1,0.1,0.1,0.1,0.2c0,0.1,0,0.2-0.1,0.3
			c-0.1,0.1-0.2,0.1-0.4,0.1c-0.1,0-0.1,0-0.2,0c-0.1,0-0.1,0-0.2-0.1v-0.2c0.1,0,0.2,0.1,0.2,0.1c0.1,0,0.1,0,0.2,0
			c0.1,0,0.2,0,0.2,0c0.1,0,0.1-0.1,0.1-0.1c0-0.1,0-0.1-0.1-0.1s-0.1-0.1-0.2-0.1l-0.1,0c-0.1,0-0.2-0.1-0.3-0.1
			c-0.1-0.1-0.1-0.1-0.1-0.2c0-0.1,0-0.2,0.1-0.3c0.1-0.1,0.2-0.1,0.4-0.1c0.1,0,0.1,0,0.2,0C7.4,30.8,7.5,30.8,7.5,30.9"/>
		<path class="st2" d="M8.8,31.3c0-0.1,0-0.2-0.1-0.3C8.6,31,8.6,31,8.5,31c-0.1,0-0.2,0-0.3,0.1c-0.1,0.1-0.1,0.2-0.1,0.3H8.8
			 M9,31.4v0.1H8.1c0,0.1,0.1,0.3,0.1,0.3c0.1,0.1,0.2,0.1,0.3,0.1c0.1,0,0.2,0,0.2,0c0.1,0,0.1,0,0.2-0.1V32
			c-0.1,0-0.1,0.1-0.2,0.1c-0.1,0-0.2,0-0.2,0c-0.2,0-0.4-0.1-0.5-0.2c-0.1-0.1-0.2-0.3-0.2-0.5c0-0.2,0.1-0.4,0.2-0.5
			c0.1-0.1,0.3-0.2,0.4-0.2c0.2,0,0.3,0.1,0.4,0.2C9,31.1,9,31.2,9,31.4"/>
		<path class="st2" d="M10.5,30.4h0.3l0.6,1.7h-0.2L11,31.6h-0.8l-0.2,0.4H9.9L10.5,30.4 M10.6,30.6l-0.3,0.8h0.6L10.6,30.6"/>
		<polyline class="st2" points="11.6,30.4 12.7,30.4 12.7,30.6 11.9,30.6 11.9,31.1 12.7,31.1 12.7,31.3 11.9,31.3 11.9,31.9 
			12.7,31.9 12.7,32.1 11.6,32.1 11.6,30.4 		"/>
		<line class="st2" x1="13.9" y1="26.5" x2="13.4" y2="26.5"/>
		<line class="st20" x1="13.9" y1="26.5" x2="13.4" y2="26.5"/>
		<polyline class="st2" points="8,25.7 8.2,25.7 8.2,26.4 9,26.4 9,25.7 9.3,25.7 9.3,27.4 9,27.4 9,26.6 8.2,26.6 8.2,27.4 8,27.4 
			8,25.7 		"/>
		<polyline class="st2" points="9.5,25.7 10.9,25.7 10.9,25.9 10.3,25.9 10.3,27.4 10.1,27.4 10.1,25.9 9.5,25.9 9.5,25.7 		"/>
		<polyline class="st2" points="11.1,25.7 11.5,25.7 11.9,26.9 12.3,25.7 12.6,25.7 12.6,27.4 12.4,27.4 12.4,25.9 12,27.1 
			11.8,27.1 11.3,25.9 11.3,27.4 11.1,27.4 11.1,25.7 		"/>
		<line class="st2" x1="13.9" y1="21.8" x2="13.4" y2="21.8"/>
		<line class="st20" x1="13.9" y1="21.8" x2="13.4" y2="21.8"/>
		<polyline class="st2" points="3.2,21 3.5,21 3.5,22.5 4.3,22.5 4.3,22.7 3.2,22.7 3.2,21 		"/>
		<path class="st2" d="M5.5,21.1v0.2c-0.1,0-0.2-0.1-0.2-0.1c-0.1,0-0.2,0-0.2,0c-0.1,0-0.2,0-0.3,0.1c-0.1,0-0.1,0.1-0.1,0.2
			c0,0.1,0,0.1,0.1,0.2c0,0,0.1,0.1,0.3,0.1l0.1,0c0.2,0,0.3,0.1,0.4,0.2c0.1,0.1,0.1,0.2,0.1,0.3c0,0.2-0.1,0.3-0.2,0.4
			c-0.1,0.1-0.3,0.1-0.5,0.1c-0.1,0-0.2,0-0.3,0c-0.1,0-0.2,0-0.3-0.1v-0.2c0.1,0.1,0.2,0.1,0.3,0.1c0.1,0,0.2,0,0.3,0
			c0.1,0,0.2,0,0.3-0.1c0.1-0.1,0.1-0.1,0.1-0.2c0-0.1,0-0.1-0.1-0.2C5.3,22,5.2,22,5.1,22l-0.1,0c-0.2,0-0.3-0.1-0.4-0.2
			c-0.1-0.1-0.1-0.2-0.1-0.3c0-0.1,0.1-0.3,0.2-0.3C4.7,21.1,4.8,21,5,21c0.1,0,0.2,0,0.2,0C5.3,21.1,5.4,21.1,5.5,21.1"/>
		<polyline class="st2" points="5.7,21 7.2,21 7.2,21.2 6.6,21.2 6.6,22.7 6.3,22.7 6.3,21.2 5.7,21.2 5.7,21 		"/>
		<polyline class="st2" points="7.4,21 7.7,21 8.1,22.2 8.6,21 8.9,21 8.9,22.7 8.7,22.7 8.7,21.3 8.2,22.4 8,22.4 7.6,21.3 
			7.6,22.7 7.4,22.7 7.4,21 		"/>
		<path class="st2" d="M10.5,21h0.3l0.6,1.7h-0.2L11,22.3h-0.8l-0.2,0.4H9.9L10.5,21 M10.6,21.3l-0.3,0.8h0.6L10.6,21.3"/>
		<polyline class="st2" points="11.6,21 12.7,21 12.7,21.2 11.9,21.2 11.9,21.7 12.7,21.7 12.7,21.9 11.9,21.9 11.9,22.5 12.7,22.5 
			12.7,22.7 11.6,22.7 11.6,21 		"/>
		<line class="st2" x1="13.9" y1="17.2" x2="13.4" y2="17.2"/>
		<line class="st20" x1="13.9" y1="17.2" x2="13.4" y2="17.2"/>
		<path class="st2" d="M3.9,16.4h0.5c0.3,0,0.6,0.1,0.7,0.2c0.2,0.1,0.2,0.3,0.2,0.6c0,0.3-0.1,0.5-0.2,0.6C4.9,18,4.7,18,4.4,18
			H3.9V16.4 M4.1,16.6v1.3h0.3c0.2,0,0.4-0.1,0.5-0.2c0.1-0.1,0.2-0.3,0.2-0.5c0-0.2-0.1-0.4-0.2-0.5c-0.1-0.1-0.3-0.2-0.5-0.2H4.1"
			/>
		<path class="st2" d="M6.5,17.3c0-0.1,0-0.2-0.1-0.3c-0.1-0.1-0.1-0.1-0.2-0.1c-0.1,0-0.2,0-0.3,0.1c-0.1,0.1-0.1,0.2-0.1,0.3H6.5
			 M6.7,17.4v0.1H5.8c0,0.1,0.1,0.3,0.1,0.3c0.1,0.1,0.2,0.1,0.3,0.1c0.1,0,0.2,0,0.2,0c0.1,0,0.1,0,0.2-0.1V18
			C6.6,18,6.5,18,6.4,18c-0.1,0-0.2,0-0.2,0c-0.2,0-0.4-0.1-0.5-0.2c-0.1-0.1-0.2-0.3-0.2-0.5c0-0.2,0.1-0.4,0.2-0.5
			c0.1-0.1,0.3-0.2,0.4-0.2c0.2,0,0.3,0.1,0.4,0.2C6.7,17,6.7,17.2,6.7,17.4"/>
		<path class="st2" d="M7.9,17.3c0-0.1,0-0.2-0.1-0.3c-0.1-0.1-0.1-0.1-0.2-0.1c-0.1,0-0.2,0-0.3,0.1c-0.1,0.1-0.1,0.2-0.1,0.3H7.9
			 M8.1,17.4v0.1H7.2c0,0.1,0.1,0.3,0.1,0.3c0.1,0.1,0.2,0.1,0.3,0.1c0.1,0,0.2,0,0.2,0c0.1,0,0.1,0,0.2-0.1V18C8,18,7.9,18,7.9,18
			c-0.1,0-0.2,0-0.2,0c-0.2,0-0.4-0.1-0.5-0.2C7,17.8,7,17.6,7,17.4c0-0.2,0.1-0.4,0.2-0.5c0.1-0.1,0.3-0.2,0.4-0.2
			c0.2,0,0.3,0.1,0.4,0.2C8.1,17,8.1,17.2,8.1,17.4"/>
		<path class="st2" d="M9.4,17.4c0-0.2,0-0.3-0.1-0.4C9.2,17,9.1,16.9,9,16.9c-0.1,0-0.2,0-0.3,0.1c-0.1,0.1-0.1,0.2-0.1,0.4
			c0,0.2,0,0.3,0.1,0.4c0.1,0.1,0.1,0.1,0.3,0.1c0.1,0,0.2,0,0.3-0.1C9.3,17.7,9.4,17.6,9.4,17.4 M8.7,17.9v0.7H8.5v-1.7h0.2V17
			c0-0.1,0.1-0.1,0.2-0.2c0.1,0,0.1-0.1,0.2-0.1c0.2,0,0.3,0.1,0.4,0.2c0.1,0.1,0.1,0.3,0.1,0.5c0,0.2,0,0.4-0.1,0.5
			c-0.1,0.1-0.2,0.2-0.4,0.2c-0.1,0-0.2,0-0.2-0.1C8.8,18,8.7,17.9,8.7,17.9"/>
		<path class="st2" d="M10.4,16.4h0.3l0.6,1.7H11l-0.2-0.4h-0.8L10,18H9.7L10.4,16.4 M10.5,16.6l-0.3,0.8h0.6L10.5,16.6"/>
		<path class="st2" d="M11.7,16.6v0.6H12c0.1,0,0.2,0,0.2-0.1c0.1-0.1,0.1-0.1,0.1-0.2c0-0.1,0-0.2-0.1-0.2
			c-0.1-0.1-0.1-0.1-0.2-0.1H11.7 M12.3,17.3c0,0,0.1,0.1,0.1,0.1c0,0.1,0.1,0.1,0.1,0.2l0.2,0.5h-0.2l-0.2-0.4
			c-0.1-0.1-0.1-0.2-0.2-0.2c-0.1,0-0.1-0.1-0.2-0.1h-0.2V18h-0.2v-1.7H12c0.2,0,0.3,0,0.4,0.1c0.1,0.1,0.1,0.2,0.1,0.4
			c0,0.1,0,0.2-0.1,0.3C12.5,17.2,12.4,17.2,12.3,17.3"/>
		<line class="st2" x1="13.9" y1="12.5" x2="13.4" y2="12.5"/>
		<line class="st20" x1="13.9" y1="12.5" x2="13.4" y2="12.5"/>
		<polyline class="st2" points="7,11.7 7.2,11.7 7.2,13.2 8,13.2 8,13.4 7,13.4 7,11.7 		"/>
		<path class="st2" d="M9.3,11.7V12c-0.1,0-0.2-0.1-0.2-0.1c-0.1,0-0.2,0-0.2,0c-0.1,0-0.2,0-0.3,0.1c-0.1,0-0.1,0.1-0.1,0.2
			c0,0.1,0,0.1,0.1,0.2c0,0,0.1,0.1,0.3,0.1l0.1,0c0.2,0,0.3,0.1,0.4,0.2c0.1,0.1,0.1,0.2,0.1,0.3c0,0.2-0.1,0.3-0.2,0.4
			c-0.1,0.1-0.3,0.1-0.5,0.1c-0.1,0-0.2,0-0.3,0c-0.1,0-0.2,0-0.3-0.1v-0.2c0.1,0.1,0.2,0.1,0.3,0.1c0.1,0,0.2,0,0.3,0
			c0.1,0,0.2,0,0.3-0.1c0.1-0.1,0.1-0.1,0.1-0.2c0-0.1,0-0.1-0.1-0.2c-0.1,0-0.1-0.1-0.2-0.1l-0.1,0c-0.2,0-0.3-0.1-0.4-0.2
			c-0.1-0.1-0.1-0.2-0.1-0.3c0-0.1,0.1-0.3,0.2-0.3c0.1-0.1,0.2-0.1,0.4-0.1c0.1,0,0.2,0,0.2,0C9.1,11.7,9.2,11.7,9.3,11.7"/>
		<polyline class="st2" points="9.5,11.7 10.9,11.7 10.9,11.9 10.3,11.9 10.3,13.4 10.1,13.4 10.1,11.9 9.5,11.9 9.5,11.7 		"/>
		<polyline class="st2" points="11.1,11.7 11.5,11.7 11.9,12.8 12.3,11.7 12.6,11.7 12.6,13.4 12.4,13.4 12.4,11.9 12,13 11.8,13 
			11.3,11.9 11.3,13.4 11.1,13.4 11.1,11.7 		"/>
		<line class="st2" x1="13.9" y1="7.8" x2="13.4" y2="7.8"/>
		<line class="st20" x1="13.9" y1="7.8" x2="13.4" y2="7.8"/>
		<polyline class="st2" points="3.3,7 4.7,7 4.7,7.2 4.1,7.2 4.1,8.7 3.8,8.7 3.8,7.2 3.3,7.2 3.3,7 		"/>
		<path class="st2" d="M5.3,7h0.3l0.6,1.7H6L5.8,8.3H5.1L4.9,8.7H4.7L5.3,7 M5.4,7.2L5.1,8.1h0.6L5.4,7.2"/>
		<path class="st2" d="M6.5,7h0.5c0.3,0,0.6,0.1,0.7,0.2c0.2,0.1,0.2,0.3,0.2,0.6c0,0.3-0.1,0.5-0.2,0.6C7.5,8.6,7.2,8.7,6.9,8.7
			H6.5V7 M6.7,7.2v1.3h0.3c0.2,0,0.4-0.1,0.5-0.2c0.1-0.1,0.2-0.3,0.2-0.5c0-0.2-0.1-0.4-0.2-0.5C7.3,7.3,7.2,7.2,6.9,7.2H6.7"/>
		<path class="st2" d="M9.4,8.4V8H9V7.8h0.6v0.7C9.5,8.6,9.4,8.6,9.3,8.7c-0.1,0-0.2,0-0.3,0c-0.3,0-0.5-0.1-0.6-0.2
			C8.2,8.3,8.1,8.1,8.1,7.9c0-0.3,0.1-0.5,0.2-0.6C8.5,7.1,8.7,7,9,7c0.1,0,0.2,0,0.3,0c0.1,0,0.2,0.1,0.3,0.1v0.2
			C9.4,7.3,9.4,7.3,9.3,7.2C9.2,7.2,9.1,7.2,9,7.2c-0.2,0-0.4,0.1-0.5,0.2C8.4,7.5,8.4,7.6,8.4,7.9c0,0.2,0.1,0.4,0.2,0.5
			C8.6,8.5,8.8,8.5,9,8.5c0.1,0,0.1,0,0.2,0C9.2,8.5,9.3,8.5,9.4,8.4"/>
		<path class="st2" d="M10.4,7h0.3l0.6,1.7h-0.2l-0.2-0.4h-0.8L10,8.7H9.8L10.4,7 M10.5,7.2l-0.3,0.8h0.6L10.5,7.2"/>
		<polyline class="st2" points="11.6,7 11.9,7 12.6,8.4 12.6,7 12.8,7 12.8,8.7 12.5,8.7 11.8,7.3 11.8,8.7 11.6,8.7 11.6,7 		"/>
		<g class="st2">
			<defs>
				<rect id="SVGID_43_" x="13.9" y="4.1" width="55.4" height="40.1"/>
			</defs>
			<clipPath id="SVGID_44_">
				<use xlink:href="#SVGID_43_"  style="overflow:visible;"/>
			</clipPath>
			<line class="st31" x1="50.8" y1="44.2" x2="50.8" y2="4.1"/>
		</g>
		<line class="st32" x1="13.9" y1="44.2" x2="13.9" y2="4.1"/>
		<line class="st32" x1="69.3" y1="44.2" x2="69.3" y2="4.1"/>
		<line class="st32" x1="13.9" y1="44.2" x2="69.3" y2="44.2"/>
		<line class="st32" x1="13.9" y1="4.1" x2="69.3" y2="4.1"/>
		<polyline class="st2" points="23.5,40.4 24,40.4 24,40.6 23.5,40.6 23.5,40.4 		"/>
		<path class="st2" d="M25.2,39.6v0.2c-0.1,0-0.1,0-0.2-0.1c-0.1,0-0.1,0-0.2,0c-0.1,0-0.2,0-0.3,0.1c-0.1,0.1-0.1,0.2-0.1,0.4
			c0-0.1,0.1-0.1,0.1-0.1c0.1,0,0.1,0,0.2,0c0.1,0,0.3,0,0.3,0.1s0.1,0.2,0.1,0.4c0,0.2,0,0.3-0.1,0.4C25,41,24.9,41,24.8,41
			c-0.2,0-0.3-0.1-0.4-0.2c-0.1-0.1-0.1-0.3-0.1-0.6c0-0.2,0.1-0.4,0.2-0.6c0.1-0.1,0.3-0.2,0.4-0.2c0,0,0.1,0,0.2,0
			C25.1,39.6,25.1,39.6,25.2,39.6 M24.8,40.2c-0.1,0-0.2,0-0.2,0.1s-0.1,0.1-0.1,0.2c0,0.1,0,0.2,0.1,0.3s0.1,0.1,0.2,0.1
			c0.1,0,0.2,0,0.2-0.1s0.1-0.1,0.1-0.3c0-0.1,0-0.2-0.1-0.2S24.9,40.2,24.8,40.2"/>
		<path class="st2" d="M26.2,40.2c0.1,0,0.2,0.1,0.2,0.1c0.1,0.1,0.1,0.1,0.1,0.2c0,0.1-0.1,0.3-0.1,0.3C26.3,41,26.1,41,25.9,41
			c-0.1,0-0.1,0-0.2,0c-0.1,0-0.1,0-0.2-0.1v-0.2c0.1,0,0.1,0.1,0.2,0.1c0.1,0,0.1,0,0.2,0c0.1,0,0.2,0,0.3-0.1
			c0.1,0,0.1-0.1,0.1-0.2c0-0.1,0-0.2-0.1-0.2c-0.1,0-0.1-0.1-0.3-0.1h-0.2v-0.2H26c0.1,0,0.2,0,0.2-0.1c0.1,0,0.1-0.1,0.1-0.2
			c0-0.1,0-0.1-0.1-0.2c-0.1,0-0.1-0.1-0.2-0.1c-0.1,0-0.1,0-0.2,0c-0.1,0-0.1,0-0.2,0.1v-0.2c0.1,0,0.1,0,0.2,0c0.1,0,0.1,0,0.2,0
			c0.1,0,0.3,0,0.4,0.1c0.1,0.1,0.1,0.2,0.1,0.3c0,0.1,0,0.1-0.1,0.2C26.4,40.2,26.3,40.2,26.2,40.2"/>
		<polyline class="st2" points="26.9,40.8 27.1,40.8 27.1,41 26.9,41 26.9,40.8 		"/>
		<path class="st2" d="M28,39.6h0.2v1h0.2v0.2h-0.2V41h-0.2v-0.3h-0.7v-0.2L28,39.6 M28.1,39.7l-0.5,0.8h0.5V39.7"/>
		<path class="st2" d="M29,39.5c0.1,0,0.2,0,0.2,0.1c0.1,0.1,0.1,0.2,0.1,0.3c0,0.1,0,0.2-0.1,0.3c-0.1,0.1-0.1,0.1-0.2,0.1
			c-0.1,0-0.2,0-0.2-0.1c-0.1-0.1-0.1-0.2-0.1-0.3c0-0.1,0-0.2,0.1-0.3C28.8,39.6,28.9,39.5,29,39.5 M29.9,39.5h0.2L29.1,41H29
			L29.9,39.5 M29,39.7c-0.1,0-0.1,0-0.1,0.1c0,0,0,0.1,0,0.2c0,0.1,0,0.2,0,0.2c0,0,0.1,0.1,0.1,0.1c0.1,0,0.1,0,0.1-0.1
			c0,0,0-0.1,0-0.2c0-0.1,0-0.2-0.1-0.2C29.1,39.7,29.1,39.7,29,39.7 M30,40.3c0.1,0,0.2,0,0.2,0.1c0.1,0.1,0.1,0.2,0.1,0.3
			c0,0.1,0,0.2-0.1,0.3C30.2,41,30.1,41,30,41c-0.1,0-0.2,0-0.2-0.1c-0.1-0.1-0.1-0.2-0.1-0.3c0-0.1,0-0.2,0.1-0.3
			C29.8,40.3,29.9,40.3,30,40.3 M30,40.4c-0.1,0-0.1,0-0.1,0.1s0,0.1,0,0.2c0,0.1,0,0.2,0,0.2c0,0,0.1,0.1,0.1,0.1
			c0.1,0,0.1,0,0.1-0.1c0,0,0-0.1,0-0.2c0-0.1,0-0.2,0-0.2C30.1,40.4,30.1,40.4,30,40.4"/>
		<polyline class="st2" points="33.6,35.7 34.1,35.7 34.1,35.9 33.6,35.9 33.6,35.7 		"/>
		<path class="st2" d="M34.9,34.9h0.2v1h0.2V36h-0.2v0.3H35V36h-0.7v-0.2L34.9,34.9 M35,35.1l-0.5,0.8H35V35.1"/>
		<polyline class="st2" points="35.8,36.2 36.1,36.2 36.1,35.1 35.7,35.1 35.7,35 36.1,34.9 36.3,34.9 36.3,36.2 36.6,36.2 
			36.6,36.3 35.8,36.3 35.8,36.2 		"/>
		<polyline class="st2" points="37,36.1 37.2,36.1 37.2,36.3 37,36.3 37,36.1 		"/>
		<path class="st2" d="M37.6,34.9h0.8v0.2h-0.6v0.4c0,0,0.1,0,0.1,0c0,0,0.1,0,0.1,0c0.2,0,0.3,0,0.4,0.1c0.1,0.1,0.1,0.2,0.1,0.4
			c0,0.2-0.1,0.3-0.1,0.4c-0.1,0.1-0.2,0.1-0.4,0.1c-0.1,0-0.1,0-0.2,0c-0.1,0-0.1,0-0.2,0v-0.2c0.1,0,0.1,0.1,0.2,0.1
			c0.1,0,0.1,0,0.2,0c0.1,0,0.2,0,0.3-0.1c0.1-0.1,0.1-0.1,0.1-0.2c0-0.1,0-0.2-0.1-0.2c-0.1-0.1-0.2-0.1-0.3-0.1
			c-0.1,0-0.1,0-0.2,0c-0.1,0-0.1,0-0.2,0.1V34.9"/>
		<path class="st2" d="M39.1,34.9c0.1,0,0.2,0,0.2,0.1c0.1,0.1,0.1,0.2,0.1,0.3c0,0.1,0,0.2-0.1,0.3c-0.1,0.1-0.1,0.1-0.2,0.1
			c-0.1,0-0.2,0-0.2-0.1c-0.1-0.1-0.1-0.2-0.1-0.3c0-0.1,0-0.2,0.1-0.3C39,34.9,39,34.9,39.1,34.9 M40,34.9h0.2l-0.9,1.5h-0.2
			L40,34.9 M39.1,35c-0.1,0-0.1,0-0.1,0.1c0,0,0,0.1,0,0.2c0,0.1,0,0.2,0,0.2c0,0,0.1,0.1,0.1,0.1c0.1,0,0.1,0,0.1-0.1
			c0,0,0-0.1,0-0.2c0-0.1,0-0.2-0.1-0.2C39.2,35,39.2,35,39.1,35 M40.1,35.6c0.1,0,0.2,0,0.2,0.1c0.1,0.1,0.1,0.2,0.1,0.3
			c0,0.1,0,0.2-0.1,0.3c-0.1,0.1-0.1,0.1-0.2,0.1c-0.1,0-0.2,0-0.2-0.1c-0.1-0.1-0.1-0.2-0.1-0.3c0-0.1,0-0.2,0.1-0.3
			C40,35.6,40,35.6,40.1,35.6 M40.1,35.7c-0.1,0-0.1,0-0.1,0.1c0,0,0,0.1,0,0.2c0,0.1,0,0.2,0,0.2c0,0,0.1,0.1,0.1,0.1
			s0.1,0,0.1-0.1c0,0,0-0.1,0-0.2c0-0.1,0-0.2,0-0.2C40.2,35.7,40.2,35.7,40.1,35.7"/>
		<polyline class="st2" points="33.8,31 34.3,31 34.3,31.2 33.8,31.2 33.8,31 		"/>
		<path class="st2" d="M35.1,30.2h0.2v1h0.2v0.2h-0.2v0.3h-0.2v-0.3h-0.7v-0.2L35.1,30.2 M35.2,30.4l-0.5,0.8h0.5V30.4"/>
		<polyline class="st2" points="35.9,31.5 36.3,31.5 36.3,30.4 35.9,30.5 35.9,30.3 36.3,30.2 36.5,30.2 36.5,31.5 36.8,31.5 
			36.8,31.7 35.9,31.7 35.9,31.5 		"/>
		<polyline class="st2" points="37.2,31.4 37.4,31.4 37.4,31.7 37.2,31.7 37.2,31.4 		"/>
		<polyline class="st2" points="37.9,31.5 38.2,31.5 38.2,30.4 37.8,30.5 37.8,30.3 38.2,30.2 38.4,30.2 38.4,31.5 38.7,31.5 
			38.7,31.7 37.9,31.7 37.9,31.5 		"/>
		<path class="st2" d="M39.3,30.2c0.1,0,0.2,0,0.2,0.1c0.1,0.1,0.1,0.2,0.1,0.3c0,0.1,0,0.2-0.1,0.3c-0.1,0.1-0.1,0.1-0.2,0.1
			c-0.1,0-0.2,0-0.2-0.1S39,30.7,39,30.6c0-0.1,0-0.2,0.1-0.3C39.1,30.2,39.2,30.2,39.3,30.2 M40.2,30.2h0.2l-0.9,1.5h-0.2
			L40.2,30.2 M39.3,30.3c-0.1,0-0.1,0-0.1,0.1c0,0,0,0.1,0,0.2c0,0.1,0,0.2,0,0.2c0,0,0.1,0.1,0.1,0.1s0.1,0,0.1-0.1
			c0,0,0-0.1,0-0.2c0-0.1,0-0.2-0.1-0.2C39.4,30.3,39.4,30.3,39.3,30.3 M40.3,30.9c0.1,0,0.2,0,0.2,0.1c0.1,0.1,0.1,0.2,0.1,0.3
			c0,0.1,0,0.2-0.1,0.3c-0.1,0.1-0.1,0.1-0.2,0.1c-0.1,0-0.2,0-0.2-0.1C40,31.5,40,31.4,40,31.3s0-0.2,0.1-0.3
			C40.1,30.9,40.2,30.9,40.3,30.9 M40.3,31c-0.1,0-0.1,0-0.1,0.1c0,0,0,0.1,0,0.2c0,0.1,0,0.2,0,0.2c0,0,0.1,0.1,0.1,0.1
			c0.1,0,0.1,0,0.1-0.1c0,0,0-0.1,0-0.2s0-0.2,0-0.2C40.4,31.1,40.4,31,40.3,31"/>
		<polyline class="st2" points="34.6,26.4 35.1,26.4 35.1,26.5 34.6,26.5 34.6,26.4 		"/>
		<polyline class="st2" points="35.5,26.8 35.8,26.8 35.8,25.7 35.5,25.8 35.5,25.6 35.8,25.5 36,25.5 36,26.8 36.3,26.8 36.3,27 
			35.5,27 35.5,26.8 		"/>
		<path class="st2" d="M36.9,25.9c0,0.1,0,0.1,0.1,0.2c0,0,0.1,0.1,0.2,0.1c0.1,0,0.2,0,0.2-0.1c0,0,0.1-0.1,0.1-0.2
			c0-0.1,0-0.1-0.1-0.2c0,0-0.1-0.1-0.2-0.1c-0.1,0-0.2,0-0.2,0.1C36.9,25.8,36.9,25.8,36.9,25.9 M37,26.2c-0.1,0-0.2-0.1-0.2-0.1
			c0-0.1-0.1-0.1-0.1-0.2c0-0.1,0-0.2,0.1-0.3c0.1-0.1,0.2-0.1,0.3-0.1c0.1,0,0.3,0,0.3,0.1c0.1,0.1,0.1,0.2,0.1,0.3
			c0,0.1,0,0.2-0.1,0.2c0,0.1-0.1,0.1-0.2,0.1c0.1,0,0.2,0.1,0.2,0.1c0.1,0.1,0.1,0.1,0.1,0.2c0,0.1,0,0.3-0.1,0.3
			C37.4,27,37.3,27,37.2,27c-0.2,0-0.3,0-0.4-0.1c-0.1-0.1-0.1-0.2-0.1-0.3c0-0.1,0-0.2,0.1-0.2C36.8,26.3,36.9,26.2,37,26.2
			 M37.2,26.3c-0.1,0-0.2,0-0.2,0.1c-0.1,0.1-0.1,0.1-0.1,0.2c0,0.1,0,0.2,0.1,0.2c0.1,0.1,0.1,0.1,0.2,0.1c0.1,0,0.2,0,0.2-0.1
			c0.1-0.1,0.1-0.1,0.1-0.2c0-0.1,0-0.2-0.1-0.2C37.3,26.3,37.3,26.3,37.2,26.3"/>
		<polyline class="st2" points="38,26.7 38.2,26.7 38.2,27 38,27 38,26.7 		"/>
		<path class="st2" d="M39.2,26.2c0.1,0,0.2,0.1,0.2,0.1c0.1,0.1,0.1,0.1,0.1,0.2c0,0.1-0.1,0.3-0.1,0.3C39.3,27,39.2,27,39,27
			c-0.1,0-0.1,0-0.2,0c-0.1,0-0.1,0-0.2-0.1v-0.2c0.1,0,0.1,0.1,0.2,0.1c0.1,0,0.1,0,0.2,0c0.1,0,0.2,0,0.3-0.1
			c0.1,0,0.1-0.1,0.1-0.2c0-0.1,0-0.2-0.1-0.2c-0.1,0-0.1-0.1-0.3-0.1h-0.2v-0.2H39c0.1,0,0.2,0,0.2-0.1c0.1,0,0.1-0.1,0.1-0.2
			s0-0.1-0.1-0.2c-0.1,0-0.1-0.1-0.2-0.1c-0.1,0-0.1,0-0.2,0c-0.1,0-0.1,0-0.2,0.1v-0.2c0.1,0,0.1,0,0.2,0c0.1,0,0.1,0,0.2,0
			c0.1,0,0.3,0,0.4,0.1c0.1,0.1,0.1,0.2,0.1,0.3c0,0.1,0,0.1-0.1,0.2C39.4,26.1,39.3,26.2,39.2,26.2"/>
		<path class="st2" d="M40.2,25.5c0.1,0,0.2,0,0.2,0.1c0.1,0.1,0.1,0.2,0.1,0.3c0,0.1,0,0.2-0.1,0.3c-0.1,0.1-0.1,0.1-0.2,0.1
			c-0.1,0-0.2,0-0.2-0.1c-0.1-0.1-0.1-0.2-0.1-0.3c0-0.1,0-0.2,0.1-0.3C40,25.5,40.1,25.5,40.2,25.5 M41,25.5h0.2L40.3,27h-0.2
			L41,25.5 M40.2,25.6c-0.1,0-0.1,0-0.1,0.1c0,0,0,0.1,0,0.2c0,0.1,0,0.2,0,0.2c0,0,0.1,0.1,0.1,0.1s0.1,0,0.1-0.1c0,0,0-0.1,0-0.2
			c0-0.1,0-0.2-0.1-0.2C40.3,25.7,40.2,25.6,40.2,25.6 M41.2,26.2c0.1,0,0.2,0,0.2,0.1s0.1,0.2,0.1,0.3c0,0.1,0,0.2-0.1,0.3
			C41.3,27,41.3,27,41.2,27c-0.1,0-0.2,0-0.2-0.1c-0.1-0.1-0.1-0.2-0.1-0.3c0-0.1,0-0.2,0.1-0.3C41,26.3,41.1,26.2,41.2,26.2
			 M41.2,26.3c-0.1,0-0.1,0-0.1,0.1c0,0,0,0.1,0,0.2c0,0.1,0,0.2,0,0.2c0,0,0.1,0.1,0.1,0.1c0.1,0,0.1,0,0.1-0.1c0,0,0-0.1,0-0.2
			s0-0.2,0-0.2C41.3,26.4,41.2,26.3,41.2,26.3"/>
		<polyline class="st2" points="40.7,21.7 41.2,21.7 41.2,21.8 40.7,21.8 40.7,21.7 		"/>
		<path class="st2" d="M41.7,21.2c0,0.1,0,0.1,0.1,0.2c0,0,0.1,0.1,0.2,0.1c0.1,0,0.2,0,0.2-0.1c0,0,0.1-0.1,0.1-0.2
			c0-0.1,0-0.1-0.1-0.2c0,0-0.1-0.1-0.2-0.1c-0.1,0-0.2,0-0.2,0.1C41.7,21.1,41.7,21.1,41.7,21.2 M41.7,21.5c-0.1,0-0.2-0.1-0.2-0.1
			c0-0.1-0.1-0.1-0.1-0.2c0-0.1,0-0.2,0.1-0.3c0.1-0.1,0.2-0.1,0.3-0.1c0.1,0,0.3,0,0.3,0.1c0.1,0.1,0.1,0.2,0.1,0.3
			c0,0.1,0,0.2-0.1,0.2c0,0.1-0.1,0.1-0.2,0.1c0.1,0,0.2,0.1,0.2,0.1c0.1,0.1,0.1,0.1,0.1,0.2c0,0.1,0,0.3-0.1,0.3
			c-0.1,0.1-0.2,0.1-0.4,0.1c-0.2,0-0.3,0-0.4-0.1c-0.1-0.1-0.1-0.2-0.1-0.3c0-0.1,0-0.2,0.1-0.2C41.6,21.6,41.6,21.6,41.7,21.5
			 M41.9,21.6c-0.1,0-0.2,0-0.2,0.1c-0.1,0.1-0.1,0.1-0.1,0.2c0,0.1,0,0.2,0.1,0.2c0.1,0.1,0.1,0.1,0.2,0.1c0.1,0,0.2,0,0.2-0.1
			c0.1-0.1,0.1-0.1,0.1-0.2c0-0.1,0-0.2-0.1-0.2C42.1,21.6,42,21.6,41.9,21.6"/>
		<polyline class="st2" points="42.8,22.1 43,22.1 43,22.3 42.8,22.3 42.8,22.1 		"/>
		<path class="st2" d="M43.6,22.1h0.7v0.2h-0.9v-0.2c0.1-0.1,0.2-0.2,0.3-0.3c0.1-0.1,0.2-0.2,0.2-0.3c0.1-0.1,0.1-0.1,0.1-0.2
			c0,0,0-0.1,0-0.1c0-0.1,0-0.1-0.1-0.2c-0.1,0-0.1-0.1-0.2-0.1c-0.1,0-0.1,0-0.2,0c-0.1,0-0.1,0.1-0.2,0.1v-0.2
			c0.1,0,0.2-0.1,0.2-0.1c0.1,0,0.1,0,0.2,0c0.2,0,0.3,0,0.4,0.1s0.1,0.2,0.1,0.3c0,0.1,0,0.1,0,0.2c0,0.1-0.1,0.1-0.1,0.2
			c0,0-0.1,0.1-0.2,0.2C43.9,21.9,43.8,22,43.6,22.1"/>
		<path class="st2" d="M44.9,20.8c0.1,0,0.2,0,0.2,0.1c0.1,0.1,0.1,0.2,0.1,0.3c0,0.1,0,0.2-0.1,0.3s-0.1,0.1-0.2,0.1
			c-0.1,0-0.2,0-0.2-0.1c-0.1-0.1-0.1-0.2-0.1-0.3c0-0.1,0-0.2,0.1-0.3C44.7,20.9,44.8,20.8,44.9,20.8 M45.8,20.8H46l-0.9,1.5h-0.2
			L45.8,20.8 M44.9,21c-0.1,0-0.1,0-0.1,0.1c0,0,0,0.1,0,0.2c0,0.1,0,0.2,0,0.2c0,0,0.1,0.1,0.1,0.1c0.1,0,0.1,0,0.1-0.1
			c0,0,0-0.1,0-0.2c0-0.1,0-0.2-0.1-0.2C45,21,45,21,44.9,21 M45.9,21.5c0.1,0,0.2,0,0.2,0.1s0.1,0.2,0.1,0.3c0,0.1,0,0.2-0.1,0.3
			c-0.1,0.1-0.1,0.1-0.2,0.1c-0.1,0-0.2,0-0.2-0.1c-0.1-0.1-0.1-0.2-0.1-0.3s0-0.2,0.1-0.3S45.8,21.5,45.9,21.5 M45.9,21.7
			c-0.1,0-0.1,0-0.1,0.1c0,0,0,0.1,0,0.2c0,0.1,0,0.2,0,0.2c0,0,0.1,0.1,0.1,0.1c0.1,0,0.1,0,0.1-0.1c0,0,0-0.1,0-0.2s0-0.2,0-0.2
			C46,21.7,46,21.7,45.9,21.7"/>
		<polyline class="st2" points="41.1,17 41.7,17 41.7,17.2 41.1,17.2 41.1,17 		"/>
		<polyline class="st2" points="41.9,16.2 42.9,16.2 42.9,16.3 42.3,17.6 42.1,17.6 42.6,16.3 41.9,16.3 41.9,16.2 		"/>
		<polyline class="st2" points="43.3,17.4 43.5,17.4 43.5,17.6 43.3,17.6 43.3,17.4 		"/>
		<path class="st2" d="M44.1,17.5h0.7v0.2h-0.9v-0.2c0.1-0.1,0.2-0.2,0.3-0.3c0.1-0.1,0.2-0.2,0.2-0.3c0.1-0.1,0.1-0.1,0.1-0.2
			c0,0,0-0.1,0-0.1c0-0.1,0-0.1-0.1-0.2c-0.1,0-0.1-0.1-0.2-0.1c-0.1,0-0.1,0-0.2,0c-0.1,0-0.1,0.1-0.2,0.1v-0.2
			c0.1,0,0.2-0.1,0.2-0.1c0.1,0,0.1,0,0.2,0c0.2,0,0.3,0,0.4,0.1c0.1,0.1,0.1,0.2,0.1,0.3c0,0.1,0,0.1,0,0.2c0,0.1-0.1,0.1-0.1,0.2
			c0,0-0.1,0.1-0.2,0.2C44.3,17.2,44.2,17.3,44.1,17.5"/>
		<path class="st2" d="M45.4,16.2c0.1,0,0.2,0,0.2,0.1c0.1,0.1,0.1,0.2,0.1,0.3c0,0.1,0,0.2-0.1,0.3c-0.1,0.1-0.1,0.1-0.2,0.1
			c-0.1,0-0.2,0-0.2-0.1c-0.1-0.1-0.1-0.2-0.1-0.3c0-0.1,0-0.2,0.1-0.3C45.2,16.2,45.3,16.2,45.4,16.2 M46.3,16.2h0.2l-0.9,1.5h-0.2
			L46.3,16.2 M45.4,16.3c-0.1,0-0.1,0-0.1,0.1c0,0,0,0.1,0,0.2c0,0.1,0,0.2,0,0.2c0,0,0.1,0.1,0.1,0.1s0.1,0,0.1-0.1
			c0,0,0-0.1,0-0.2c0-0.1,0-0.2-0.1-0.2C45.5,16.3,45.5,16.3,45.4,16.3 M46.4,16.9c0.1,0,0.2,0,0.2,0.1c0.1,0.1,0.1,0.2,0.1,0.3
			c0,0.1,0,0.2-0.1,0.3c-0.1,0.1-0.1,0.1-0.2,0.1c-0.1,0-0.2,0-0.2-0.1c-0.1-0.1-0.1-0.2-0.1-0.3s0-0.2,0.1-0.3
			C46.2,16.9,46.3,16.9,46.4,16.9 M46.4,17c-0.1,0-0.1,0-0.1,0.1c0,0,0,0.1,0,0.2c0,0.1,0,0.2,0,0.2c0,0,0.1,0.1,0.1,0.1
			s0.1,0,0.1-0.1c0,0,0-0.1,0-0.2s0-0.2,0-0.2C46.5,17,46.5,17,46.4,17"/>
		<path class="st2" d="M54.4,11.5h0.2v1h0.2v0.2h-0.2V13h-0.2v-0.3h-0.7v-0.2L54.4,11.5 M54.4,11.7l-0.5,0.8h0.5V11.7"/>
		<polyline class="st2" points="55.1,12.7 55.3,12.7 55.3,13 55.1,13 55.1,12.7 		"/>
		<polyline class="st2" points="55.8,12.8 56.1,12.8 56.1,11.7 55.8,11.8 55.8,11.6 56.1,11.5 56.3,11.5 56.3,12.8 56.7,12.8 
			56.7,13 55.8,13 55.8,12.8 		"/>
		<path class="st2" d="M57.3,11.5c0.1,0,0.2,0,0.2,0.1c0.1,0.1,0.1,0.2,0.1,0.3c0,0.1,0,0.2-0.1,0.3c-0.1,0.1-0.1,0.1-0.2,0.1
			c-0.1,0-0.2,0-0.2-0.1C57,12.1,57,12,57,11.9c0-0.1,0-0.2,0.1-0.3C57.1,11.5,57.2,11.5,57.3,11.5 M58.2,11.5h0.2L57.4,13h-0.2
			L58.2,11.5 M57.3,11.6c-0.1,0-0.1,0-0.1,0.1c0,0,0,0.1,0,0.2c0,0.1,0,0.2,0,0.2c0,0,0.1,0.1,0.1,0.1s0.1,0,0.1-0.1
			c0,0,0-0.1,0-0.2c0-0.1,0-0.2-0.1-0.2C57.4,11.6,57.3,11.6,57.3,11.6 M58.3,12.2c0.1,0,0.2,0,0.2,0.1c0.1,0.1,0.1,0.2,0.1,0.3
			c0,0.1,0,0.2-0.1,0.3C58.5,13,58.4,13,58.3,13c-0.1,0-0.2,0-0.2-0.1C58,12.8,58,12.7,58,12.6s0-0.2,0.1-0.3
			C58.1,12.2,58.2,12.2,58.3,12.2 M58.3,12.3c-0.1,0-0.1,0-0.1,0.1c0,0,0,0.1,0,0.2c0,0.1,0,0.2,0,0.2c0,0,0.1,0.1,0.1,0.1
			c0.1,0,0.1,0,0.1-0.1c0,0,0-0.1,0-0.2s0-0.2,0-0.2C58.4,12.3,58.4,12.3,58.3,12.3"/>
		<polyline class="st2" points="59.1,8.1 59.4,8.1 59.4,7 59,7.1 59,6.9 59.4,6.8 59.6,6.8 59.6,8.1 59.9,8.1 59.9,8.3 59.1,8.3 
			59.1,8.1 		"/>
		<path class="st2" d="M60.3,6.8h0.8V7h-0.6v0.4c0,0,0.1,0,0.1,0c0,0,0.1,0,0.1,0c0.2,0,0.3,0,0.4,0.1c0.1,0.1,0.1,0.2,0.1,0.4
			c0,0.2-0.1,0.3-0.1,0.4c-0.1,0.1-0.2,0.1-0.4,0.1c-0.1,0-0.1,0-0.2,0c-0.1,0-0.1,0-0.2,0V8.1c0.1,0,0.1,0.1,0.2,0.1
			c0.1,0,0.1,0,0.2,0c0.1,0,0.2,0,0.3-0.1C61,8,61,7.9,61,7.8c0-0.1,0-0.2-0.1-0.2c-0.1-0.1-0.2-0.1-0.3-0.1c-0.1,0-0.1,0-0.2,0
			c-0.1,0-0.1,0-0.2,0.1V6.8"/>
		<polyline class="st2" points="61.6,8 61.8,8 61.8,8.3 61.6,8.3 61.6,8 		"/>
		<path class="st2" d="M62.8,7.5c0.1,0,0.2,0.1,0.2,0.1c0.1,0.1,0.1,0.1,0.1,0.2c0,0.1-0.1,0.3-0.1,0.3c-0.1,0.1-0.2,0.1-0.4,0.1
			c-0.1,0-0.1,0-0.2,0c-0.1,0-0.1,0-0.2-0.1V8c0.1,0,0.1,0.1,0.2,0.1c0.1,0,0.1,0,0.2,0c0.1,0,0.2,0,0.3-0.1c0.1,0,0.1-0.1,0.1-0.2
			c0-0.1,0-0.2-0.1-0.2c-0.1,0-0.1-0.1-0.3-0.1h-0.2V7.4h0.2c0.1,0,0.2,0,0.2-0.1c0.1,0,0.1-0.1,0.1-0.2s0-0.1-0.1-0.2
			C62.8,7,62.7,7,62.6,7c-0.1,0-0.1,0-0.2,0c-0.1,0-0.1,0-0.2,0.1V6.9c0.1,0,0.1,0,0.2,0c0.1,0,0.1,0,0.2,0c0.1,0,0.3,0,0.4,0.1
			c0.1,0.1,0.1,0.2,0.1,0.3c0,0.1,0,0.1-0.1,0.2C63,7.4,62.9,7.5,62.8,7.5"/>
		<path class="st2" d="M63.7,6.8c0.1,0,0.2,0,0.2,0.1C64,7,64.1,7.1,64.1,7.2c0,0.1,0,0.2-0.1,0.3s-0.1,0.1-0.2,0.1
			c-0.1,0-0.2,0-0.2-0.1c-0.1-0.1-0.1-0.2-0.1-0.3c0-0.1,0-0.2,0.1-0.3C63.5,6.8,63.6,6.8,63.7,6.8 M64.6,6.8h0.2l-0.9,1.5h-0.2
			L64.6,6.8 M63.7,6.9c-0.1,0-0.1,0-0.1,0.1c0,0,0,0.1,0,0.2c0,0.1,0,0.2,0,0.2c0,0,0.1,0.1,0.1,0.1c0.1,0,0.1,0,0.1-0.1
			c0,0,0-0.1,0-0.2c0-0.1,0-0.2-0.1-0.2C63.8,6.9,63.8,6.9,63.7,6.9 M64.7,7.5c0.1,0,0.2,0,0.2,0.1c0.1,0.1,0.1,0.2,0.1,0.3
			c0,0.1,0,0.2-0.1,0.3c-0.1,0.1-0.1,0.1-0.2,0.1c-0.1,0-0.2,0-0.2-0.1c-0.1-0.1-0.1-0.2-0.1-0.3s0-0.2,0.1-0.3
			C64.6,7.6,64.6,7.5,64.7,7.5 M64.7,7.6c-0.1,0-0.1,0-0.1,0.1c0,0,0,0.1,0,0.2c0,0.1,0,0.2,0,0.2c0,0,0.1,0.1,0.1,0.1
			c0.1,0,0.1,0,0.1-0.1c0,0,0-0.1,0-0.2s0-0.2,0-0.2C64.8,7.7,64.8,7.6,64.7,7.6"/>
		<path class="st2" d="M19.8,1.6h0.6c0.2,0,0.3,0,0.4,0.1c0.1,0.1,0.1,0.2,0.1,0.3c0,0.1,0,0.2-0.1,0.2c0,0.1-0.1,0.1-0.2,0.1
			c0.1,0,0.2,0.1,0.3,0.2C20.9,2.6,21,2.7,21,2.8c0,0.2-0.1,0.3-0.2,0.3c-0.1,0.1-0.2,0.1-0.4,0.1h-0.6V1.6 M20,1.8v0.5h0.3
			c0.1,0,0.2,0,0.2-0.1c0.1,0,0.1-0.1,0.1-0.2c0-0.1,0-0.1-0.1-0.2c-0.1,0-0.1-0.1-0.2-0.1H20 M20,2.5v0.6h0.4c0.1,0,0.2,0,0.3-0.1
			c0.1-0.1,0.1-0.1,0.1-0.2c0-0.1,0-0.2-0.1-0.2c-0.1-0.1-0.1-0.1-0.3-0.1H20"/>
		<path class="st2" d="M22.3,2.5v0.7h-0.2V3.1c0,0.1-0.1,0.1-0.2,0.2c-0.1,0-0.2,0.1-0.3,0.1c-0.1,0-0.2,0-0.3-0.1
			c-0.1-0.1-0.1-0.2-0.1-0.3c0-0.1,0-0.2,0.1-0.3c0.1-0.1,0.2-0.1,0.4-0.1h0.3v0c0-0.1,0-0.2-0.1-0.2c-0.1-0.1-0.1-0.1-0.3-0.1
			c-0.1,0-0.1,0-0.2,0s-0.1,0-0.2,0.1V2.1C21.4,2,21.5,2,21.6,2c0.1,0,0.1,0,0.2,0c0.2,0,0.3,0,0.4,0.1C22.3,2.2,22.3,2.4,22.3,2.5
			 M21.9,2.6c-0.2,0-0.3,0-0.3,0.1c-0.1,0-0.1,0.1-0.1,0.2c0,0.1,0,0.1,0.1,0.2c0,0,0.1,0.1,0.2,0.1c0.1,0,0.2,0,0.3-0.1
			c0.1-0.1,0.1-0.2,0.1-0.3v0H21.9"/>
		<path class="st2" d="M23.5,2v0.2c-0.1,0-0.1-0.1-0.2-0.1c-0.1,0-0.1,0-0.2,0c-0.1,0-0.2,0-0.2,0c-0.1,0-0.1,0.1-0.1,0.1
			c0,0,0,0.1,0.1,0.1c0,0,0.1,0.1,0.2,0.1l0.1,0c0.1,0,0.2,0.1,0.3,0.1c0.1,0.1,0.1,0.1,0.1,0.2c0,0.1,0,0.2-0.1,0.3
			c-0.1,0.1-0.2,0.1-0.4,0.1c-0.1,0-0.1,0-0.2,0s-0.1,0-0.2-0.1V3c0.1,0,0.2,0.1,0.2,0.1c0.1,0,0.1,0,0.2,0c0.1,0,0.2,0,0.2,0
			c0.1,0,0.1-0.1,0.1-0.1c0-0.1,0-0.1-0.1-0.1c0,0-0.1-0.1-0.2-0.1l-0.1,0c-0.1,0-0.2-0.1-0.3-0.1c-0.1-0.1-0.1-0.1-0.1-0.2
			c0-0.1,0-0.2,0.1-0.3C22.9,2,23,2,23.1,2c0.1,0,0.1,0,0.2,0C23.4,2,23.5,2,23.5,2"/>
		<path class="st2" d="M24.8,2.5c0-0.1,0-0.2-0.1-0.3c-0.1-0.1-0.1-0.1-0.2-0.1c-0.1,0-0.2,0-0.3,0.1c-0.1,0.1-0.1,0.2-0.1,0.3H24.8
			 M25,2.6v0.1h-0.9c0,0.1,0.1,0.3,0.1,0.3c0.1,0.1,0.2,0.1,0.3,0.1c0.1,0,0.2,0,0.2,0c0.1,0,0.1,0,0.2-0.1v0.2
			c-0.1,0-0.1,0.1-0.2,0.1c-0.1,0-0.2,0-0.2,0c-0.2,0-0.4-0.1-0.5-0.2s-0.2-0.3-0.2-0.5c0-0.2,0.1-0.4,0.2-0.5C24.1,2,24.3,2,24.5,2
			c0.2,0,0.3,0.1,0.4,0.2C24.9,2.3,25,2.4,25,2.6"/>
		<polyline class="st2" points="25.3,1.5 25.5,1.5 25.5,3.3 25.3,3.3 25.3,1.5 		"/>
		<path class="st2" d="M26,1.5h0.2v0.3H26V1.5 M26,2h0.2v1.3H26V2"/>
		<path class="st2" d="M27.7,2.5v0.8h-0.2V2.5c0-0.1,0-0.2-0.1-0.3c0-0.1-0.1-0.1-0.2-0.1c-0.1,0-0.2,0-0.3,0.1
			c-0.1,0.1-0.1,0.2-0.1,0.3v0.7h-0.2V2h0.2v0.2c0-0.1,0.1-0.1,0.2-0.2C27,2,27.1,2,27.2,2c0.1,0,0.3,0,0.3,0.1S27.7,2.3,27.7,2.5"
			/>
		<path class="st2" d="M28.9,2.5c0-0.1,0-0.2-0.1-0.3c-0.1-0.1-0.1-0.1-0.2-0.1c-0.1,0-0.2,0-0.3,0.1c-0.1,0.1-0.1,0.2-0.1,0.3H28.9
			 M29.1,2.6v0.1h-0.9c0,0.1,0.1,0.3,0.1,0.3c0.1,0.1,0.2,0.1,0.3,0.1c0.1,0,0.2,0,0.2,0c0.1,0,0.1,0,0.2-0.1v0.2
			c-0.1,0-0.1,0.1-0.2,0.1c-0.1,0-0.2,0-0.2,0c-0.2,0-0.4-0.1-0.5-0.2S28,2.8,28,2.6c0-0.2,0.1-0.4,0.2-0.5C28.2,2,28.4,2,28.6,2
			C28.8,2,28.9,2,29,2.1C29.1,2.3,29.1,2.4,29.1,2.6"/>
		<polyline class="st2" points="30.2,1.6 30.5,1.6 31,2.7 31.4,1.6 31.7,1.6 31.7,3.3 31.5,3.3 31.5,1.8 31.1,2.9 30.9,2.9 
			30.4,1.8 30.4,3.3 30.2,3.3 30.2,1.6 		"/>
		<path class="st2" d="M32.7,2C32.8,2,33,2,33.1,2.2c0.1,0.1,0.2,0.3,0.2,0.5c0,0.2-0.1,0.4-0.2,0.5c-0.1,0.1-0.2,0.2-0.4,0.2
			c-0.2,0-0.3-0.1-0.4-0.2c-0.1-0.1-0.2-0.3-0.2-0.5c0-0.2,0.1-0.4,0.2-0.5C32.3,2,32.5,2,32.7,2 M32.7,2.2c-0.1,0-0.2,0-0.3,0.1
			c-0.1,0.1-0.1,0.2-0.1,0.4c0,0.2,0,0.3,0.1,0.4c0.1,0.1,0.2,0.1,0.3,0.1c0.1,0,0.2,0,0.3-0.1C33,2.9,33,2.8,33,2.6
			c0-0.1,0-0.3-0.1-0.4C32.9,2.2,32.8,2.2,32.7,2.2"/>
		<path class="st2" d="M33.7,2.6c0,0.2,0,0.3,0.1,0.4c0.1,0.1,0.1,0.1,0.3,0.1c0.1,0,0.2,0,0.3-0.1c0.1-0.1,0.1-0.2,0.1-0.4
			c0-0.2,0-0.3-0.1-0.4c-0.1-0.1-0.1-0.1-0.3-0.1c-0.1,0-0.2,0-0.3,0.1C33.7,2.4,33.7,2.5,33.7,2.6 M34.4,2.2V1.5h0.2v1.7h-0.2V3.1
			c0,0.1-0.1,0.1-0.2,0.2c-0.1,0-0.1,0.1-0.2,0.1c-0.2,0-0.3-0.1-0.4-0.2c-0.1-0.1-0.1-0.3-0.1-0.5c0-0.2,0-0.4,0.1-0.5
			C33.7,2,33.8,2,34,2c0.1,0,0.2,0,0.2,0.1C34.3,2.1,34.4,2.1,34.4,2.2"/>
		<path class="st2" d="M35.9,2.5c0-0.1,0-0.2-0.1-0.3c-0.1-0.1-0.1-0.1-0.2-0.1c-0.1,0-0.2,0-0.3,0.1c-0.1,0.1-0.1,0.2-0.1,0.3H35.9
			 M36.1,2.6v0.1h-0.9c0,0.1,0.1,0.3,0.1,0.3c0.1,0.1,0.2,0.1,0.3,0.1c0.1,0,0.2,0,0.2,0c0.1,0,0.1,0,0.2-0.1v0.2
			c-0.1,0-0.1,0.1-0.2,0.1c-0.1,0-0.2,0-0.2,0c-0.2,0-0.4-0.1-0.5-0.2C35,3,34.9,2.8,34.9,2.6c0-0.2,0.1-0.4,0.2-0.5
			C35.2,2,35.4,2,35.6,2C35.7,2,35.9,2,36,2.1C36.1,2.3,36.1,2.4,36.1,2.6"/>
		<polyline class="st2" points="36.4,1.5 36.6,1.5 36.6,3.3 36.4,3.3 36.4,1.5 		"/>
		<path class="st2" d="M37.9,2v0.2c-0.1,0-0.1-0.1-0.2-0.1c-0.1,0-0.1,0-0.2,0c-0.1,0-0.2,0-0.2,0c-0.1,0-0.1,0.1-0.1,0.1
			c0,0,0,0.1,0.1,0.1c0,0,0.1,0.1,0.2,0.1l0.1,0c0.1,0,0.2,0.1,0.3,0.1c0.1,0.1,0.1,0.1,0.1,0.2c0,0.1,0,0.2-0.1,0.3
			c-0.1,0.1-0.2,0.1-0.4,0.1c-0.1,0-0.1,0-0.2,0c-0.1,0-0.1,0-0.2-0.1V3c0.1,0,0.2,0.1,0.2,0.1c0.1,0,0.1,0,0.2,0c0.1,0,0.2,0,0.2,0
			c0.1,0,0.1-0.1,0.1-0.1c0-0.1,0-0.1-0.1-0.1c0,0-0.1-0.1-0.2-0.1l-0.1,0c-0.1,0-0.2-0.1-0.3-0.1C37,2.5,37,2.4,37,2.3
			c0-0.1,0-0.2,0.1-0.3C37.2,2,37.3,2,37.5,2c0.1,0,0.1,0,0.2,0C37.8,2,37.8,2,37.9,2"/>
		<path class="st2" d="M40.3,1.7V2c-0.1-0.1-0.2-0.1-0.2-0.2c-0.1,0-0.2-0.1-0.3-0.1c-0.2,0-0.3,0.1-0.4,0.2
			c-0.1,0.1-0.2,0.3-0.2,0.5c0,0.2,0.1,0.4,0.2,0.5c0.1,0.1,0.2,0.2,0.4,0.2c0.1,0,0.2,0,0.3-0.1c0.1,0,0.2-0.1,0.2-0.2v0.2
			c-0.1,0.1-0.2,0.1-0.3,0.1c-0.1,0-0.2,0-0.3,0c-0.3,0-0.5-0.1-0.6-0.2c-0.1-0.2-0.2-0.4-0.2-0.6c0-0.3,0.1-0.5,0.2-0.6
			c0.1-0.2,0.3-0.2,0.6-0.2c0.1,0,0.2,0,0.3,0C40.1,1.6,40.2,1.7,40.3,1.7"/>
		<path class="st2" d="M41.1,2c0.2,0,0.3,0.1,0.4,0.2c0.1,0.1,0.2,0.3,0.2,0.5c0,0.2-0.1,0.4-0.2,0.5c-0.1,0.1-0.2,0.2-0.4,0.2
			c-0.2,0-0.3-0.1-0.4-0.2c-0.1-0.1-0.2-0.3-0.2-0.5c0-0.2,0.1-0.4,0.2-0.5C40.8,2,40.9,2,41.1,2 M41.1,2.2c-0.1,0-0.2,0-0.3,0.1
			c-0.1,0.1-0.1,0.2-0.1,0.4c0,0.2,0,0.3,0.1,0.4c0.1,0.1,0.2,0.1,0.3,0.1c0.1,0,0.2,0,0.3-0.1c0.1-0.1,0.1-0.2,0.1-0.4
			c0-0.1,0-0.3-0.1-0.4C41.3,2.2,41.2,2.2,41.1,2.2"/>
		<path class="st2" d="M43,2.3C43,2.2,43.1,2.1,43.2,2C43.2,2,43.3,2,43.4,2c0.1,0,0.2,0,0.3,0.1c0.1,0.1,0.1,0.2,0.1,0.4v0.8h-0.2
			V2.5c0-0.1,0-0.2-0.1-0.3c0-0.1-0.1-0.1-0.2-0.1c-0.1,0-0.2,0-0.3,0.1S43,2.4,43,2.6v0.7h-0.2V2.5c0-0.1,0-0.2-0.1-0.3
			c0-0.1-0.1-0.1-0.2-0.1c-0.1,0-0.2,0-0.3,0.1s-0.1,0.2-0.1,0.3v0.7H42V2h0.2v0.2c0-0.1,0.1-0.1,0.2-0.2C42.4,2,42.5,2,42.6,2
			c0.1,0,0.2,0,0.2,0.1C42.9,2.1,42.9,2.2,43,2.3"/>
		<path class="st2" d="M45.1,2.6c0-0.2,0-0.3-0.1-0.4c-0.1-0.1-0.1-0.1-0.3-0.1c-0.1,0-0.2,0-0.3,0.1c-0.1,0.1-0.1,0.2-0.1,0.4
			c0,0.2,0,0.3,0.1,0.4c0.1,0.1,0.1,0.1,0.3,0.1c0.1,0,0.2,0,0.3-0.1C45.1,2.9,45.1,2.8,45.1,2.6 M44.4,3.1v0.7h-0.2V2h0.2v0.2
			c0-0.1,0.1-0.1,0.2-0.2C44.7,2,44.7,2,44.8,2C45,2,45.1,2,45.2,2.2c0.1,0.1,0.1,0.3,0.1,0.5c0,0.2,0,0.4-0.1,0.5
			c-0.1,0.1-0.2,0.2-0.4,0.2c-0.1,0-0.2,0-0.2-0.1C44.5,3.2,44.5,3.2,44.4,3.1"/>
		<path class="st2" d="M46.7,2.5v0.7h-0.2V3.1c0,0.1-0.1,0.1-0.2,0.2c-0.1,0-0.2,0.1-0.3,0.1c-0.1,0-0.2,0-0.3-0.1S45.6,3,45.6,2.9
			c0-0.1,0-0.2,0.1-0.3c0.1-0.1,0.2-0.1,0.4-0.1h0.3v0c0-0.1,0-0.2-0.1-0.2c-0.1-0.1-0.1-0.1-0.3-0.1c-0.1,0-0.1,0-0.2,0
			c-0.1,0-0.1,0-0.2,0.1V2.1C45.8,2,45.8,2,45.9,2C46,2,46,2,46.1,2c0.2,0,0.3,0,0.4,0.1C46.6,2.2,46.7,2.4,46.7,2.5 M46.2,2.6
			c-0.2,0-0.3,0-0.3,0.1c-0.1,0-0.1,0.1-0.1,0.2c0,0.1,0,0.1,0.1,0.2c0,0,0.1,0.1,0.2,0.1c0.1,0,0.2,0,0.3-0.1
			c0.1-0.1,0.1-0.2,0.1-0.3v0H46.2"/>
		<path class="st2" d="M47.8,2.2C47.8,2.2,47.8,2.2,47.8,2.2c-0.1,0-0.1,0-0.2,0c-0.1,0-0.2,0-0.3,0.1c-0.1,0.1-0.1,0.2-0.1,0.3v0.7
			h-0.2V2h0.2v0.2c0-0.1,0.1-0.1,0.2-0.2C47.5,2,47.6,2,47.7,2c0,0,0,0,0,0c0,0,0,0,0.1,0V2.2"/>
		<path class="st2" d="M48,1.5h0.2v0.3H48V1.5 M48,2h0.2v1.3H48V2"/>
		<path class="st2" d="M49.5,2v0.2c-0.1,0-0.1-0.1-0.2-0.1c-0.1,0-0.1,0-0.2,0c-0.1,0-0.2,0-0.2,0s-0.1,0.1-0.1,0.1
			c0,0,0,0.1,0.1,0.1s0.1,0.1,0.2,0.1l0.1,0c0.1,0,0.2,0.1,0.3,0.1c0.1,0.1,0.1,0.1,0.1,0.2c0,0.1,0,0.2-0.1,0.3
			c-0.1,0.1-0.2,0.1-0.4,0.1c-0.1,0-0.1,0-0.2,0c-0.1,0-0.1,0-0.2-0.1V3c0.1,0,0.2,0.1,0.2,0.1c0.1,0,0.1,0,0.2,0c0.1,0,0.2,0,0.2,0
			c0.1,0,0.1-0.1,0.1-0.1c0-0.1,0-0.1-0.1-0.1c0,0-0.1-0.1-0.2-0.1l-0.1,0c-0.1,0-0.2-0.1-0.3-0.1c-0.1-0.1-0.1-0.1-0.1-0.2
			c0-0.1,0-0.2,0.1-0.3C48.8,2,48.9,2,49.1,2c0.1,0,0.1,0,0.2,0C49.3,2,49.4,2,49.5,2"/>
		<path class="st2" d="M50.3,2c0.2,0,0.3,0.1,0.4,0.2c0.1,0.1,0.2,0.3,0.2,0.5c0,0.2-0.1,0.4-0.2,0.5c-0.1,0.1-0.2,0.2-0.4,0.2
			c-0.2,0-0.3-0.1-0.4-0.2c-0.1-0.1-0.2-0.3-0.2-0.5c0-0.2,0.1-0.4,0.2-0.5C50,2,50.2,2,50.3,2 M50.3,2.2c-0.1,0-0.2,0-0.3,0.1
			C50,2.4,50,2.5,50,2.6c0,0.2,0,0.3,0.1,0.4c0.1,0.1,0.2,0.1,0.3,0.1c0.1,0,0.2,0,0.3-0.1c0.1-0.1,0.1-0.2,0.1-0.4
			c0-0.1,0-0.3-0.1-0.4C50.5,2.2,50.4,2.2,50.3,2.2"/>
		<path class="st2" d="M52.3,2.5v0.8h-0.2V2.5c0-0.1,0-0.2-0.1-0.3c0-0.1-0.1-0.1-0.2-0.1c-0.1,0-0.2,0-0.3,0.1
			c-0.1,0.1-0.1,0.2-0.1,0.3v0.7h-0.2V2h0.2v0.2c0-0.1,0.1-0.1,0.2-0.2C51.7,2,51.8,2,51.9,2c0.1,0,0.3,0,0.3,0.1
			C52.3,2.2,52.3,2.3,52.3,2.5"/>
		<path class="st2" d="M53.6,1.7V2h0.4v0.2h-0.4v0.7c0,0.1,0,0.2,0,0.2c0,0,0.1,0,0.2,0h0.2v0.2h-0.2c-0.2,0-0.3,0-0.3-0.1
			c-0.1-0.1-0.1-0.2-0.1-0.3V2.2h-0.2V2h0.2V1.7H53.6"/>
		<path class="st2" d="M54.8,2C55,2,55.1,2,55.2,2.2c0.1,0.1,0.2,0.3,0.2,0.5c0,0.2-0.1,0.4-0.2,0.5c-0.1,0.1-0.2,0.2-0.4,0.2
			c-0.2,0-0.3-0.1-0.4-0.2c-0.1-0.1-0.2-0.3-0.2-0.5c0-0.2,0.1-0.4,0.2-0.5C54.5,2,54.6,2,54.8,2 M54.8,2.2c-0.1,0-0.2,0-0.3,0.1
			c-0.1,0.1-0.1,0.2-0.1,0.4c0,0.2,0,0.3,0.1,0.4c0.1,0.1,0.2,0.1,0.3,0.1c0.1,0,0.2,0,0.3-0.1c0.1-0.1,0.1-0.2,0.1-0.4
			c0-0.1,0-0.3-0.1-0.4C55,2.2,54.9,2.2,54.8,2.2"/>
		<path class="st2" d="M56.9,1.6h0.3l0.6,1.7h-0.2l-0.2-0.4h-0.8l-0.2,0.4h-0.2L56.9,1.6 M57,1.8l-0.3,0.8h0.6L57,1.8"/>
		<path class="st2" d="M58.3,1.8v0.6h0.3c0.1,0,0.2,0,0.2-0.1c0.1-0.1,0.1-0.1,0.1-0.2c0-0.1,0-0.2-0.1-0.2
			c-0.1-0.1-0.1-0.1-0.2-0.1H58.3 M58.8,2.5c0,0,0.1,0.1,0.1,0.1c0,0.1,0.1,0.1,0.1,0.2l0.2,0.5h-0.2l-0.2-0.4
			c-0.1-0.1-0.1-0.2-0.2-0.2c-0.1,0-0.1-0.1-0.2-0.1h-0.2v0.7H58V1.6h0.5c0.2,0,0.3,0,0.4,0.1c0.1,0.1,0.1,0.2,0.1,0.4
			c0,0.1,0,0.2-0.1,0.3C59,2.4,58.9,2.5,58.8,2.5"/>
		<polyline class="st2" points="59.6,1.6 59.9,1.6 59.9,3.3 59.6,3.3 59.6,1.6 		"/>
		<polyline class="st2" points="60.3,1.6 60.6,1.6 61.1,2.7 61.5,1.6 61.8,1.6 61.8,3.3 61.6,3.3 61.6,1.8 61.2,2.9 61,2.9 
			60.5,1.8 60.5,3.3 60.3,3.3 60.3,1.6 		"/>
		<path class="st2" d="M62.7,1.6H63l0.6,1.7h-0.2l-0.2-0.4h-0.8l-0.2,0.4h-0.2L62.7,1.6 M62.8,1.8l-0.3,0.8h0.6L62.8,1.8"/>
	</g>
</g>
</svg>
