<?xml version="1.0" encoding="utf-8"?>
<!-- Generator: Adobe Illustrator 26.0.3, SVG Export Plug-In . SVG Version: 6.00 Build 0)  -->
<svg version="1.1" id="Layer_1" xmlns="http://www.w3.org/2000/svg" xmlns:xlink="http://www.w3.org/1999/xlink" x="0px" y="0px"
	 viewBox="0 0 17.6 17.6" style="enable-background:new 0 0 17.6 17.6;" xml:space="preserve">
<style type="text/css">
	.st0{fill:none;stroke:#0D3F5B;stroke-width:1.5;stroke-linecap:round;stroke-linejoin:round;stroke-miterlimit:10;}
	.st1{fill:#0D3F5B;}
	.st2{fill:#0B3F5B;}
</style>
<polyline class="st0" points="4.6,9.9 6.5,5.5 8.8,10.8 10.6,7.4 11.8,9.3 "/>
<g>
	<g>
		<path class="st1" d="M16.3,17.1c-0.2,0-0.4-0.1-0.6-0.2l-3-3l-0.6,0.4c-1.2,0.8-2.7,1.2-4.1,1.2c-4.1,0-7.5-3.4-7.5-7.5
			c0-4.1,3.4-7.5,7.5-7.5s7.5,3.4,7.5,7.5c0,1.5-0.4,2.9-1.2,4.1l-0.4,0.6l3,3c0.1,0.1,0.2,0.3,0.2,0.6c0,0.2-0.1,0.4-0.2,0.6
			C16.7,17,16.5,17.1,16.3,17.1z M8,1.2c-3.7,0-6.8,3-6.8,6.8c0,3.7,3,6.8,6.8,6.8s6.8-3,6.8-6.8C14.8,4.3,11.8,1.2,8,1.2z"/>
		<path class="st2" d="M13.4,13l0.4,0.4l0.2,0.2l2.5,2.5c0.1,0.1,0.1,0.1,0.1,0.2c0,0.1,0,0.1-0.1,0.2c-0.1,0.1-0.1,0.1-0.2,0.1
			c-0.1,0-0.1,0-0.2-0.1L13.6,14l-0.2-0.2L13,13.4C13.1,13.2,13.2,13.1,13.4,13 M8,0C3.6,0,0,3.6,0,8c0,4.4,3.6,8,8,8
			c1.6,0,3.1-0.5,4.4-1.3l0.3-0.2l0.2,0.2l2.5,2.5c0.2,0.2,0.6,0.4,0.9,0.4c0.3,0,0.7-0.1,0.9-0.4c0.2-0.2,0.4-0.6,0.4-0.9
			c0-0.3-0.1-0.7-0.4-0.9l-2.5-2.5l-0.2-0.2l0.2-0.3C15.6,11.1,16,9.6,16,8C16,3.6,12.4,0,8,0L8,0z M8,14.3c-3.5,0-6.3-2.8-6.3-6.3
			c0-3.5,2.8-6.3,6.3-6.3c3.5,0,6.3,2.8,6.3,6.3C14.3,11.5,11.5,14.3,8,14.3L8,14.3z"/>
	</g>
</g>
</svg>
