<?xml version="1.0" encoding="utf-8"?>
<!-- Generator: Adobe Illustrator 24.3.0, SVG Export Plug-In . SVG Version: 6.00 Build 0)  -->
<svg version="1.1" id="Layer_1" xmlns="http://www.w3.org/2000/svg" xmlns:xlink="http://www.w3.org/1999/xlink" x="0px" y="0px"
	 viewBox="0 0 360 360" style="enable-background:new 0 0 360 360;" xml:space="preserve">
<style type="text/css">
	.st0{fill:#CECECD;}
</style>
<path class="st0" d="M359.3,290.1V72.9c-0.1-7.6-6.3-13.7-13.8-13.7h-27.3V31.8c0-5.1-4-9.2-9.1-9.2c0,0-0.1,0-0.1,0h-56.9
	c-17.4,0-34.2,4.5-49.3,12.6c-6.6,3.5-10.9,10.2-10.9,17.7l0,217.9c0,6.5,7.1,10.1,12.5,6.5c14-9.3,30.4-14.6,47.6-14.6h57
	c5.1,0,9.2-4.1,9.2-9.2v-176H341v208.2h-86.4c-20.7-0.1-40.5,8.7-54.2,24.2l-0.6,0.5c-1.1,1.1-2.4,2.2-3.7,3.1l-1.1,0.8
	c-1.1,0.7-2.2,1.4-3.4,1.9l-0.5,0.3l-1.5,0.6c-0.9,0.3-1.8,0.6-2.8,0.8l-1.5,0.4c-1.8,0.4-3.6,0.6-5.4,0.7h-1.6
	c-1.2-0.1-2.5-0.2-3.7-0.5c-0.7,0-1.4-0.3-2.1-0.5c-0.8-0.2-1.5-0.4-2.2-0.7l-1.6-0.7l-0.7-0.3c-1.1-0.5-2.2-1.2-3.2-1.8l-1.3-0.9
	c-1.2-0.9-2.3-1.8-3.3-2.9l-0.7-0.8c-13.9-15.5-33.8-24.4-54.6-24.4H19V77.5h22.8v176c0,5.1,4.1,9.1,9.1,9.1h56.9
	c17.2,0,33.6,5.3,47.7,14.6c5.4,3.6,12.5,0,12.5-6.5l0-217.9c0-7.5-4.3-14.2-10.9-17.7c-15.1-8.1-31.9-12.6-49.3-12.6H51
	c-5.1,0-9.2,4.1-9.2,9.2v27.4H14.5c-7.6,0-13.7,6.1-13.8,13.7v217.2c0,7.6,6.2,13.8,13.8,13.8h89.6c15.9,0,31,6.6,41.8,18.3l1.3,1.4
	c1.6,1.7,3.4,3.3,5.3,4.7c0.8,0.6,1.5,1.1,2.2,1.6c1.7,1.1,3.4,2.1,5.2,3l1,0.5c1,0.5,1.9,0.9,2.9,1.2c1.3,0.5,2.5,0.9,3.8,1.2
	c0.9,0.3,2.1,0.6,3.4,0.8c2,0.4,4,0.6,6,0.8l2.8,0c3,0,6-0.3,9-0.9c1.2-0.2,2.2-0.5,2.7-0.7c1.4-0.4,2.9-0.8,4.2-1.3l0.7-0.3l2.3-1
	l0.8-0.4c1.9-0.9,3.7-2,5.5-3.1l1.9-1.3c2.1-1.6,4.1-3.3,5.9-5.3l0.3-0.3l0.7-0.8c10.2-11.5,24.9-18.1,40.3-18h91.1
	c7.6,0,13.8-6.2,13.8-13.8C359.3,290.1,359.3,290.1,359.3,290.1z"/>
</svg>
