<?xml version="1.0" encoding="utf-8"?>
<!-- Generator: Adobe Illustrator 24.3.0, SVG Export Plug-In . SVG Version: 6.00 Build 0)  -->
<svg version="1.1" id="Layer_1" xmlns="http://www.w3.org/2000/svg" xmlns:xlink="http://www.w3.org/1999/xlink" x="0px" y="0px"
	 viewBox="0 0 360 360" style="enable-background:new 0 0 360 360;" xml:space="preserve">
<style type="text/css">
	.st0{fill-rule:evenodd;clip-rule:evenodd;fill:#CECECD;}
</style>
<path class="st0" d="M180,8.5C82.9,8.5,4.2,87.2,4.2,184.4c0,77.7,50.4,143.6,120.3,166.8c8.8,1.6,12-3.8,12-8.5
	c0-4.2-0.2-15.2-0.2-29.9c-48.9,10.6-59.2-23.6-59.2-23.6c-8-20.3-19.5-25.7-19.5-25.7c-16-10.9,1.2-10.7,1.2-10.7
	c17.6,1.2,26.9,18.1,26.9,18.1c15.7,26.9,41.2,19.1,51.2,14.6c1.6-11.4,6.1-19.1,11.2-23.5c-39-4.4-80.1-19.5-80.1-86.9
	c0-19.2,6.9-34.9,18.1-47.2c-1.8-4.4-7.8-22.3,1.7-46.5c0,0,14.8-4.7,48.4,18c14-3.9,29.1-5.9,44-5.9c14.9,0.1,30,2,44,5.9
	c33.6-22.8,48.3-18,48.3-18c9.6,24.2,3.6,42.1,1.7,46.5c11.3,12.3,18.1,28,18.1,47.2c0,67.6-41.1,82.4-80.3,86.8
	c6.3,5.4,11.9,16.2,11.9,32.6c0,23.5-0.2,42.5-0.2,48.2c0,4.7,3.2,10.2,12.1,8.5c69.8-23.3,120.1-89.2,120.1-166.8
	C355.8,87.2,277.1,8.5,180,8.5z"/>
</svg>
