<?xml version="1.0" encoding="utf-8"?>
<!-- Generator: Adobe Illustrator 26.0.3, SVG Export Plug-In . SVG Version: 6.00 Build 0)  -->
<svg version="1.1" id="Layer_1" xmlns="http://www.w3.org/2000/svg" xmlns:xlink="http://www.w3.org/1999/xlink" x="0px" y="0px"
	 viewBox="0 0 15.1 17.7" style="enable-background:new 0 0 15.1 17.7;" xml:space="preserve">
<style type="text/css">
	.st0{fill:none;stroke:#0D3F5B;stroke-width:1.5;stroke-linecap:round;stroke-linejoin:round;stroke-miterlimit:10;}
	.st1{fill:#0D3F5B;}
</style>
<polyline class="st0" points="0.8,14.5 2.4,10.6 5.3,17 7.3,12.6 8.4,14.3 "/>
<path class="st1" d="M2.3,11.3c0.2,0.2,0.5,0.3,0.8,0.1l1.3-1c0.5,0.4,1.2,0.7,1.9,0.6l2.1-0.2c0.5-0.1,1.1-0.3,1.5-0.6L14.9,6
	c0.2-0.2,0.3-0.5,0.1-0.8l-4-5C10.9,0.1,10.7,0,10.6,0c-0.1,0-0.3,0-0.4,0.1L5.1,4.2C4.6,4.5,4.3,5,4.1,5.5l-0.7,2
	c-0.2,0.7-0.2,1.4,0.1,2l-1.3,1C2.1,10.7,2.1,11,2.3,11.3z M4.5,7.8l0.7-2c0.1-0.3,0.3-0.6,0.6-0.8l4.7-3.7l3.3,4.2L9.1,9.2
	C8.8,9.5,8.5,9.6,8.2,9.6L6.1,9.8c-0.3,0-0.6,0-0.9-0.2l0.5-0.4c0.3,0.1,0.5,0,0.8-0.2c0.4-0.3,0.5-0.9,0.1-1.3
	C6.5,7.6,6.2,7.5,6,7.5c-0.2,0-0.5,0-0.7,0.2C5.1,7.8,5,8.1,5,8.4L4.5,8.8C4.4,8.5,4.4,8.1,4.5,7.8z"/>
</svg>
