<?xml version="1.0" encoding="utf-8"?>
<!-- Generator: Adobe Illustrator 26.0.3, SVG Export Plug-In . SVG Version: 6.00 Build 0)  -->
<svg version="1.1" id="Layer_1" xmlns="http://www.w3.org/2000/svg" xmlns:xlink="http://www.w3.org/1999/xlink" x="0px" y="0px"
	 viewBox="0 0 18.7 17.4" style="enable-background:new 0 0 18.7 17.4;" xml:space="preserve">
<style type="text/css">
	.st0{fill:#0D3F5B;}
</style>
<g>
	<path class="st0" d="M14.2,3.6L14.2,3.6L14.2,3.6 M13.3,5.5L14,6.8c0.2,0.3,0.5,0.6,0.9,0.6l1.5,0.2l-1.1,1c-0.3,0.3-0.4,0.7-0.3,1
		l0.3,1.5l-1.3-0.7c-0.2-0.1-0.4-0.1-0.5-0.1s-0.4,0-0.5,0.1l-1.3,0.7l0.3-1.5c0.1-0.4-0.1-0.8-0.3-1l-1.1-1l1.5-0.2
		c0.4-0.1,0.7-0.3,0.9-0.6L13.3,5.5 M13.3,3c0,0-0.1,0-0.1,0.1l-1.6,3.2L8.1,6.8C7.9,6.8,7.9,6.9,8,7l2.6,2.5L9.9,13
		c0,0.1,0.1,0.2,0.1,0.2c0,0,0,0,0.1,0l3.2-1.7l3.2,1.7c0,0,0,0,0.1,0c0.1,0,0.2-0.1,0.1-0.2l-0.6-3.5L18.6,7c0.1-0.1,0-0.2-0.1-0.2
		L15,6.3l-1.6-3.2C13.4,3,13.4,3,13.3,3L13.3,3z"/>
</g>
<g>
	<path class="st0" d="M7.8,1L7.8,1L7.8,1 M6.1,2.2l0,0.5c0,0.4,0.1,0.8,0.4,1l0.4,0.3L6.3,4.2C6,4.3,5.6,4.5,5.5,4.9L5.3,5.4L5,4.9
		C4.8,4.6,4.5,4.4,4.1,4.4l-0.5,0l0.4-0.4c0.3-0.3,0.3-0.7,0.2-1.1L4,2.3l0.5,0.2C4.6,2.6,4.8,2.6,5,2.6c0.2,0,0.4-0.1,0.6-0.2
		L6.1,2.2 M7.3,0C7.2,0,7.2,0,7.3,0L5,1.5l-2.4-1c0,0,0,0-0.1,0c-0.1,0-0.2,0.1-0.1,0.2L3,3.2l-1.7,2c-0.1,0.1,0,0.2,0.1,0.2L4,5.6
		l1.4,2.3c0,0,0.1,0.1,0.1,0.1c0.1,0,0.1,0,0.1-0.1l1-2.5l2.6-0.6c0.1,0,0.1-0.2,0.1-0.2L7.2,2.8l0.2-2.6C7.4,0.1,7.3,0,7.3,0L7.3,0
		z"/>
</g>
<g>
	<path class="st0" d="M3.9,8.7L3.9,8.7L3.9,8.7 M3.8,10.8l0.6,0.5c0.2,0.2,0.5,0.3,0.8,0.3c0.1,0,0.2,0,0.3,0l0.8-0.2L6,12.2
		c-0.1,0.4-0.1,0.8,0.1,1.1l0.4,0.7l-0.8-0.1c0,0-0.1,0-0.1,0c-0.4,0-0.7,0.2-0.9,0.4l-0.5,0.6L4,14.1c-0.1-0.4-0.4-0.7-0.7-0.8
		L2.5,13l0.7-0.4c0.3-0.2,0.5-0.6,0.6-0.9L3.8,10.8 M2.9,8.5c-0.1,0-0.1,0.1-0.1,0.1l-0.2,2.9l-2.5,1.5c-0.1,0.1-0.1,0.2,0,0.2
		l2.7,1.1l0.7,2.8c0,0.1,0.1,0.1,0.1,0.1c0,0,0.1,0,0.1-0.1L5.6,15l2.9,0.2c0,0,0,0,0,0c0.1,0,0.2-0.1,0.1-0.2L7,12.6l1.1-2.7
		c0-0.1,0-0.2-0.1-0.2c0,0,0,0,0,0l-2.8,0.8L2.9,8.5C2.9,8.5,2.9,8.5,2.9,8.5L2.9,8.5z"/>
</g>
</svg>
