<?xml version="1.0" encoding="utf-8"?>
<!-- Generator: Adobe Illustrator 24.3.0, SVG Export Plug-In . SVG Version: 6.00 Build 0)  -->
<svg version="1.1" id="Layer_1" xmlns="http://www.w3.org/2000/svg" xmlns:xlink="http://www.w3.org/1999/xlink" x="0px" y="0px"
	 viewBox="0 0 360 360" style="enable-background:new 0 0 360 360;" xml:space="preserve">
<style type="text/css">
	.st0{fill:#093932;}
	.st1{fill:none;stroke:#0F463F;stroke-width:9.4122;stroke-miterlimit:10;}
	.st2{fill:#0A7D6F;}
	.st3{fill:#0D4E42;}
</style>
<g>
	<path class="st0" d="M304.2,6.4c-11.6,0-19.3,7.7-19.3,19.3s7.7,19.3,19.3,19.3c9.6,0,19.3-7.7,19.3-19.3S315.8,6.4,304.2,6.4z"/>
	<circle class="st1" cx="162.6" cy="47.1" r="20.9"/>
	<circle class="st1" cx="211.8" cy="118.4" r="20.9"/>
	<circle class="st1" cx="246.8" cy="304.6" r="17.3"/>
	<circle class="st1" cx="183.5" cy="204.1" r="16.6"/>
	<circle class="st1" cx="125.7" cy="234.8" r="16.6"/>
	<circle class="st1" cx="100.6" cy="336.9" r="16.6"/>
	<circle class="st1" cx="70.4" cy="97.5" r="20.9"/>
	<path class="st2" d="M100.9,80.9l33.6-18.5c-1.4-2.9-2.5-6-3.1-9.3L96.2,72.5C98.1,75.1,99.7,77.9,100.9,80.9z"/>
	<g>
		<path class="st2" d="M183.5,177.3c3.4,0.1,6.7,0.7,9.6,1.8l11.4-29.1c-3.2-0.7-6.2-2-8.9-3.6L183.5,177.3z"/>
	</g>
	<g>
		<path class="st2" d="M188.2,65.9c-2.2,2.7-4.7,4.8-7.4,6.4l13.7,23.8c2.6-2.1,5.4-3.7,8.3-4.8L188.2,65.9z"/>
	</g>
	<g>
		<path class="st2" d="M152.2,226.2l9.2-5.2c-1.9-2.5-3.4-5.4-4.4-8.6l-9.9,5.6C149.3,220.3,151,223.1,152.2,226.2z"/>
		<path class="st2" d="M122.9,208.9l-36.2-79c-2.6,1.9-5.5,3.4-8.5,4.6l35.5,77.4C116.5,210.4,119.6,209.4,122.9,208.9z"/>
	</g>
	<path class="st2" d="M111.4,314l16.5-51.4c-0.3,0-0.6,0-0.9,0c-3.1,0-6.1-0.5-8.8-1.4l-16,49.8C105.6,311.5,108.7,312.5,111.4,314z
		"/>
	<g>
		<path class="st2" d="M240.4,275.4l-39.2-51c-2.4,2.1-5.2,3.8-8.3,5l39.7,51.7C234.9,278.9,237.5,277,240.4,275.4z"/>
		<path class="st2" d="M220.7,321.1c-0.7-3-1.2-6.2-1.2-9.6L124,329.8c0.7,2.5,1.1,5.1,1.1,7.9c0,0.6,0,1.1-0.1,1.7L220.7,321.1z"/>
	</g>
	<circle class="st3" cx="337" cy="84" r="17.3"/>
	<circle class="st3" cx="323.5" cy="139.3" r="15.4"/>
	<circle class="st0" cx="294.6" cy="193.2" r="19.3"/>
	<circle class="st0" cx="25" cy="31.4" r="19.3"/>
</g>
</svg>
