<?xml version="1.0" encoding="utf-8"?>
<!-- Generator: Adobe Illustrator 24.3.0, SVG Export Plug-In . SVG Version: 6.00 Build 0)  -->
<svg version="1.1" id="Layer_1" xmlns="http://www.w3.org/2000/svg" xmlns:xlink="http://www.w3.org/1999/xlink" x="0px" y="0px"
	 viewBox="0 0 7.8 7" style="enable-background:new 0 0 7.8 7;" xml:space="preserve">
<style type="text/css">
	.st0{fill:#B5CFD0;}
	.st1{fill:#234D54;}
</style>
<g id="Layer_1_1_">
	<g>
		<path class="st0" d="M1.8,6.8L0.1,3.9C0,3.7,0,3.3,0.1,3l1.6-2.8C1.9,0,2.1-0.1,2.3,0.2l1.7,2.9C4.1,3.3,4,3.7,3.9,4L2.3,6.7
			C2.1,7,1.9,7,1.8,6.8z"/>
		<path class="st1" d="M2.6,6.8L1,3.9C0.8,3.7,0.8,3.3,1,3l1.6-2.8C2.7,0,3-0.1,3.1,0.2l1.7,2.9c0.1,0.2,0.1,0.6,0,0.9L3.2,6.7
			C3,7,2.8,7,2.6,6.8z"/>
		<path class="st0" d="M3.5,6.8L1.8,3.9C1.7,3.7,1.7,3.3,1.9,3l1.6-2.8C3.6,0,3.9-0.1,4,0.2l1.7,2.9c0.1,0.2,0.1,0.6,0,0.9L4,6.7
			C3.9,7,3.6,7,3.5,6.8z"/>
		<path class="st1" d="M5.5,6.8L3.8,3.9C3.7,3.7,3.7,3.3,3.9,3l1.6-2.8C5.6,0,5.9-0.1,6,0.2l1.7,2.9c0.1,0.2,0.1,0.6,0,0.9L6,6.7
			C5.9,7,5.7,7,5.5,6.8z"/>
	</g>
</g>
</svg>
