<?xml version="1.0" encoding="UTF-8" standalone="no"?>
<!DOCTYPE svg PUBLIC "-//W3C//DTD SVG 1.1//EN" "http://www.w3.org/Graphics/SVG/1.1/DTD/svg11.dtd">
<svg width="100%" height="100%" viewBox="0 0 47 50" version="1.1" xmlns="http://www.w3.org/2000/svg" xmlns:xlink="http://www.w3.org/1999/xlink" xml:space="preserve" xmlns:serif="http://www.serif.com/" style="fill-rule:evenodd;clip-rule:evenodd;stroke-linejoin:round;stroke-miterlimit:2;">
    <g transform="matrix(4.16667,0,0,4.16667,35.5292,15.6708)">
        <path d="M0,4.476L2.495,6.971C2.769,7.245 2.769,7.689 2.495,7.963C2.221,8.237 1.776,8.237 1.502,7.963L-1.094,5.367C-1.831,5.809 -2.693,6.063 -3.615,6.063C-6.327,6.063 -8.527,3.863 -8.527,1.151C-8.527,-1.56 -6.327,-3.761 -3.615,-3.761C-0.904,-3.761 1.297,-1.56 1.297,1.151C1.297,2.433 0.805,3.601 0,4.476M-3.615,-2.357C-5.552,-2.357 -7.124,-0.785 -7.124,1.151C-7.124,3.087 -5.552,4.66 -3.615,4.66C-1.679,4.66 -0.106,3.087 -0.106,1.151C-0.106,-0.785 -1.679,-2.357 -3.615,-2.357" style="fill:#fff;fill-rule:nonzero;"/>
    </g>
</svg>
