<?xml version="1.0" encoding="utf-8"?>
<!-- Generator: Adobe Illustrator 26.0.3, SVG Export Plug-In . SVG Version: 6.00 Build 0)  -->
<svg version="1.1" id="Layer_1" xmlns="http://www.w3.org/2000/svg" xmlns:xlink="http://www.w3.org/1999/xlink" x="0px" y="0px"
	 viewBox="0 0 14.8 16.2" style="enable-background:new 0 0 14.8 16.2;" xml:space="preserve">
<style type="text/css">
	.st0{fill:#0D3F5B;}
</style>
<g>
	<g>
		<path class="st0" d="M7.4,10.3C7.2,10.3,7,10.1,7,9.9V8.6c0-0.2,0.2-0.4,0.4-0.4s0.4,0.2,0.4,0.4v1.2C7.9,10.1,7.7,10.3,7.4,10.3z
			"/>
	</g>
	<g>
		<path class="st0" d="M6,13.9c-0.1,0-0.2,0-0.2-0.1c-0.2-0.1-0.3-0.4-0.2-0.6l0.7-1.2c0.1-0.2,0.4-0.3,0.6-0.2
			c0.2,0.1,0.3,0.4,0.2,0.6l-0.7,1.2C6.3,13.8,6.2,13.9,6,13.9z"/>
	</g>
	<g>
		<path class="st0" d="M8.8,14c-0.2,0-0.3-0.1-0.4-0.2l-0.8-1.3c-0.1-0.2,0-0.5,0.2-0.6c0.2-0.1,0.5,0,0.6,0.2l0.8,1.3
			c0.1,0.2,0,0.5-0.2,0.6C9,14,8.9,14,8.8,14z"/>
	</g>
	<g>
		<path class="st0" d="M7.4,12.9c-0.9,0-1.6-0.7-1.6-1.6s0.7-1.6,1.6-1.6S9,10.3,9,11.2S8.3,12.9,7.4,12.9z M7.4,10.5
			c-0.4,0-0.8,0.3-0.8,0.8C6.6,11.7,7,12,7.4,12s0.8-0.3,0.8-0.8C8.2,10.8,7.8,10.5,7.4,10.5z"/>
	</g>
	<g>
		<path class="st0" d="M5.3,16.1c-0.9,0-1.6-0.7-1.6-1.6s0.7-1.6,1.6-1.6c0.9,0,1.6,0.7,1.6,1.6S6.2,16.1,5.3,16.1z M5.3,13.7
			c-0.4,0-0.8,0.3-0.8,0.8c0,0.4,0.3,0.8,0.8,0.8c0.4,0,0.8-0.3,0.8-0.8C6.1,14,5.7,13.7,5.3,13.7z"/>
	</g>
	<g>
		<path class="st0" d="M9.5,16.2c-0.9,0-1.6-0.7-1.6-1.6c0-0.9,0.7-1.6,1.6-1.6s1.6,0.7,1.6,1.6C11.2,15.5,10.4,16.2,9.5,16.2z
			 M9.5,13.8c-0.4,0-0.8,0.3-0.8,0.8c0,0.4,0.3,0.8,0.8,0.8c0.4,0,0.8-0.3,0.8-0.8C10.3,14.1,9.9,13.8,9.5,13.8z"/>
	</g>
	<g>
		<path class="st0" d="M7.5,9.1c-0.9,0-1.6-0.7-1.6-1.6c0-0.9,0.7-1.6,1.6-1.6s1.6,0.7,1.6,1.6C9.1,8.3,8.4,9.1,7.5,9.1z M7.5,6.7
			C7,6.7,6.7,7,6.7,7.4c0,0.4,0.3,0.8,0.8,0.8s0.8-0.3,0.8-0.8C8.2,7,7.9,6.7,7.5,6.7z"/>
	</g>
</g>
<g>
	<path class="st0" d="M9,5.8c-0.9-0.9-2.4-0.9-3.3,0S4.9,8.1,5.8,9C6,9.2,6,9.5,5.8,9.7c-0.2,0.2-0.5,0.2-0.7,0
		C3.8,8.4,3.8,6.3,5.1,5s3.4-1.3,4.7,0s1.3,3.4,0,4.7c0,0,0,0,0,0C9.6,9.9,9.2,9.9,9,9.7C8.8,9.5,8.8,9.2,9,9C9.9,8.1,9.9,6.7,9,5.8
		z M10.7,1.7l-0.6,0.4C9.8,2,9.5,1.9,9.3,1.8L9.1,1.1C9,0.5,8.5,0,7.8,0L7,0C6.3,0,5.8,0.5,5.7,1.1L5.6,1.8C5.3,1.9,5,2,4.8,2.1
		L4.1,1.7C3.6,1.3,2.9,1.4,2.5,1.8L1.9,2.5C1.4,2.9,1.3,3.6,1.7,4.1l0.4,0.6C2,5,1.9,5.3,1.8,5.5L1.1,5.7C0.5,5.8,0,6.3,0,6.9l0,0.9
		C0,8.5,0.5,9,1.1,9.1l0.7,0.1C1.9,9.5,2,9.8,2.1,10l-0.4,0.6c-0.2,0.2-0.1,0.5,0.1,0.7c0.2,0.2,0.5,0.1,0.7-0.1c0,0,0,0,0,0
		l0.6-0.9c0.1-0.2,0.1-0.4,0-0.5C2.9,9.5,2.8,9.1,2.7,8.7C2.6,8.5,2.5,8.3,2.3,8.3l-1-0.2C1.1,8.1,1,8,1,7.8l0-0.9
		c0-0.1,0.1-0.3,0.2-0.3l1-0.2c0.2,0,0.3-0.2,0.4-0.4c0.1-0.4,0.3-0.8,0.5-1.2c0.1-0.2,0.1-0.4,0-0.5L2.5,3.5
		c-0.1-0.1-0.1-0.3,0-0.4l0.6-0.6c0.1-0.1,0.3-0.1,0.4,0l0.9,0.6c0.2,0.1,0.4,0.1,0.5,0c0.4-0.2,0.8-0.4,1.2-0.5
		c0.2-0.1,0.3-0.2,0.4-0.4l0.2-1C6.7,1.1,6.8,1,7,1l0.9,0C8,1,8.1,1.1,8.1,1.2l0.2,1c0,0.2,0.2,0.3,0.4,0.4c0.4,0.1,0.8,0.3,1.2,0.5
		c0.2,0.1,0.4,0.1,0.5,0l0.9-0.6c0.1-0.1,0.3-0.1,0.4,0l0.6,0.6c0.1,0.1,0.1,0.3,0,0.4l-0.6,0.9c-0.1,0.2-0.1,0.4,0,0.5
		c0.2,0.4,0.4,0.8,0.5,1.2c0.1,0.2,0.2,0.3,0.4,0.4l1,0.2c0.1,0,0.2,0.1,0.2,0.3v0.9c0,0.1-0.1,0.3-0.2,0.3l-1,0.2
		c-0.2,0-0.3,0.2-0.4,0.4c-0.1,0.4-0.3,0.8-0.5,1.2c-0.1,0.2-0.1,0.4,0,0.5l0.6,0.9c0.1,0.2,0.5,0.3,0.7,0.2
		c0.2-0.1,0.3-0.5,0.2-0.7c0,0,0,0,0,0l-0.4-0.6c0.1-0.3,0.2-0.5,0.3-0.8l0.7-0.1c0.6-0.1,1.1-0.6,1.1-1.3V7c0-0.6-0.4-1.2-1.1-1.3
		L13,5.5c-0.1-0.3-0.2-0.6-0.3-0.8l0.4-0.6c0.4-0.5,0.3-1.2-0.2-1.7l-0.6-0.6C11.9,1.4,11.2,1.3,10.7,1.7L10.7,1.7z"/>
</g>
</svg>
