<?xml version="1.0" encoding="UTF-8" standalone="no"?>
<!DOCTYPE svg PUBLIC "-//W3C//DTD SVG 1.1//EN" "http://www.w3.org/Graphics/SVG/1.1/DTD/svg11.dtd">
<svg width="100%" height="100%" viewBox="0 0 149 104" version="1.1" xmlns="http://www.w3.org/2000/svg" xmlns:xlink="http://www.w3.org/1999/xlink" xml:space="preserve" xmlns:serif="http://www.serif.com/" style="fill:transparent;fill-rule:evenodd;clip-rule:evenodd;stroke-linejoin:round;stroke-miterlimit:2;">
    <g transform="matrix(1,0,0,1,-798,-90)">
        <g id="Layer-11" serif:id="Layer 11">
        </g>
        <g id="Layer-10" serif:id="Layer 10">
        </g>
        <g id="Layer-1" serif:id="Layer 1" transform="matrix(8.33333,0,0,8.33333,0,0)">
            <g transform="matrix(1,0,0,1,0,-1611.47)">
                <rect x="0" y="1611.47" width="686.862" height="33.902" style="fill:trasnparent;"/>
            </g>
            <g transform="matrix(1,0,0,1,0,-1611.47)">
                <path d="M104.334,1623.36L103.701,1623.72L104.333,1624.09C104.711,1624.31 105.058,1624.58 105.364,1624.88C105.602,1625.12 105.819,1625.38 106.008,1625.67C106.169,1625.91 106.307,1626.17 106.421,1626.43C106.695,1627.06 106.834,1627.73 106.834,1628.42C106.834,1629.12 106.695,1629.78 106.421,1630.41C106.307,1630.67 106.169,1630.93 106.008,1631.17C105.82,1631.46 105.603,1631.72 105.364,1631.96C105.053,1632.27 104.707,1632.54 104.334,1632.75L103.698,1633.12L104.334,1633.49C105.22,1634 106.231,1634.27 107.257,1634.27C110.481,1634.27 113.104,1631.64 113.104,1628.42C113.104,1625.2 110.481,1622.58 107.257,1622.58C106.231,1622.58 105.22,1622.85 104.334,1623.36ZM106.715,1625.2C106.493,1624.87 106.24,1624.56 105.962,1624.28C105.783,1624.1 105.593,1623.94 105.393,1623.78C105.982,1623.55 106.616,1623.42 107.257,1623.42C110.013,1623.42 112.257,1625.67 112.257,1628.42C112.257,1631.18 110.013,1633.42 107.257,1633.42C106.617,1633.42 105.983,1633.3 105.393,1633.06C105.592,1632.91 105.782,1632.74 105.962,1632.56C106.242,1632.28 106.495,1631.97 106.716,1631.64C106.835,1631.46 106.942,1631.27 107.04,1631.08C107.161,1631.09 107.285,1631.1 107.412,1631.1C108.893,1631.1 110.094,1629.9 110.094,1628.42C110.094,1626.94 108.893,1625.74 107.412,1625.74C107.285,1625.74 107.161,1625.75 107.04,1625.77C106.942,1625.58 106.835,1625.39 106.715,1625.2Z" style="fill:#234D54;fill-rule:nonzero;"/>
            </g>
            <g transform="matrix(1,0,0,1,106.421,14.9579)">
                <path d="M0,3.982C-0.113,4.244 -0.252,4.5 -0.412,4.742C-0.601,5.027 -0.818,5.293 -1.057,5.532C-1.368,5.841 -1.714,6.107 -2.087,6.321C-2.844,6.759 -3.708,6.99 -4.585,6.99C-7.343,6.99 -9.585,4.748 -9.585,1.992C-9.585,-0.765 -7.343,-3.008 -4.585,-3.008C-3.708,-3.008 -2.844,-2.777 -2.087,-2.34C-1.709,-2.121 -1.363,-1.854 -1.057,-1.548C-0.819,-1.312 -0.602,-1.047 -0.412,-0.76C-0.251,-0.517 -0.113,-0.261 0,0.001C0.274,0.629 0.413,1.299 0.413,1.992C0.413,2.685 0.274,3.354 0,3.982M0.777,-0.337C0.645,-0.643 0.482,-0.942 0.294,-1.227C0.073,-1.562 -0.181,-1.872 -0.458,-2.148C-0.816,-2.505 -1.221,-2.816 -1.663,-3.073C-2.548,-3.584 -3.559,-3.855 -4.585,-3.855C-7.81,-3.855 -10.433,-1.232 -10.433,1.992C-10.433,5.215 -7.81,7.837 -4.585,7.837C-3.56,7.837 -2.549,7.567 -1.664,7.055C-1.228,6.804 -0.823,6.494 -0.458,6.132C-0.179,5.852 0.075,5.542 0.295,5.209C0.482,4.925 0.645,4.626 0.777,4.32C1.097,3.585 1.259,2.802 1.259,1.992C1.259,1.183 1.097,0.399 0.777,-0.337" style="fill:#234D54;fill-rule:nonzero;"/>
            </g>
            <g transform="matrix(1,0,0,1,101.834,15.4662)">
                <path d="M0,2.965C-0.817,2.965 -1.482,2.3 -1.482,1.483C-1.482,0.666 -0.817,0.001 0,0.001C0.817,0.001 1.482,0.666 1.482,1.483C1.482,2.3 0.817,2.965 0,2.965M0,-1.647C-1.726,-1.647 -3.129,-0.243 -3.129,1.483C-3.129,3.209 -1.726,4.612 0,4.612C1.726,4.612 3.129,3.209 3.129,1.483C3.129,-0.243 1.726,-1.647 0,-1.647" style="fill:#234D54;fill-rule:nonzero;"/>
            </g>
        </g>
        <g id="Layer-2" serif:id="Layer 2">
        </g>
        <g id="Layer-7" serif:id="Layer 7">
        </g>
        <g id="Layer-9" serif:id="Layer 9">
        </g>
    </g>
</svg>
