<?xml version="1.0" encoding="utf-8"?>
<!-- Generator: Adobe Illustrator 26.0.3, SVG Export Plug-In . SVG Version: 6.00 Build 0)  -->
<svg version="1.1" id="Layer_1" xmlns="http://www.w3.org/2000/svg" xmlns:xlink="http://www.w3.org/1999/xlink" x="0px" y="0px"
	 viewBox="0 0 18.1 14.3" style="enable-background:new 0 0 18.1 14.3;" xml:space="preserve">
<style type="text/css">
	.st0{fill:#0D3F5B;}
</style>
<g>
	<path class="st0" d="M6.8,14.3H5.4c-0.4,0-0.8-0.3-0.8-0.8V0.8C4.6,0.3,5,0,5.4,0h1.4C7,0,7.2,0.2,7.2,0.4v13.4
		C7.2,14.1,7,14.3,6.8,14.3z"/>
</g>
<g>
	<rect x="2.7" y="5.9" class="st0" width="14.3" height="2.6"/>
</g>
<g>
	<path class="st0" d="M4.9,12.4H3.1c-0.4,0-0.8-0.3-0.8-0.8v-9c0-0.4,0.3-0.8,0.8-0.8h1.8V12.4z"/>
</g>
<g>
	<path class="st0" d="M2.6,9.5H0.8C0.3,9.5,0,9.1,0,8.7V5.6c0-0.4,0.3-0.8,0.8-0.8h1.8V9.5z"/>
</g>
<g>
	<path class="st0" d="M12.7,14.3h-1.4c-0.2,0-0.4-0.2-0.4-0.4V0.4c0-0.2,0.2-0.4,0.4-0.4h1.4c0.4,0,0.8,0.3,0.8,0.8v12.8
		C13.5,14,13.1,14.3,12.7,14.3z"/>
</g>
<g>
	<path class="st0" d="M15,12.4h-1.8V1.9H15c0.4,0,0.8,0.3,0.8,0.8v9C15.8,12.1,15.5,12.4,15,12.4z"/>
</g>
<g>
	<path class="st0" d="M17.4,9.5h-1.8V4.8h1.8c0.4,0,0.8,0.3,0.8,0.8v3.1C18.1,9.1,17.8,9.5,17.4,9.5z"/>
</g>
</svg>
